<svg width="171" height="120" viewBox="0 0 171 120" fill="none" xmlns="http://www.w3.org/2000/svg">
<rect y="4" width="1" height="113" fill="black" fill-opacity="0.8"/>
<rect x="114" y="61" width="1" height="113" transform="rotate(90 114 61)" fill="black" fill-opacity="0.8"/>
<path d="M6.524 7.124C6.72133 7.124 6.89333 7.1 7.04 7.052C7.18667 7.00133 7.308 6.93067 7.404 6.84C7.50267 6.74667 7.576 6.63467 7.624 6.504C7.672 6.37067 7.696 6.22267 7.696 6.06C7.696 5.90533 7.672 5.76533 7.624 5.64C7.576 5.51467 7.504 5.408 7.408 5.32C7.312 5.232 7.19067 5.16533 7.044 5.12C6.89733 5.072 6.724 5.048 6.524 5.048H5.72V7.124H6.524ZM6.524 4.216C6.91067 4.216 7.24533 4.26133 7.528 4.352C7.81067 4.44267 8.044 4.56933 8.228 4.732C8.412 4.89467 8.548 5.08933 8.636 5.316C8.72667 5.54267 8.772 5.79067 8.772 6.06C8.772 6.34 8.72533 6.59733 8.632 6.832C8.53867 7.064 8.39867 7.264 8.212 7.432C8.02533 7.6 7.79067 7.73067 7.508 7.824C7.228 7.91733 6.9 7.964 6.524 7.964H5.72V10H4.644V4.216H6.524ZM11.3451 6.968C11.5478 6.968 11.7238 6.94267 11.8731 6.892C12.0251 6.84133 12.1491 6.772 12.2451 6.684C12.3438 6.59333 12.4171 6.48667 12.4651 6.364C12.5131 6.24133 12.5371 6.10667 12.5371 5.96C12.5371 5.66667 12.4398 5.44133 12.2451 5.284C12.0531 5.12667 11.7585 5.048 11.3611 5.048H10.6731V6.968H11.3451ZM14.1131 10H13.1411C12.9571 10 12.8238 9.928 12.7411 9.784L11.5251 7.932C11.4798 7.86267 11.4291 7.81333 11.3731 7.784C11.3198 7.75467 11.2398 7.74 11.1331 7.74H10.6731V10H9.59713V4.216H11.3611C11.7531 4.216 12.0891 4.25733 12.3691 4.34C12.6518 4.42 12.8825 4.53333 13.0611 4.68C13.2425 4.82667 13.3758 5.00267 13.4611 5.208C13.5465 5.41067 13.5891 5.63467 13.5891 5.88C13.5891 6.07467 13.5598 6.25867 13.5011 6.432C13.4451 6.60533 13.3625 6.76267 13.2531 6.904C13.1465 7.04533 13.0131 7.16933 12.8531 7.276C12.6958 7.38267 12.5158 7.46667 12.3131 7.528C12.3825 7.568 12.4465 7.616 12.5051 7.672C12.5638 7.72533 12.6171 7.78933 12.6651 7.864L14.1131 10ZM20.1756 7.108C20.1756 7.532 20.105 7.92533 19.9636 8.288C19.825 8.648 19.6276 8.96 19.3716 9.224C19.1156 9.488 18.8076 9.69467 18.4476 9.844C18.0876 9.99067 17.6876 10.064 17.2476 10.064C16.8103 10.064 16.4116 9.99067 16.0516 9.844C15.6916 9.69467 15.3823 9.488 15.1236 9.224C14.8676 8.96 14.669 8.648 14.5276 8.288C14.3863 7.92533 14.3156 7.532 14.3156 7.108C14.3156 6.684 14.3863 6.292 14.5276 5.932C14.669 5.56933 14.8676 5.256 15.1236 4.992C15.3823 4.728 15.6916 4.52267 16.0516 4.376C16.4116 4.22667 16.8103 4.152 17.2476 4.152C17.541 4.152 17.817 4.18667 18.0756 4.256C18.3343 4.32267 18.5716 4.41867 18.7876 4.544C19.0036 4.66667 19.197 4.81733 19.3676 4.996C19.541 5.172 19.6876 5.36933 19.8076 5.588C19.9276 5.80667 20.0183 6.044 20.0796 6.3C20.1436 6.556 20.1756 6.82533 20.1756 7.108ZM19.0756 7.108C19.0756 6.79067 19.033 6.50667 18.9476 6.256C18.8623 6.00267 18.741 5.788 18.5836 5.612C18.4263 5.436 18.2343 5.30133 18.0076 5.208C17.7836 5.11467 17.5303 5.068 17.2476 5.068C16.965 5.068 16.7103 5.11467 16.4836 5.208C16.2596 5.30133 16.0676 5.436 15.9076 5.612C15.7503 5.788 15.629 6.00267 15.5436 6.256C15.4583 6.50667 15.4156 6.79067 15.4156 7.108C15.4156 7.42533 15.4583 7.71067 15.5436 7.964C15.629 8.21467 15.7503 8.428 15.9076 8.604C16.0676 8.77733 16.2596 8.91067 16.4836 9.004C16.7103 9.09733 16.965 9.144 17.2476 9.144C17.5303 9.144 17.7836 9.09733 18.0076 9.004C18.2343 8.91067 18.4263 8.77733 18.5836 8.604C18.741 8.428 18.8623 8.21467 18.9476 7.964C19.033 7.71067 19.0756 7.42533 19.0756 7.108ZM22.2006 5.072V6.784H24.3686V7.644H22.2006V10H21.1206V4.216H24.7686V5.072H22.2006ZM26.7318 10H25.6518V4.216H26.7318V10ZM32.0668 5.1H30.3228V10H29.2468V5.1H27.5028V4.216H32.0668V5.1Z" fill="#212130"/>
<path d="M121.724 56.268C121.692 56.324 121.657 56.3653 121.62 56.392C121.585 56.416 121.541 56.428 121.488 56.428C121.432 56.428 121.371 56.408 121.304 56.368C121.24 56.3253 121.163 56.2787 121.072 56.228C120.981 56.1773 120.875 56.132 120.752 56.092C120.632 56.0493 120.489 56.028 120.324 56.028C120.175 56.028 120.044 56.0467 119.932 56.084C119.82 56.1187 119.725 56.168 119.648 56.232C119.573 56.296 119.517 56.3733 119.48 56.464C119.443 56.552 119.424 56.6493 119.424 56.756C119.424 56.892 119.461 57.0053 119.536 57.096C119.613 57.1867 119.715 57.264 119.84 57.328C119.965 57.392 120.108 57.4493 120.268 57.5C120.428 57.5507 120.592 57.6053 120.76 57.664C120.928 57.72 121.092 57.7867 121.252 57.864C121.412 57.9387 121.555 58.0347 121.68 58.152C121.805 58.2667 121.905 58.408 121.98 58.576C122.057 58.744 122.096 58.948 122.096 59.188C122.096 59.4493 122.051 59.6947 121.96 59.924C121.872 60.1507 121.741 60.3493 121.568 60.52C121.397 60.688 121.188 60.8213 120.94 60.92C120.692 61.016 120.408 61.064 120.088 61.064C119.904 61.064 119.723 61.0453 119.544 61.008C119.365 60.9733 119.193 60.9227 119.028 60.856C118.865 60.7893 118.712 60.7093 118.568 60.616C118.424 60.5227 118.296 60.4187 118.184 60.304L118.5 59.788C118.527 59.7507 118.561 59.72 118.604 59.696C118.647 59.6693 118.692 59.656 118.74 59.656C118.807 59.656 118.879 59.684 118.956 59.74C119.033 59.7933 119.125 59.8533 119.232 59.92C119.339 59.9867 119.463 60.048 119.604 60.104C119.748 60.1573 119.92 60.184 120.12 60.184C120.427 60.184 120.664 60.112 120.832 59.968C121 59.8213 121.084 59.612 121.084 59.34C121.084 59.188 121.045 59.064 120.968 58.968C120.893 58.872 120.793 58.792 120.668 58.728C120.543 58.6613 120.4 58.6053 120.24 58.56C120.08 58.5147 119.917 58.4653 119.752 58.412C119.587 58.3587 119.424 58.2947 119.264 58.22C119.104 58.1453 118.961 58.048 118.836 57.928C118.711 57.808 118.609 57.6587 118.532 57.48C118.457 57.2987 118.42 57.076 118.42 56.812C118.42 56.6013 118.461 56.396 118.544 56.196C118.629 55.996 118.752 55.8187 118.912 55.664C119.072 55.5093 119.269 55.3853 119.504 55.292C119.739 55.1987 120.008 55.152 120.312 55.152C120.653 55.152 120.968 55.2053 121.256 55.312C121.544 55.4187 121.789 55.568 121.992 55.76L121.724 56.268ZM127.075 56.1H125.331V61H124.255V56.1H122.511V55.216H127.075V56.1ZM133.152 58.108C133.152 58.532 133.082 58.9253 132.94 59.288C132.802 59.648 132.604 59.96 132.348 60.224C132.092 60.488 131.784 60.6947 131.424 60.844C131.064 60.9907 130.664 61.064 130.224 61.064C129.787 61.064 129.388 60.9907 129.028 60.844C128.668 60.6947 128.359 60.488 128.1 60.224C127.844 59.96 127.646 59.648 127.504 59.288C127.363 58.9253 127.292 58.532 127.292 58.108C127.292 57.684 127.363 57.292 127.504 56.932C127.646 56.5693 127.844 56.256 128.1 55.992C128.359 55.728 128.668 55.5227 129.028 55.376C129.388 55.2267 129.787 55.152 130.224 55.152C130.518 55.152 130.794 55.1867 131.052 55.256C131.311 55.3227 131.548 55.4187 131.764 55.544C131.98 55.6667 132.174 55.8173 132.344 55.996C132.518 56.172 132.664 56.3693 132.784 56.588C132.904 56.8067 132.995 57.044 133.056 57.3C133.12 57.556 133.152 57.8253 133.152 58.108ZM132.052 58.108C132.052 57.7907 132.01 57.5067 131.924 57.256C131.839 57.0027 131.718 56.788 131.56 56.612C131.403 56.436 131.211 56.3013 130.984 56.208C130.76 56.1147 130.507 56.068 130.224 56.068C129.942 56.068 129.687 56.1147 129.46 56.208C129.236 56.3013 129.044 56.436 128.884 56.612C128.727 56.788 128.606 57.0027 128.52 57.256C128.435 57.5067 128.392 57.7907 128.392 58.108C128.392 58.4253 128.435 58.7107 128.52 58.964C128.606 59.2147 128.727 59.428 128.884 59.604C129.044 59.7773 129.236 59.9107 129.46 60.004C129.687 60.0973 129.942 60.144 130.224 60.144C130.507 60.144 130.76 60.0973 130.984 60.004C131.211 59.9107 131.403 59.7773 131.56 59.604C131.718 59.428 131.839 59.2147 131.924 58.964C132.01 58.7107 132.052 58.4253 132.052 58.108ZM138.069 59.636C138.128 59.636 138.18 59.6587 138.225 59.704L138.649 60.164C138.414 60.4547 138.125 60.6773 137.781 60.832C137.44 60.9867 137.029 61.064 136.549 61.064C136.12 61.064 135.733 60.9907 135.389 60.844C135.048 60.6973 134.756 60.4933 134.513 60.232C134.27 59.9707 134.084 59.6587 133.953 59.296C133.825 58.9333 133.761 58.5373 133.761 58.108C133.761 57.6733 133.83 57.276 133.969 56.916C134.108 56.5533 134.302 56.2413 134.553 55.98C134.806 55.7187 135.108 55.516 135.457 55.372C135.806 55.2253 136.193 55.152 136.617 55.152C137.038 55.152 137.412 55.2213 137.737 55.36C138.065 55.4987 138.344 55.68 138.573 55.904L138.213 56.404C138.192 56.436 138.164 56.464 138.129 56.488C138.097 56.512 138.052 56.524 137.993 56.524C137.953 56.524 137.912 56.5133 137.869 56.492C137.826 56.468 137.78 56.44 137.729 56.408C137.678 56.3733 137.62 56.336 137.553 56.296C137.486 56.256 137.409 56.22 137.321 56.188C137.233 56.1533 137.13 56.1253 137.013 56.104C136.898 56.08 136.765 56.068 136.613 56.068C136.354 56.068 136.117 56.1147 135.901 56.208C135.688 56.2987 135.504 56.432 135.349 56.608C135.194 56.7813 135.074 56.9947 134.989 57.248C134.904 57.4987 134.861 57.7853 134.861 58.108C134.861 58.4333 134.906 58.7227 134.997 58.976C135.09 59.2293 135.216 59.4427 135.373 59.616C135.53 59.7893 135.716 59.9227 135.929 60.016C136.142 60.1067 136.372 60.152 136.617 60.152C136.764 60.152 136.896 60.144 137.013 60.128C137.133 60.112 137.242 60.0867 137.341 60.052C137.442 60.0173 137.537 59.9733 137.625 59.92C137.716 59.864 137.805 59.796 137.893 59.716C137.92 59.692 137.948 59.6733 137.977 59.66C138.006 59.644 138.037 59.636 138.069 59.636ZM140.462 57.64H140.714C140.816 57.64 140.9 57.6267 140.966 57.6C141.033 57.5707 141.09 57.5253 141.138 57.464L142.734 55.444C142.801 55.3587 142.87 55.3 142.942 55.268C143.017 55.2333 143.11 55.216 143.222 55.216H144.15L142.202 57.62C142.088 57.7667 141.969 57.8707 141.846 57.932C141.934 57.964 142.013 58.0093 142.082 58.068C142.154 58.124 142.222 58.1987 142.286 58.292L144.294 61H143.346C143.218 61 143.122 60.9827 143.058 60.948C142.997 60.9107 142.945 60.8573 142.902 60.788L141.266 58.652C141.216 58.58 141.157 58.5293 141.09 58.5C141.024 58.4707 140.928 58.456 140.802 58.456H140.462V61H139.386V55.216H140.462V57.64ZM148.696 58.124C148.893 58.124 149.065 58.1 149.212 58.052C149.359 58.0013 149.48 57.9307 149.576 57.84C149.675 57.7467 149.748 57.6347 149.796 57.504C149.844 57.3707 149.868 57.2227 149.868 57.06C149.868 56.9053 149.844 56.7653 149.796 56.64C149.748 56.5147 149.676 56.408 149.58 56.32C149.484 56.232 149.363 56.1653 149.216 56.12C149.069 56.072 148.896 56.048 148.696 56.048H147.892V58.124H148.696ZM148.696 55.216C149.083 55.216 149.417 55.2613 149.7 55.352C149.983 55.4427 150.216 55.5693 150.4 55.732C150.584 55.8947 150.72 56.0893 150.808 56.316C150.899 56.5427 150.944 56.7907 150.944 57.06C150.944 57.34 150.897 57.5973 150.804 57.832C150.711 58.064 150.571 58.264 150.384 58.432C150.197 58.6 149.963 58.7307 149.68 58.824C149.4 58.9173 149.072 58.964 148.696 58.964H147.892V61H146.816V55.216H148.696ZM153.517 57.968C153.72 57.968 153.896 57.9427 154.045 57.892C154.197 57.8413 154.321 57.772 154.417 57.684C154.516 57.5933 154.589 57.4867 154.637 57.364C154.685 57.2413 154.709 57.1067 154.709 56.96C154.709 56.6667 154.612 56.4413 154.417 56.284C154.225 56.1267 153.93 56.048 153.533 56.048H152.845V57.968H153.517ZM156.285 61H155.313C155.129 61 154.996 60.928 154.913 60.784L153.697 58.932C153.652 58.8627 153.601 58.8133 153.545 58.784C153.492 58.7547 153.412 58.74 153.305 58.74H152.845V61H151.769V55.216H153.533C153.925 55.216 154.261 55.2573 154.541 55.34C154.824 55.42 155.054 55.5333 155.233 55.68C155.414 55.8267 155.548 56.0027 155.633 56.208C155.718 56.4107 155.761 56.6347 155.761 56.88C155.761 57.0747 155.732 57.2587 155.673 57.432C155.617 57.6053 155.534 57.7627 155.425 57.904C155.318 58.0453 155.185 58.1693 155.025 58.276C154.868 58.3827 154.688 58.4667 154.485 58.528C154.554 58.568 154.618 58.616 154.677 58.672C154.736 58.7253 154.789 58.7893 154.837 58.864L156.285 61ZM157.99 61H156.91V55.216H157.99V61ZM163.257 59.636C163.315 59.636 163.367 59.6587 163.413 59.704L163.837 60.164C163.602 60.4547 163.313 60.6773 162.969 60.832C162.627 60.9867 162.217 61.064 161.737 61.064C161.307 61.064 160.921 60.9907 160.577 60.844C160.235 60.6973 159.943 60.4933 159.701 60.232C159.458 59.9707 159.271 59.6587 159.141 59.296C159.013 58.9333 158.949 58.5373 158.949 58.108C158.949 57.6733 159.018 57.276 159.157 56.916C159.295 56.5533 159.49 56.2413 159.741 55.98C159.994 55.7187 160.295 55.516 160.645 55.372C160.994 55.2253 161.381 55.152 161.805 55.152C162.226 55.152 162.599 55.2213 162.925 55.36C163.253 55.4987 163.531 55.68 163.761 55.904L163.401 56.404C163.379 56.436 163.351 56.464 163.317 56.488C163.285 56.512 163.239 56.524 163.181 56.524C163.141 56.524 163.099 56.5133 163.057 56.492C163.014 56.468 162.967 56.44 162.917 56.408C162.866 56.3733 162.807 56.336 162.741 56.296C162.674 56.256 162.597 56.22 162.509 56.188C162.421 56.1533 162.318 56.1253 162.201 56.104C162.086 56.08 161.953 56.068 161.801 56.068C161.542 56.068 161.305 56.1147 161.089 56.208C160.875 56.2987 160.691 56.432 160.537 56.608C160.382 56.7813 160.262 56.9947 160.177 57.248C160.091 57.4987 160.049 57.7853 160.049 58.108C160.049 58.4333 160.094 58.7227 160.185 58.976C160.278 59.2293 160.403 59.4427 160.561 59.616C160.718 59.7893 160.903 59.9227 161.117 60.016C161.33 60.1067 161.559 60.152 161.805 60.152C161.951 60.152 162.083 60.144 162.201 60.128C162.321 60.112 162.43 60.0867 162.529 60.052C162.63 60.0173 162.725 59.9733 162.813 59.92C162.903 59.864 162.993 59.796 163.081 59.716C163.107 59.692 163.135 59.6733 163.165 59.66C163.194 59.644 163.225 59.636 163.257 59.636ZM165.654 56.072V57.676H167.678V58.504H165.654V60.14H168.222V61H164.574V55.216H168.222V56.072H165.654ZM121.7 67.816L120.996 65.892C120.961 65.8067 120.925 65.7053 120.888 65.588C120.851 65.4707 120.813 65.344 120.776 65.208C120.741 65.344 120.705 65.472 120.668 65.592C120.631 65.7093 120.595 65.812 120.56 65.9L119.86 67.816H121.7ZM123.6 70H122.768C122.675 70 122.599 69.9773 122.54 69.932C122.481 69.884 122.437 69.8253 122.408 69.756L121.976 68.576H119.58L119.148 69.756C119.127 69.8173 119.085 69.8733 119.024 69.924C118.963 69.9747 118.887 70 118.796 70H117.956L120.232 64.216H121.328L123.6 70ZM127.676 65.1H125.932V70H124.856V65.1H123.112V64.216H127.676V65.1ZM131.216 65.072V66.676H133.24V67.504H131.216V69.14H133.784V70H130.136V64.216H133.784V65.072H131.216ZM139.438 70H138.366C138.291 70 138.231 69.9813 138.186 69.944C138.143 69.9067 138.108 69.864 138.082 69.816L136.742 67.596C136.72 67.6627 136.695 67.72 136.666 67.768L135.382 69.816C135.35 69.8613 135.312 69.904 135.27 69.944C135.23 69.9813 135.176 70 135.11 70H134.106L136.026 67.024L134.182 64.216H135.254C135.328 64.216 135.382 64.2267 135.414 64.248C135.448 64.2667 135.48 64.2987 135.51 64.344L136.826 66.464C136.852 66.3973 136.884 66.3307 136.922 66.264L138.13 64.364C138.159 64.3133 138.191 64.276 138.226 64.252C138.26 64.228 138.304 64.216 138.358 64.216H139.386L137.526 66.98L139.438 70ZM141.985 67.124C142.182 67.124 142.354 67.1 142.501 67.052C142.648 67.0013 142.769 66.9307 142.865 66.84C142.964 66.7467 143.037 66.6347 143.085 66.504C143.133 66.3707 143.157 66.2227 143.157 66.06C143.157 65.9053 143.133 65.7653 143.085 65.64C143.037 65.5147 142.965 65.408 142.869 65.32C142.773 65.232 142.652 65.1653 142.505 65.12C142.358 65.072 142.185 65.048 141.985 65.048H141.181V67.124H141.985ZM141.985 64.216C142.372 64.216 142.706 64.2613 142.989 64.352C143.272 64.4427 143.505 64.5693 143.689 64.732C143.873 64.8947 144.009 65.0893 144.097 65.316C144.188 65.5427 144.233 65.7907 144.233 66.06C144.233 66.34 144.186 66.5973 144.093 66.832C144 67.064 143.86 67.264 143.673 67.432C143.486 67.6 143.252 67.7307 142.969 67.824C142.689 67.9173 142.361 67.964 141.985 67.964H141.181V70H140.105V64.216H141.985ZM144.008 69.456C144.008 69.3733 144.023 69.2947 144.052 69.22C144.084 69.1453 144.127 69.0813 144.18 69.028C144.233 68.9747 144.297 68.932 144.372 68.9C144.447 68.868 144.527 68.852 144.612 68.852C144.697 68.852 144.776 68.868 144.848 68.9C144.923 68.932 144.987 68.9747 145.04 69.028C145.096 69.0813 145.14 69.1453 145.172 69.22C145.204 69.2947 145.22 69.3733 145.22 69.456C145.22 69.5413 145.204 69.6213 145.172 69.696C145.14 69.768 145.096 69.8307 145.04 69.884C144.987 69.9373 144.923 69.9787 144.848 70.008C144.776 70.04 144.697 70.056 144.612 70.056C144.527 70.056 144.447 70.04 144.372 70.008C144.297 69.9787 144.233 69.9373 144.18 69.884C144.127 69.8307 144.084 69.768 144.052 69.696C144.023 69.6213 144.008 69.5413 144.008 69.456Z" fill="#212130"/>
<path d="M47.7 54.816L46.996 52.892C46.9613 52.8067 46.9253 52.7053 46.888 52.588C46.8507 52.4707 46.8133 52.344 46.776 52.208C46.7413 52.344 46.7053 52.472 46.668 52.592C46.6307 52.7093 46.5947 52.812 46.56 52.9L45.86 54.816H47.7ZM49.6 57H48.768C48.6747 57 48.5987 56.9773 48.54 56.932C48.4813 56.884 48.4373 56.8253 48.408 56.756L47.976 55.576H45.58L45.148 56.756C45.1267 56.8173 45.0853 56.8733 45.024 56.924C44.9627 56.9747 44.8867 57 44.796 57H43.956L46.232 51.216H47.328L49.6 57Z" fill="#00CC08"/>
<path d="M8.032 116.112V117H4.644V111.216H5.72V116.112H8.032ZM14.1131 114.108C14.1131 114.532 14.0425 114.925 13.9011 115.288C13.7625 115.648 13.5651 115.96 13.3091 116.224C13.0531 116.488 12.7451 116.695 12.3851 116.844C12.0251 116.991 11.6251 117.064 11.1851 117.064C10.7478 117.064 10.3491 116.991 9.98913 116.844C9.62913 116.695 9.31979 116.488 9.06113 116.224C8.80513 115.96 8.60646 115.648 8.46513 115.288C8.32379 114.925 8.25313 114.532 8.25313 114.108C8.25313 113.684 8.32379 113.292 8.46513 112.932C8.60646 112.569 8.80513 112.256 9.06113 111.992C9.31979 111.728 9.62913 111.523 9.98913 111.376C10.3491 111.227 10.7478 111.152 11.1851 111.152C11.4785 111.152 11.7545 111.187 12.0131 111.256C12.2718 111.323 12.5091 111.419 12.7251 111.544C12.9411 111.667 13.1345 111.817 13.3051 111.996C13.4785 112.172 13.6251 112.369 13.7451 112.588C13.8651 112.807 13.9558 113.044 14.0171 113.3C14.0811 113.556 14.1131 113.825 14.1131 114.108ZM13.0131 114.108C13.0131 113.791 12.9705 113.507 12.8851 113.256C12.7998 113.003 12.6785 112.788 12.5211 112.612C12.3638 112.436 12.1718 112.301 11.9451 112.208C11.7211 112.115 11.4678 112.068 11.1851 112.068C10.9025 112.068 10.6478 112.115 10.4211 112.208C10.1971 112.301 10.0051 112.436 9.84513 112.612C9.68779 112.788 9.56646 113.003 9.48113 113.256C9.39579 113.507 9.35313 113.791 9.35313 114.108C9.35313 114.425 9.39579 114.711 9.48113 114.964C9.56646 115.215 9.68779 115.428 9.84513 115.604C10.0051 115.777 10.1971 115.911 10.4211 116.004C10.6478 116.097 10.9025 116.144 11.1851 116.144C11.4678 116.144 11.7211 116.097 11.9451 116.004C12.1718 115.911 12.3638 115.777 12.5211 115.604C12.6785 115.428 12.7998 115.215 12.8851 114.964C12.9705 114.711 13.0131 114.425 13.0131 114.108ZM18.1381 112.268C18.1061 112.324 18.0714 112.365 18.0341 112.392C17.9994 112.416 17.9554 112.428 17.9021 112.428C17.8461 112.428 17.7847 112.408 17.7181 112.368C17.6541 112.325 17.5767 112.279 17.4861 112.228C17.3954 112.177 17.2887 112.132 17.1661 112.092C17.0461 112.049 16.9034 112.028 16.7381 112.028C16.5887 112.028 16.4581 112.047 16.3461 112.084C16.2341 112.119 16.1394 112.168 16.0621 112.232C15.9874 112.296 15.9314 112.373 15.8941 112.464C15.8567 112.552 15.8381 112.649 15.8381 112.756C15.8381 112.892 15.8754 113.005 15.9501 113.096C16.0274 113.187 16.1287 113.264 16.2541 113.328C16.3794 113.392 16.5221 113.449 16.6821 113.5C16.8421 113.551 17.0061 113.605 17.1741 113.664C17.3421 113.72 17.5061 113.787 17.6661 113.864C17.8261 113.939 17.9687 114.035 18.0941 114.152C18.2194 114.267 18.3194 114.408 18.3941 114.576C18.4714 114.744 18.5101 114.948 18.5101 115.188C18.5101 115.449 18.4647 115.695 18.3741 115.924C18.2861 116.151 18.1554 116.349 17.9821 116.52C17.8114 116.688 17.6021 116.821 17.3541 116.92C17.1061 117.016 16.8221 117.064 16.5021 117.064C16.3181 117.064 16.1367 117.045 15.9581 117.008C15.7794 116.973 15.6074 116.923 15.4421 116.856C15.2794 116.789 15.1261 116.709 14.9821 116.616C14.8381 116.523 14.7101 116.419 14.5981 116.304L14.9141 115.788C14.9407 115.751 14.9754 115.72 15.0181 115.696C15.0607 115.669 15.1061 115.656 15.1541 115.656C15.2207 115.656 15.2927 115.684 15.3701 115.74C15.4474 115.793 15.5394 115.853 15.6461 115.92C15.7527 115.987 15.8767 116.048 16.0181 116.104C16.1621 116.157 16.3341 116.184 16.5341 116.184C16.8407 116.184 17.0781 116.112 17.2461 115.968C17.4141 115.821 17.4981 115.612 17.4981 115.34C17.4981 115.188 17.4594 115.064 17.3821 114.968C17.3074 114.872 17.2074 114.792 17.0821 114.728C16.9567 114.661 16.8141 114.605 16.6541 114.56C16.4941 114.515 16.3314 114.465 16.1661 114.412C16.0007 114.359 15.8381 114.295 15.6781 114.22C15.5181 114.145 15.3754 114.048 15.2501 113.928C15.1247 113.808 15.0234 113.659 14.9461 113.48C14.8714 113.299 14.8341 113.076 14.8341 112.812C14.8341 112.601 14.8754 112.396 14.9581 112.196C15.0434 111.996 15.1661 111.819 15.3261 111.664C15.4861 111.509 15.6834 111.385 15.9181 111.292C16.1527 111.199 16.4221 111.152 16.7261 111.152C17.0674 111.152 17.3821 111.205 17.6701 111.312C17.9581 111.419 18.2034 111.568 18.4061 111.76L18.1381 112.268ZM22.5287 112.268C22.4967 112.324 22.462 112.365 22.4247 112.392C22.39 112.416 22.346 112.428 22.2927 112.428C22.2367 112.428 22.1754 112.408 22.1087 112.368C22.0447 112.325 21.9674 112.279 21.8767 112.228C21.786 112.177 21.6794 112.132 21.5567 112.092C21.4367 112.049 21.294 112.028 21.1287 112.028C20.9794 112.028 20.8487 112.047 20.7367 112.084C20.6247 112.119 20.53 112.168 20.4527 112.232C20.378 112.296 20.322 112.373 20.2847 112.464C20.2474 112.552 20.2287 112.649 20.2287 112.756C20.2287 112.892 20.266 113.005 20.3407 113.096C20.418 113.187 20.5194 113.264 20.6447 113.328C20.77 113.392 20.9127 113.449 21.0727 113.5C21.2327 113.551 21.3967 113.605 21.5647 113.664C21.7327 113.72 21.8967 113.787 22.0567 113.864C22.2167 113.939 22.3594 114.035 22.4847 114.152C22.61 114.267 22.71 114.408 22.7847 114.576C22.862 114.744 22.9007 114.948 22.9007 115.188C22.9007 115.449 22.8554 115.695 22.7647 115.924C22.6767 116.151 22.546 116.349 22.3727 116.52C22.202 116.688 21.9927 116.821 21.7447 116.92C21.4967 117.016 21.2127 117.064 20.8927 117.064C20.7087 117.064 20.5274 117.045 20.3487 117.008C20.17 116.973 19.998 116.923 19.8327 116.856C19.67 116.789 19.5167 116.709 19.3727 116.616C19.2287 116.523 19.1007 116.419 18.9887 116.304L19.3047 115.788C19.3314 115.751 19.366 115.72 19.4087 115.696C19.4514 115.669 19.4967 115.656 19.5447 115.656C19.6114 115.656 19.6834 115.684 19.7607 115.74C19.838 115.793 19.93 115.853 20.0367 115.92C20.1434 115.987 20.2674 116.048 20.4087 116.104C20.5527 116.157 20.7247 116.184 20.9247 116.184C21.2314 116.184 21.4687 116.112 21.6367 115.968C21.8047 115.821 21.8887 115.612 21.8887 115.34C21.8887 115.188 21.85 115.064 21.7727 114.968C21.698 114.872 21.598 114.792 21.4727 114.728C21.3474 114.661 21.2047 114.605 21.0447 114.56C20.8847 114.515 20.722 114.465 20.5567 114.412C20.3914 114.359 20.2287 114.295 20.0687 114.22C19.9087 114.145 19.766 114.048 19.6407 113.928C19.5154 113.808 19.414 113.659 19.3367 113.48C19.262 113.299 19.2247 113.076 19.2247 112.812C19.2247 112.601 19.266 112.396 19.3487 112.196C19.434 111.996 19.5567 111.819 19.7167 111.664C19.8767 111.509 20.074 111.385 20.3087 111.292C20.5434 111.199 20.8127 111.152 21.1167 111.152C21.458 111.152 21.7727 111.205 22.0607 111.312C22.3487 111.419 22.594 111.568 22.7967 111.76L22.5287 112.268Z" fill="#212130"/>
<rect width="1" height="73.3562" transform="matrix(0.866025 -0.5 -0.5 -0.866025 46.6777 90.0273)" fill="#D46600"/>
<rect width="1" height="73.3562" transform="matrix(-4.37114e-08 -1 -1 4.37114e-08 120.356 90.0156)" fill="#D46600"/>
<rect x="46" y="58" width="2" height="7" fill="#00CC08"/>
</svg>
