<svg width="17" height="16" viewBox="0 0 17 16" fill="none" xmlns="http://www.w3.org/2000/svg">
<path d="M15.1668 11.2V1.6C15.1668 1.17565 14.9912 0.768687 14.6787 0.468629C14.3661 0.168571 13.9422 0 13.5002 0H3.50016C3.05814 0 2.63421 0.168571 2.32165 0.468629C2.00909 0.768687 1.8335 1.17565 1.8335 1.6V13.6C1.8335 14.2365 2.09689 14.847 2.56573 15.2971C3.03457 15.7471 3.67045 16 4.3335 16H14.3335C14.5545 16 14.7665 15.9157 14.9228 15.7657C15.079 15.6157 15.1668 15.4122 15.1668 15.2C15.1668 14.9878 15.079 14.7843 14.9228 14.6343C14.7665 14.4843 14.5545 14.4 14.3335 14.4H13.5002V12.8C13.9422 12.8 14.3661 12.6314 14.6787 12.3314C14.9912 12.0313 15.1668 11.6243 15.1668 11.2ZM5.16683 1.6H6.8335V11.2H5.16683V1.6ZM11.8335 14.4H4.3335C4.11248 14.4 3.90052 14.3157 3.74424 14.1657C3.58796 14.0157 3.50016 13.8122 3.50016 13.6C3.50016 13.3878 3.58796 13.1843 3.74424 13.0343C3.90052 12.8843 4.11248 12.8 4.3335 12.8H11.8335V14.4Z" fill="#1F2A37"/>
</svg>
