<svg width="15" height="14" viewBox="0 0 15 14" fill="none" xmlns="http://www.w3.org/2000/svg">
<g clip-path="url(#clip0_929_2948)">
<mask id="path-1-inside-1_929_2948" fill="white">
<path d="M0.5 12.6C0.5 12.9713 0.6475 13.3274 0.91005 13.5899C1.1726 13.8525 1.5287 14 1.9 14H13.1C13.4713 14 13.8274 13.8525 14.0899 13.5899C14.3525 13.3274 14.5 12.9713 14.5 12.6V5.6H0.5V12.6ZM10.3 7.35C10.3 7.25717 10.3369 7.16815 10.4025 7.10251C10.4682 7.03687 10.5572 7 10.65 7H11.35C11.4428 7 11.5318 7.03687 11.5975 7.10251C11.6631 7.16815 11.7 7.25717 11.7 7.35V8.05C11.7 8.14283 11.6631 8.23185 11.5975 8.29749C11.5318 8.36312 11.4428 8.4 11.35 8.4H10.65C10.5572 8.4 10.4682 8.36312 10.4025 8.29749C10.3369 8.23185 10.3 8.14283 10.3 8.05V7.35ZM10.3 10.15C10.3 10.0572 10.3369 9.96815 10.4025 9.90251C10.4682 9.83687 10.5572 9.8 10.65 9.8H11.35C11.4428 9.8 11.5318 9.83687 11.5975 9.90251C11.6631 9.96815 11.7 10.0572 11.7 10.15V10.85C11.7 10.9428 11.6631 11.0318 11.5975 11.0975C11.5318 11.1631 11.4428 11.2 11.35 11.2H10.65C10.5572 11.2 10.4682 11.1631 10.4025 11.0975C10.3369 11.0318 10.3 10.9428 10.3 10.85V10.15ZM6.8 7.35C6.8 7.25717 6.83687 7.16815 6.90251 7.10251C6.96815 7.03687 7.05717 7 7.15 7H7.85C7.94283 7 8.03185 7.03687 8.09749 7.10251C8.16313 7.16815 8.2 7.25717 8.2 7.35V8.05C8.2 8.14283 8.16313 8.23185 8.09749 8.29749C8.03185 8.36312 7.94283 8.4 7.85 8.4H7.15C7.05717 8.4 6.96815 8.36312 6.90251 8.29749C6.83687 8.23185 6.8 8.14283 6.8 8.05V7.35ZM6.8 10.15C6.8 10.0572 6.83687 9.96815 6.90251 9.90251C6.96815 9.83687 7.05717 9.8 7.15 9.8H7.85C7.94283 9.8 8.03185 9.83687 8.09749 9.90251C8.16313 9.96815 8.2 10.0572 8.2 10.15V10.85C8.2 10.9428 8.16313 11.0318 8.09749 11.0975C8.03185 11.1631 7.94283 11.2 7.85 11.2H7.15C7.05717 11.2 6.96815 11.1631 6.90251 11.0975C6.83687 11.0318 6.8 10.9428 6.8 10.85V10.15ZM3.3 7.35C3.3 7.25717 3.33687 7.16815 3.40251 7.10251C3.46815 7.03687 3.55717 7 3.65 7H4.35C4.44283 7 4.53185 7.03687 4.59749 7.10251C4.66313 7.16815 4.7 7.25717 4.7 7.35V8.05C4.7 8.14283 4.66313 8.23185 4.59749 8.29749C4.53185 8.36312 4.44283 8.4 4.35 8.4H3.65C3.55717 8.4 3.46815 8.36312 3.40251 8.29749C3.33687 8.23185 3.3 8.14283 3.3 8.05V7.35ZM3.3 10.15C3.3 10.0572 3.33687 9.96815 3.40251 9.90251C3.46815 9.83687 3.55717 9.8 3.65 9.8H4.35C4.44283 9.8 4.53185 9.83687 4.59749 9.90251C4.66313 9.96815 4.7 10.0572 4.7 10.15V10.85C4.7 10.9428 4.66313 11.0318 4.59749 11.0975C4.53185 11.1631 4.44283 11.2 4.35 11.2H3.65C3.55717 11.2 3.46815 11.1631 3.40251 11.0975C3.33687 11.0318 3.3 10.9428 3.3 10.85V10.15Z"/>
<path d="M14.5 2.8C14.5 2.4287 14.3525 2.0726 14.0899 1.81005C13.8274 1.5475 13.4713 1.4 13.1 1.4H11.7V0.7C11.7 0.514348 11.6263 0.336301 11.495 0.205025C11.3637 0.0737498 11.1857 0 11 0C10.8143 0 10.6363 0.0737498 10.505 0.205025C10.3737 0.336301 10.3 0.514348 10.3 0.7V1.4H8.2V0.7C8.2 0.514348 8.12625 0.336301 7.99497 0.205025C7.8637 0.0737498 7.68565 0 7.5 0C7.31435 0 7.1363 0.0737498 7.00503 0.205025C6.87375 0.336301 6.8 0.514348 6.8 0.7V1.4H4.7V0.7C4.7 0.514348 4.62625 0.336301 4.49497 0.205025C4.3637 0.0737498 4.18565 0 4 0C3.81435 0 3.6363 0.0737498 3.50503 0.205025C3.37375 0.336301 3.3 0.514348 3.3 0.7V1.4H1.9C1.5287 1.4 1.1726 1.5475 0.91005 1.81005C0.6475 2.0726 0.5 2.4287 0.5 2.8V4.2H14.5V2.8Z"/>
</mask>
<path d="M0.5 12.6C0.5 12.9713 0.6475 13.3274 0.91005 13.5899C1.1726 13.8525 1.5287 14 1.9 14H13.1C13.4713 14 13.8274 13.8525 14.0899 13.5899C14.3525 13.3274 14.5 12.9713 14.5 12.6V5.6H0.5V12.6ZM10.3 7.35C10.3 7.25717 10.3369 7.16815 10.4025 7.10251C10.4682 7.03687 10.5572 7 10.65 7H11.35C11.4428 7 11.5318 7.03687 11.5975 7.10251C11.6631 7.16815 11.7 7.25717 11.7 7.35V8.05C11.7 8.14283 11.6631 8.23185 11.5975 8.29749C11.5318 8.36312 11.4428 8.4 11.35 8.4H10.65C10.5572 8.4 10.4682 8.36312 10.4025 8.29749C10.3369 8.23185 10.3 8.14283 10.3 8.05V7.35ZM10.3 10.15C10.3 10.0572 10.3369 9.96815 10.4025 9.90251C10.4682 9.83687 10.5572 9.8 10.65 9.8H11.35C11.4428 9.8 11.5318 9.83687 11.5975 9.90251C11.6631 9.96815 11.7 10.0572 11.7 10.15V10.85C11.7 10.9428 11.6631 11.0318 11.5975 11.0975C11.5318 11.1631 11.4428 11.2 11.35 11.2H10.65C10.5572 11.2 10.4682 11.1631 10.4025 11.0975C10.3369 11.0318 10.3 10.9428 10.3 10.85V10.15ZM6.8 7.35C6.8 7.25717 6.83687 7.16815 6.90251 7.10251C6.96815 7.03687 7.05717 7 7.15 7H7.85C7.94283 7 8.03185 7.03687 8.09749 7.10251C8.16313 7.16815 8.2 7.25717 8.2 7.35V8.05C8.2 8.14283 8.16313 8.23185 8.09749 8.29749C8.03185 8.36312 7.94283 8.4 7.85 8.4H7.15C7.05717 8.4 6.96815 8.36312 6.90251 8.29749C6.83687 8.23185 6.8 8.14283 6.8 8.05V7.35ZM6.8 10.15C6.8 10.0572 6.83687 9.96815 6.90251 9.90251C6.96815 9.83687 7.05717 9.8 7.15 9.8H7.85C7.94283 9.8 8.03185 9.83687 8.09749 9.90251C8.16313 9.96815 8.2 10.0572 8.2 10.15V10.85C8.2 10.9428 8.16313 11.0318 8.09749 11.0975C8.03185 11.1631 7.94283 11.2 7.85 11.2H7.15C7.05717 11.2 6.96815 11.1631 6.90251 11.0975C6.83687 11.0318 6.8 10.9428 6.8 10.85V10.15ZM3.3 7.35C3.3 7.25717 3.33687 7.16815 3.40251 7.10251C3.46815 7.03687 3.55717 7 3.65 7H4.35C4.44283 7 4.53185 7.03687 4.59749 7.10251C4.66313 7.16815 4.7 7.25717 4.7 7.35V8.05C4.7 8.14283 4.66313 8.23185 4.59749 8.29749C4.53185 8.36312 4.44283 8.4 4.35 8.4H3.65C3.55717 8.4 3.46815 8.36312 3.40251 8.29749C3.33687 8.23185 3.3 8.14283 3.3 8.05V7.35ZM3.3 10.15C3.3 10.0572 3.33687 9.96815 3.40251 9.90251C3.46815 9.83687 3.55717 9.8 3.65 9.8H4.35C4.44283 9.8 4.53185 9.83687 4.59749 9.90251C4.66313 9.96815 4.7 10.0572 4.7 10.15V10.85C4.7 10.9428 4.66313 11.0318 4.59749 11.0975C4.53185 11.1631 4.44283 11.2 4.35 11.2H3.65C3.55717 11.2 3.46815 11.1631 3.40251 11.0975C3.33687 11.0318 3.3 10.9428 3.3 10.85V10.15Z" fill="#6B7280"/>
<path d="M14.5 2.8C14.5 2.4287 14.3525 2.0726 14.0899 1.81005C13.8274 1.5475 13.4713 1.4 13.1 1.4H11.7V0.7C11.7 0.514348 11.6263 0.336301 11.495 0.205025C11.3637 0.0737498 11.1857 0 11 0C10.8143 0 10.6363 0.0737498 10.505 0.205025C10.3737 0.336301 10.3 0.514348 10.3 0.7V1.4H8.2V0.7C8.2 0.514348 8.12625 0.336301 7.99497 0.205025C7.8637 0.0737498 7.68565 0 7.5 0C7.31435 0 7.1363 0.0737498 7.00503 0.205025C6.87375 0.336301 6.8 0.514348 6.8 0.7V1.4H4.7V0.7C4.7 0.514348 4.62625 0.336301 4.49497 0.205025C4.3637 0.0737498 4.18565 0 4 0C3.81435 0 3.6363 0.0737498 3.50503 0.205025C3.37375 0.336301 3.3 0.514348 3.3 0.7V1.4H1.9C1.5287 1.4 1.1726 1.5475 0.91005 1.81005C0.6475 2.0726 0.5 2.4287 0.5 2.8V4.2H14.5V2.8Z" fill="#6B7280"/>
<path d="M0.5 12.6C0.5 12.9713 0.6475 13.3274 0.91005 13.5899C1.1726 13.8525 1.5287 14 1.9 14H13.1C13.4713 14 13.8274 13.8525 14.0899 13.5899C14.3525 13.3274 14.5 12.9713 14.5 12.6V5.6H0.5V12.6ZM10.3 7.35C10.3 7.25717 10.3369 7.16815 10.4025 7.10251C10.4682 7.03687 10.5572 7 10.65 7H11.35C11.4428 7 11.5318 7.03687 11.5975 7.10251C11.6631 7.16815 11.7 7.25717 11.7 7.35V8.05C11.7 8.14283 11.6631 8.23185 11.5975 8.29749C11.5318 8.36312 11.4428 8.4 11.35 8.4H10.65C10.5572 8.4 10.4682 8.36312 10.4025 8.29749C10.3369 8.23185 10.3 8.14283 10.3 8.05V7.35ZM10.3 10.15C10.3 10.0572 10.3369 9.96815 10.4025 9.90251C10.4682 9.83687 10.5572 9.8 10.65 9.8H11.35C11.4428 9.8 11.5318 9.83687 11.5975 9.90251C11.6631 9.96815 11.7 10.0572 11.7 10.15V10.85C11.7 10.9428 11.6631 11.0318 11.5975 11.0975C11.5318 11.1631 11.4428 11.2 11.35 11.2H10.65C10.5572 11.2 10.4682 11.1631 10.4025 11.0975C10.3369 11.0318 10.3 10.9428 10.3 10.85V10.15ZM6.8 7.35C6.8 7.25717 6.83687 7.16815 6.90251 7.10251C6.96815 7.03687 7.05717 7 7.15 7H7.85C7.94283 7 8.03185 7.03687 8.09749 7.10251C8.16313 7.16815 8.2 7.25717 8.2 7.35V8.05C8.2 8.14283 8.16313 8.23185 8.09749 8.29749C8.03185 8.36312 7.94283 8.4 7.85 8.4H7.15C7.05717 8.4 6.96815 8.36312 6.90251 8.29749C6.83687 8.23185 6.8 8.14283 6.8 8.05V7.35ZM6.8 10.15C6.8 10.0572 6.83687 9.96815 6.90251 9.90251C6.96815 9.83687 7.05717 9.8 7.15 9.8H7.85C7.94283 9.8 8.03185 9.83687 8.09749 9.90251C8.16313 9.96815 8.2 10.0572 8.2 10.15V10.85C8.2 10.9428 8.16313 11.0318 8.09749 11.0975C8.03185 11.1631 7.94283 11.2 7.85 11.2H7.15C7.05717 11.2 6.96815 11.1631 6.90251 11.0975C6.83687 11.0318 6.8 10.9428 6.8 10.85V10.15ZM3.3 7.35C3.3 7.25717 3.33687 7.16815 3.40251 7.10251C3.46815 7.03687 3.55717 7 3.65 7H4.35C4.44283 7 4.53185 7.03687 4.59749 7.10251C4.66313 7.16815 4.7 7.25717 4.7 7.35V8.05C4.7 8.14283 4.66313 8.23185 4.59749 8.29749C4.53185 8.36312 4.44283 8.4 4.35 8.4H3.65C3.55717 8.4 3.46815 8.36312 3.40251 8.29749C3.33687 8.23185 3.3 8.14283 3.3 8.05V7.35ZM3.3 10.15C3.3 10.0572 3.33687 9.96815 3.40251 9.90251C3.46815 9.83687 3.55717 9.8 3.65 9.8H4.35C4.44283 9.8 4.53185 9.83687 4.59749 9.90251C4.66313 9.96815 4.7 10.0572 4.7 10.15V10.85C4.7 10.9428 4.66313 11.0318 4.59749 11.0975C4.53185 11.1631 4.44283 11.2 4.35 11.2H3.65C3.55717 11.2 3.46815 11.1631 3.40251 11.0975C3.33687 11.0318 3.3 10.9428 3.3 10.85V10.15Z" stroke="#6B7280" stroke-width="2" mask="url(#path-1-inside-1_929_2948)"/>
<path d="M14.5 2.8C14.5 2.4287 14.3525 2.0726 14.0899 1.81005C13.8274 1.5475 13.4713 1.4 13.1 1.4H11.7V0.7C11.7 0.514348 11.6263 0.336301 11.495 0.205025C11.3637 0.0737498 11.1857 0 11 0C10.8143 0 10.6363 0.0737498 10.505 0.205025C10.3737 0.336301 10.3 0.514348 10.3 0.7V1.4H8.2V0.7C8.2 0.514348 8.12625 0.336301 7.99497 0.205025C7.8637 0.0737498 7.68565 0 7.5 0C7.31435 0 7.1363 0.0737498 7.00503 0.205025C6.87375 0.336301 6.8 0.514348 6.8 0.7V1.4H4.7V0.7C4.7 0.514348 4.62625 0.336301 4.49497 0.205025C4.3637 0.0737498 4.18565 0 4 0C3.81435 0 3.6363 0.0737498 3.50503 0.205025C3.37375 0.336301 3.3 0.514348 3.3 0.7V1.4H1.9C1.5287 1.4 1.1726 1.5475 0.91005 1.81005C0.6475 2.0726 0.5 2.4287 0.5 2.8V4.2H14.5V2.8Z" stroke="#6B7280" stroke-width="2" mask="url(#path-1-inside-1_929_2948)"/>
</g>
<defs>
<clipPath id="clip0_929_2948">
<rect width="14" height="14" fill="white" transform="translate(0.5)"/>
</clipPath>
</defs>
</svg>
