<svg width="17" height="16" viewBox="0 0 17 16" fill="none" xmlns="http://www.w3.org/2000/svg">
<g clip-path="url(#clip0_206_4307)">
<path d="M13.1316 8.42105H8.07895V3.36842C8.07895 3.14508 7.99023 2.93089 7.8323 2.77296C7.67438 2.61504 7.46018 2.52632 7.23684 2.52632C5.90442 2.52632 4.60192 2.92142 3.49406 3.66168C2.38619 4.40193 1.52271 5.45408 1.01281 6.68508C0.502919 7.91608 0.369507 9.27063 0.62945 10.5774C0.889392 11.8843 1.53101 13.0847 2.47318 14.0268C3.41534 14.969 4.61573 15.6106 5.92255 15.8706C7.22937 16.1305 8.58392 15.9971 9.81492 15.4872C11.0459 14.9773 12.0981 14.1138 12.8383 13.0059C13.5786 11.8981 13.9737 10.5956 13.9737 9.26316C13.9737 9.03982 13.885 8.82562 13.727 8.6677C13.5691 8.50977 13.3549 8.42105 13.1316 8.42105Z" fill="#1F2A37"/>
<path d="M9.76316 0C9.53982 0 9.32563 0.0887215 9.1677 0.246647C9.00978 0.404572 8.92105 0.618765 8.92105 0.842105V6.73684C8.92105 6.96018 9.00978 7.17437 9.1677 7.3323C9.32563 7.49022 9.53982 7.57895 9.76316 7.57895H15.6579C15.8812 7.57895 16.0954 7.49022 16.2534 7.3323C16.4113 7.17437 16.5 6.96018 16.5 6.73684C16.498 4.95074 15.7876 3.23836 14.5246 1.97539C13.2616 0.712422 11.5493 0.00200599 9.76316 0Z" fill="#1F2A37"/>
</g>
<defs>
<clipPath id="clip0_206_4307">
<rect width="16" height="16" fill="white" transform="translate(0.5)"/>
</clipPath>
</defs>
</svg>
