<svg width="17" height="16" viewBox="0 0 17 16" fill="none" xmlns="http://www.w3.org/2000/svg">
<g clip-path="url(#clip0_206_4313)">
<path d="M15.6111 6.22222H14.9382L14.3098 4.70489L14.7853 4.22844C14.952 4.06175 15.0456 3.8357 15.0456 3.6C15.0456 3.3643 14.952 3.13825 14.7853 2.97156L13.5284 1.71467C13.3618 1.54803 13.1357 1.45441 12.9 1.45441C12.6643 1.45441 12.4382 1.54803 12.2716 1.71467L11.7951 2.19022L10.2778 1.56178V0.888889C10.2778 0.653141 10.1841 0.427048 10.0174 0.260349C9.85073 0.0936505 9.62464 0 9.38889 0H7.61111C7.37536 0 7.14927 0.0936505 6.98257 0.260349C6.81587 0.427048 6.72222 0.653141 6.72222 0.888889V1.56178L5.20489 2.19022L4.72844 1.71467C4.56175 1.54803 4.3357 1.45441 4.1 1.45441C3.8643 1.45441 3.63825 1.54803 3.47156 1.71467L2.21467 2.97156C2.04803 3.13825 1.95441 3.3643 1.95441 3.6C1.95441 3.8357 2.04803 4.06175 2.21467 4.22844L2.69111 4.70489L2.06178 6.22222H1.38889C1.15314 6.22222 0.927048 6.31587 0.760349 6.48257C0.59365 6.64927 0.5 6.87536 0.5 7.11111V8.88889C0.5 9.12464 0.59365 9.35073 0.760349 9.51743C0.927048 9.68413 1.15314 9.77778 1.38889 9.77778H2.06178C2.36489 10.5093 2.388 10.5636 2.69022 11.2951L2.21467 11.7716C2.04803 11.9382 1.95441 12.1643 1.95441 12.4C1.95441 12.6357 2.04803 12.8618 2.21467 13.0284L3.47156 14.2853C3.63825 14.452 3.8643 14.5456 4.1 14.5456C4.3357 14.5456 4.56175 14.452 4.72844 14.2853L5.20489 13.8098L6.72222 14.4382V15.1111C6.72222 15.3469 6.81587 15.573 6.98257 15.7397C7.14927 15.9064 7.37536 16 7.61111 16H9.38889C9.62464 16 9.85073 15.9064 10.0174 15.7397C10.1841 15.573 10.2778 15.3469 10.2778 15.1111V14.4382L11.7951 13.8089L12.2716 14.2853C12.4382 14.452 12.6643 14.5456 12.9 14.5456C13.1357 14.5456 13.3618 14.452 13.5284 14.2853L14.7853 13.0284C14.952 12.8618 15.0456 12.6357 15.0456 12.4C15.0456 12.1643 14.952 11.9382 14.7853 11.7716L14.3098 11.2951L14.9382 9.77778H15.6111C15.8469 9.77778 16.073 9.68413 16.2397 9.51743C16.4064 9.35073 16.5 9.12464 16.5 8.88889V7.11111C16.5 6.87536 16.4064 6.64927 16.2397 6.48257C16.073 6.31587 15.8469 6.22222 15.6111 6.22222ZM8.5 11.5556C7.79678 11.5556 7.10935 11.347 6.52464 10.9563C5.93993 10.5656 5.48421 10.0103 5.21509 9.36065C4.94598 8.71096 4.87557 7.99606 5.01276 7.30635C5.14995 6.61664 5.48859 5.9831 5.98584 5.48584C6.4831 4.98859 7.11664 4.64995 7.80635 4.51276C8.49606 4.37557 9.21096 4.44598 9.86065 4.71509C10.5103 4.98421 11.0656 5.43993 11.4563 6.02464C11.847 6.60935 12.0556 7.29678 12.0556 8C12.0556 8.94299 11.681 9.84736 11.0142 10.5142C10.3474 11.181 9.44299 11.5556 8.5 11.5556Z" fill="#1F2A37"/>
</g>
<defs>
<clipPath id="clip0_206_4313">
<rect width="16" height="16" fill="white" transform="translate(0.5)"/>
</clipPath>
</defs>
</svg>
