<svg width="299" height="40" viewBox="0 0 299 40" fill="none" xmlns="http://www.w3.org/2000/svg">
<path d="M71.649 20.2782C71.649 21.9588 70.0804 22.407 68.1756 22.407H63.3577V26.8888C65.0384 27.2249 65.8227 27.8972 65.8227 28.3454V28.4574H60.1084V13.7796C59.1 13.4434 58.3157 12.7712 58.3157 12.323V12.2109H73.2176V16.2446H73.1056C72.6574 16.2446 71.9851 15.4602 71.649 14.4518H63.3577V19.942H71.649V20.2782Z" fill="#838383"/>
<path d="M80.2765 28.4585H74.3381V28.3465C74.3381 27.8983 75.0104 27.226 75.7947 26.8899V16.3577C75.0104 16.1336 74.3381 15.3493 74.3381 14.9011V14.7891H80.2765V14.9011C80.2765 15.3493 79.6042 16.0216 78.8199 16.3577V26.8899C79.6042 27.114 80.2765 27.8983 80.2765 28.3465V28.4585Z" fill="#838383"/>
<path d="M94.3942 21.0636C94.3942 22.7442 92.8255 23.1924 90.9208 23.1924H86.551V26.8899C87.6715 27.114 88.5678 27.8983 88.5678 28.3465V28.4585H83.6379V16.3577C82.8535 16.1336 82.1813 15.3493 82.1813 14.9011V14.7891H96.523V18.4865H96.411C95.9628 18.4865 95.2905 17.8143 94.9544 17.03H86.551V21.0636H94.3942Z" fill="#838383"/>
<path d="M111.537 14.7891V18.4865H111.425C110.977 18.4865 110.304 17.8143 109.968 17.03H106.047V26.8899C107.167 27.114 108.064 27.8983 108.064 28.3465V28.4585H101.117V28.3465C101.117 27.8983 102.013 27.226 103.134 26.8899V17.03H99.324C99.0999 17.8143 98.3156 18.4865 97.8674 18.4865H97.7554V14.7891H111.537Z" fill="#838383"/>
<path d="M117.475 20.3913C118.82 20.0552 120.276 19.9431 121.621 20.0552C123.077 20.0552 124.422 20.1672 125.879 20.3913V16.3577C125.094 16.1336 124.422 15.3493 124.422 14.9011V14.7891H130.36V14.9011C130.36 15.3493 129.688 16.0216 128.904 16.3577V26.8899C129.688 27.114 130.36 27.8983 130.36 28.3465V28.4585H125.991V22.8563C124.646 22.6322 123.19 22.4081 121.733 22.5202C120.388 22.5202 118.932 22.6322 117.587 22.8563V26.8899C118.372 27.114 119.044 27.8983 119.044 28.3465V28.4585H114.562V16.3577C113.778 16.1336 113.105 15.3493 113.105 14.9011V14.7891H119.044V14.9011C119.044 15.3493 118.372 16.0216 117.587 16.3577L117.475 20.3913Z" fill="#838383"/>
<path d="M156.019 12.2109V16.2446C155.571 16.2446 154.786 15.4602 154.45 14.4518H149.52V26.7768C150.529 27.1129 151.313 27.7852 151.313 28.2333H144.59C144.59 27.7852 145.375 27.0009 146.383 26.7768V14.5639H141.453C141.117 15.5723 140.445 16.3566 139.996 16.3566H139.884V12.323H156.019V12.2109Z" fill="#838383"/>
<path d="M161.957 20.3913C163.302 20.0552 164.758 19.9431 166.103 20.0552C167.559 20.0552 168.904 20.1672 170.36 20.3913V16.3577C169.576 16.1336 168.904 15.3493 168.904 14.9011V14.7891H174.842V14.9011C174.842 15.3493 174.17 16.0216 173.386 16.3577V26.8899C174.17 27.114 174.842 27.8983 174.842 28.3465V28.4585H170.36V22.8563C169.016 22.6322 167.559 22.4081 166.103 22.5202C164.758 22.5202 163.302 22.6322 161.957 22.8563V26.8899C162.741 27.114 163.414 27.8983 163.414 28.3465V28.4585H158.932V16.3577C158.148 16.1336 157.475 15.3493 157.475 14.9011V14.7891H163.414V14.9011C163.414 15.3493 162.741 16.0216 161.957 16.3577V20.3913Z" fill="#838383"/>
<path d="M182.461 28.4585H176.523V28.3465C176.523 27.8983 177.195 27.226 177.98 26.8899V16.3577C177.195 16.1336 176.523 15.3493 176.523 14.9011V14.7891H182.461V14.9011C182.461 15.3493 181.789 16.0216 181.005 16.3577V26.8899C181.789 27.114 182.461 27.8983 182.461 28.3465V28.4585Z" fill="#838383"/>
<path d="M190.192 28.4585H185.823V16.3577C185.038 16.1336 184.366 15.3493 184.366 14.9011V14.7891H194.002C197.363 14.7891 199.492 15.9095 199.492 18.8227C199.492 21.0636 198.036 22.2961 195.795 22.6322L198.708 26.8899C199.492 27.0019 200.389 27.7863 200.389 28.3465V28.4585H196.243L192.545 22.8563H188.848V26.8899C189.632 27.114 190.304 27.8983 190.304 28.3465L190.192 28.4585ZM193.554 20.8395C196.019 20.8395 196.579 20.0552 196.579 18.9347C196.579 17.8143 196.131 17.03 193.554 17.03H188.848V20.8395H193.554Z" fill="#838383"/>
<path d="M202.741 16.3577C201.957 16.1336 201.285 15.3493 201.285 14.9011V14.7891H210.809C214.618 14.7891 217.531 17.03 217.531 21.6238C217.531 26.2176 214.618 28.4585 210.809 28.4585H202.741V16.3577ZM209.688 26.2176C212.937 26.2176 214.506 25.2092 214.506 21.6238C214.506 18.0384 212.937 17.03 209.688 17.03H205.654V26.2176H209.688Z" fill="#838383"/>
<path d="M45.2064 11.9888C45.0943 5.37815 39.8282 0 33.2176 0H0.276398V28.0112C0.276398 34.6218 5.65455 39.888 12.2652 40H45.2064V11.9888Z" fill="#575757"/>
<path d="M33.2175 2.12891H2.40514V28.0113C2.40514 33.3894 6.77489 37.7592 12.153 37.7592H42.9654V11.8768C42.9654 6.49865 38.5956 2.12891 33.2175 2.12891Z" fill="white"/>
<path d="M33.1055 3.58594H3.86178V28.0117C3.86178 32.7176 7.6713 36.4151 12.2651 36.4151H41.6209V11.9893C41.6209 7.39546 37.8114 3.58594 33.1055 3.58594Z" fill="#838383"/>
<path d="M20.4445 32.4915L27.1672 6.94531H25.5985L18.8758 32.6036L20.4445 32.4915ZM34.1139 23.752C35.2344 23.5279 36.2428 23.0798 37.0271 22.1834C37.6994 21.287 38.0355 20.1666 37.6994 19.0462C37.4753 18.0377 36.803 17.1414 35.9067 16.4691C35.1223 15.9089 34.226 15.5728 33.3296 15.5728H26.1588C27.9515 16.133 29.296 17.4775 29.8562 19.2702C29.8562 19.2702 30.9767 22.7436 26.2708 23.752C27.1672 24.0882 27.9515 24.6484 28.7358 25.4327C29.296 25.9929 29.6321 26.7772 29.8562 27.4495C30.6405 31.147 26.1588 32.0434 26.1588 32.0434H33.1055C35.5705 32.0434 36.5789 30.6988 36.803 30.4747C37.5873 29.6904 37.9235 28.57 37.6994 27.4495C37.4753 26.5532 37.0271 25.6568 36.2428 25.0966C35.6826 24.5363 34.8982 24.0882 34.1139 23.752ZM19.324 22.1834C19.9963 21.5111 20.2204 20.0546 19.8842 18.8221C19.5481 17.7016 18.8758 16.6932 17.9795 16.0209C17.1952 15.4607 16.2988 15.0125 15.2904 14.9005H7.67136C9.57612 15.4607 11.0327 16.9173 11.705 18.8221C12.4893 22.7436 8.00749 23.5279 8.00749 23.5279H16.4109C17.4193 23.5279 18.5397 23.0798 19.324 22.1834ZM18.5397 7.61758L18.4277 13.3319H7.55931V7.61758H18.5397Z" fill="white"/>
<path d="M238.484 25.8816C241.285 25.8816 242.293 25.0973 242.293 23.6407C242.293 22.1842 241.285 21.2878 238.484 21.2878H232.209V25.8816H238.484ZM238.372 18.7108C240.388 18.7108 241.845 18.2626 241.845 16.5819C241.845 15.0133 240.388 14.7892 238.372 14.7892H232.209V18.7108H238.372ZM238.708 12.3242C242.517 12.3242 244.982 13.3326 244.982 16.3578C244.982 18.2626 243.638 19.4951 241.397 20.0553C243.974 20.5035 245.43 21.848 245.43 23.9769C245.43 26.5539 243.19 28.5707 239.38 28.5707H228.848V14.0049C227.839 13.6688 227.167 12.9965 227.167 12.5483V12.3242H238.708Z" fill="#838383"/>
<path d="M264.59 16.3577C263.806 16.1336 263.134 15.3493 263.134 14.9011V14.7891H267.391L276.355 24.0888V16.3577C275.571 16.1336 274.898 15.3493 274.898 14.9011V14.7891H280.501V14.9011C280.501 15.3493 279.828 16.0216 279.044 16.3577V26.8899C279.828 27.114 280.501 27.8983 280.501 28.3465V28.4585H276.579L267.279 18.9347V26.8899C268.064 27.114 268.736 27.8983 268.736 28.3465V28.4585H264.59V16.3577Z" fill="#838383"/>
<path d="M292.713 16.1336C292.377 15.7975 292.041 15.4613 292.041 14.9011V14.7891H297.643V14.9011C297.643 15.5734 296.747 16.2456 296.075 16.3577L291.145 20.5033L296.635 26.8899C297.307 27.114 298.316 27.6742 298.316 28.3465V28.4585H294.17L289.016 22.184L286.887 23.8647V26.8899C287.671 27.114 288.344 27.8983 288.344 28.3465V28.4585H283.974V16.3577C283.189 16.1336 282.517 15.3493 282.517 14.9011V14.7891H288.344V14.9011C288.344 15.3493 287.671 16.0216 286.887 16.3577V21.0636L292.713 16.1336Z" fill="#838383"/>
<path d="M253.722 18.1516L251.593 22.8575C253.162 22.7455 254.73 22.7455 256.187 22.8575L253.946 18.0396H253.722V18.1516ZM251.145 28.3477V28.4598H245.431V28.3477C245.431 27.6755 246.327 27.0032 246.999 26.8911L251.929 16.2469C251.369 16.0228 250.809 15.4626 250.809 15.0144V14.9023H257.307V15.0144C257.307 15.4626 256.635 16.0228 256.187 16.2469L261.453 26.8911C262.125 27.0032 263.022 27.6755 263.022 28.3477V28.4598H256.859V28.3477C256.859 27.6755 257.643 27.1152 258.204 27.0032L257.419 25.3225C255.178 24.9864 252.825 24.9864 250.585 25.3225L249.8 27.0032C250.585 27.0032 251.145 27.5634 251.145 28.3477Z" fill="#838383"/>
</svg>
