<svg width="17" height="16" viewBox="0 0 17 16" fill="none" xmlns="http://www.w3.org/2000/svg">
<g clip-path="url(#clip0_206_4265)">
<path d="M16.2752 7.43431L14.6732 5.83429L9.0663 0.234232C8.91609 0.0842531 8.71239 0 8.5 0C8.28761 0 8.08391 0.0842531 7.9337 0.234232L2.32681 5.83429L0.724846 7.43431C0.57894 7.58519 0.498205 7.78728 0.50003 7.99704C0.501855 8.20679 0.586094 8.40745 0.734603 8.55578C0.883112 8.7041 1.08401 8.78824 1.29402 8.79006C1.50404 8.79188 1.70637 8.71125 1.85744 8.56552L2.09213 8.33112V14.4C2.09213 14.8243 2.2609 15.2313 2.56133 15.5314C2.86176 15.8314 3.26923 16 3.69409 16H6.09705C6.30948 16 6.51322 15.9157 6.66343 15.7657C6.81364 15.6157 6.89803 15.4122 6.89803 15.2V12C6.89803 11.7878 6.98242 11.5843 7.13263 11.4343C7.28285 11.2842 7.48658 11.1999 7.69902 11.1999H9.30098C9.51342 11.1999 9.71715 11.2842 9.86737 11.4343C10.0176 11.5843 10.102 11.7878 10.102 12V15.2C10.102 15.4122 10.1864 15.6157 10.3366 15.7657C10.4868 15.9157 10.6905 16 10.903 16H13.3059C13.7308 16 14.1382 15.8314 14.4387 15.5314C14.7391 15.2313 14.9079 14.8243 14.9079 14.4V8.33112L15.1426 8.56552C15.2936 8.71125 15.496 8.79188 15.706 8.79006C15.916 8.78824 16.1169 8.7041 16.2654 8.55578C16.4139 8.40745 16.4981 8.20679 16.5 7.99704C16.5018 7.78728 16.4211 7.58519 16.2752 7.43431Z" fill="#1F2A37"/>
</g>
<defs>
<clipPath id="clip0_206_4265">
<rect width="16" height="16" fill="white" transform="translate(0.5)"/>
</clipPath>
</defs>
</svg>
