<svg width="27" height="26" viewBox="0 0 27 26" fill="none" xmlns="http://www.w3.org/2000/svg">
<path d="M13.5 0C10.9288 0 8.41543 0.762437 6.27759 2.1909C4.13975 3.61935 2.47351 5.64968 1.48957 8.02512C0.505633 10.4006 0.248189 13.0144 0.749797 15.5362C1.25141 18.0579 2.48953 20.3743 4.30762 22.1924C6.1257 24.0105 8.44208 25.2486 10.9638 25.7502C13.4856 26.2518 16.0995 25.9944 18.4749 25.0104C20.8503 24.0265 22.8807 22.3603 24.3091 20.2224C25.7376 18.0846 26.5 15.5712 26.5 13C26.4964 9.5533 25.1256 6.24882 22.6884 3.81163C20.2512 1.37445 16.9467 0.00363977 13.5 0ZM13.5 24C11.3244 24 9.19767 23.3549 7.38873 22.1462C5.57979 20.9375 4.16989 19.2195 3.33733 17.2095C2.50477 15.1995 2.28693 12.9878 2.71137 10.854C3.13581 8.72022 4.18345 6.7602 5.72183 5.22183C7.26021 3.68345 9.22022 2.6358 11.354 2.21136C13.4878 1.78692 15.6995 2.00476 17.7095 2.83733C19.7195 3.66989 21.4375 5.07979 22.6462 6.88873C23.8549 8.69767 24.5 10.8244 24.5 13C24.4967 15.9164 23.3367 18.7123 21.2745 20.7745C19.2123 22.8367 16.4164 23.9967 13.5 24ZM19.5 13C19.5 13.2652 19.3946 13.5196 19.2071 13.7071C19.0196 13.8946 18.7652 14 18.5 14H10.9138L13.2075 16.2925C13.3004 16.3854 13.3741 16.4957 13.4244 16.6171C13.4747 16.7385 13.5006 16.8686 13.5006 17C13.5006 17.1314 13.4747 17.2615 13.4244 17.3829C13.3741 17.5043 13.3004 17.6146 13.2075 17.7075C13.1146 17.8004 13.0043 17.8741 12.8829 17.9244C12.7615 17.9747 12.6314 18.0006 12.5 18.0006C12.3686 18.0006 12.2385 17.9747 12.1171 17.9244C11.9957 17.8741 11.8854 17.8004 11.7925 17.7075L7.79251 13.7075C7.69953 13.6146 7.62577 13.5043 7.57545 13.3829C7.52512 13.2615 7.49922 13.1314 7.49922 13C7.49922 12.8686 7.52512 12.7385 7.57545 12.6171C7.62577 12.4957 7.69953 12.3854 7.79251 12.2925L11.7925 8.2925C11.9801 8.10486 12.2346 7.99944 12.5 7.99944C12.7654 7.99944 13.0199 8.10486 13.2075 8.2925C13.3951 8.48014 13.5006 8.73464 13.5006 9C13.5006 9.26536 13.3951 9.51986 13.2075 9.7075L10.9138 12H18.5C18.7652 12 19.0196 12.1054 19.2071 12.2929C19.3946 12.4804 19.5 12.7348 19.5 13Z" fill="#780A8F"/>
</svg>
