<svg width="390" height="415" viewBox="0 0 390 415" fill="none" xmlns="http://www.w3.org/2000/svg">
<mask id="mask0" mask-type="alpha" maskUnits="userSpaceOnUse" x="30" y="-13" width="366" height="394">
<path d="M182.488 356.299L254.126 46.9864L206.497 42.1142L198.036 78.6472L173.305 121.164L55.1605 239.046C24.8154 272.564 19.1282 308.2 58.917 322.547C58.917 322.547 93.5732 334.679 126.209 342.238C135.246 344.52 173.851 354.299 182.488 356.299Z" fill="#C4C4C4"/>
<path d="M182.488 356.299L254.126 46.9865L299.015 63.5416L290.553 100.075L294.065 149.132L348.294 306.937C360.799 350.379 350.242 384.887 308.227 380.288C308.227 380.288 271.791 375.955 239.178 368.402C230.064 366.481 191.12 358.298 182.488 356.299Z" fill="#C4C4C4"/>
</mask>
<g mask="url(#mask0)">
<rect x="-9.00003" y="254" width="422" height="165" fill="#EC5221"/>
<path d="M273.5 180C219 180 169 313 106 313H47C35 313 28 306.5 28 306.5L-1.5 363.5L377 408V242L336.5 194C336.5 194 332.264 180 315 180H273.5Z" fill="#478AEF"/>
<mask id="mask1" mask-type="alpha" maskUnits="userSpaceOnUse" x="-2" y="180" width="379" height="228">
<path d="M273.5 180C219 180 169 313 106 313H47C35 313 28 306.5 28 306.5L-1.5 363.5L377 408V242L336.5 194C336.5 194 332.264 180 315 180H273.5Z" fill="#9E4F35"/>
</mask>
<g mask="url(#mask1)">
<rect x="15" y="89" width="422" height="165" fill="#2DFFD9"/>
</g>
</g>
<g opacity="0.9">
<path d="M185.293 25.5775L198.933 28.7352L188.896 72.0885C186.302 83.2921 175.473 104.931 169.164 111.658C119.937 164.143 55.8311 223.588 44.1821 236.176C12.1096 270.835 9.73958 314.102 48.5102 332.638C73.4866 344.58 123.172 356.083 181.601 369.61" stroke="white" stroke-width="25" stroke-linejoin="round"/>
<circle cx="184.832" cy="25.4706" r="12.5" transform="rotate(13.0354 184.832 25.4706)" fill="white"/>
</g>
<g opacity="0.9">
<path d="M328.144 58.65L314.59 55.5121L304.553 98.8654C301.959 110.069 302.142 134.258 304.824 143.066C325.755 211.794 356.913 293.294 361.792 309.709C375.226 354.904 358.386 394.82 315.671 394.491C288.153 394.279 238.779 382.848 180.718 369.406" stroke="white" stroke-width="25" stroke-linejoin="round"/>
<ellipse rx="12.4214" ry="12.5" transform="matrix(-0.974231 -0.225553 -0.225553 0.974231 328.603 58.7563)" fill="white"/>
</g>
<circle cx="238" cy="87" r="20" fill="white" fill-opacity="0.85"/>
<circle cx="252" cy="145" r="16" fill="white" fill-opacity="0.85"/>
<circle cx="271" cy="32" r="23" fill="white" fill-opacity="0.85"/>
</svg>
