<svg width="194" height="40" viewBox="0 0 194 40" fill="none" xmlns="http://www.w3.org/2000/svg">
<g clip-path="url(#clip0_6482_27278)">
<path d="M40.3156 0H0.315613V40H40.3156V0Z" fill="url(#paint0_linear_6482_27278)"/>
<path d="M39.0821 20.1745C39.0821 28.5445 39.4345 37.0908 39.4345 37.0908C39.4345 38.0599 38.8178 38.6767 38.0248 38.6767H3.3993C2.60635 38.6767 2.07772 37.9718 1.98961 37.0908C1.98961 37.0908 1.02045 29.778 1.02045 18.6767C1.02045 7.48727 2.07772 2.28903 2.07772 2.28903C2.16582 1.40797 2.69446 0.703125 3.48741 0.703125H38.113C38.9059 0.703125 39.5226 1.40797 39.5226 2.28903C39.4345 2.28903 39.0821 11.8926 39.0821 20.1745Z" fill="url(#paint1_linear_6482_27278)"/>
<path d="M31.3288 10.7499C28.8619 12.1596 28.0689 12.3358 25.4258 13.9217L25.5139 13.6574C26.9236 12.1596 27.5403 11.4547 28.4213 10.1331C25.9544 10.3093 22.3421 10.5737 19.787 11.1023L19.9632 10.838C22.3421 9.69259 26.6592 8.54722 28.8619 8.2829C28.3332 7.48995 23.928 5.1111 22.8707 4.67057L22.9588 4.40625C26.3068 4.75867 30.7121 6.34458 32.5623 7.48995C33.3553 7.22563 34.2363 7.22563 35.7341 7.04942C35.7341 7.04942 35.4698 7.93048 33.8839 9.07585C34.3244 10.1331 33.3553 16.2124 32.4742 17.7983C32.4742 15.3314 32.298 12.1596 31.3288 10.7499Z" fill="url(#paint2_linear_6482_27278)"/>
<path d="M13.2671 32.4247L13.3553 32.1604C12.0337 31.6318 10.7121 31.2793 9.65482 30.2221C10.0072 29.2529 10.3597 28.5481 10.9764 27.667L11.0645 27.4027C9.91913 27.5789 8.94997 28.0194 7.98081 28.1956C7.18786 26.8741 6.92354 25.0238 6.48301 23.2617V23.4379C6.3068 25.4644 6.21869 26.8741 6.48301 28.46C5.69006 28.7243 4.98521 28.7243 4.28037 28.9886L4.19226 29.2529C5.24953 29.8696 6.04248 30.3983 7.27596 30.9269C7.8927 32.2485 8.59755 33.2177 9.65482 34.2749L9.74292 34.0106C9.56671 33.2177 9.30239 32.6009 9.3905 31.7199C10.7121 32.1604 11.7694 32.3366 13.2671 32.4247Z" fill="url(#paint3_linear_6482_27278)"/>
<path d="M16.9676 12.3359C16.9676 12.3359 16.439 13.3051 15.9984 14.5386H15.9103C18.994 14.9791 21.9015 16.2126 22.6064 16.6531L22.5183 16.9174C19.3465 16.3888 17.6724 16.3888 16.439 16.565C15.2936 16.6531 15.0293 16.8293 15.0293 16.8293C14.3244 18.3271 13.972 20.7941 13.7958 21.6751L13.7077 21.9395C13.091 20.5298 12.298 17.7104 12.298 17.7104C10.7121 18.5914 7.01166 22.0276 7.01166 22.0276C9.03809 17.9747 11.1526 16.1245 11.1526 16.1245C10.4478 15.4196 8.59756 15.0672 7.18787 14.9791L7.27598 14.7148C8.15703 14.4505 9.91915 14.3624 11.0645 14.2743C12.4742 14.2743 13.2672 14.2743 13.2672 14.2743C14.4125 13.3051 16.2628 12.424 16.9676 12.3359Z" fill="url(#paint4_linear_6482_27278)"/>
<path d="M20.8442 29.8663C20.2275 30.7474 19.6108 31.4522 18.9059 32.2452C17.8486 32.5095 16.6152 32.4214 15.646 32.4214L15.5579 32.6857C16.2627 33.0381 16.9676 33.3024 17.7605 33.4786C17.1438 34.0073 16.3508 34.4478 15.7341 34.8883L15.646 35.1527C16.8795 34.8883 18.5535 34.3597 19.787 33.5667C20.4037 33.5667 21.0204 33.5667 21.461 33.4786L21.5491 33.2143C21.461 32.95 21.1967 32.7738 21.1086 32.3333C22.2539 31.4522 23.0469 30.6593 24.016 29.6901L24.1923 29.4258C23.2231 30.0425 22.0777 31.0117 21.0204 31.5403C20.9323 30.9236 20.8442 30.483 20.8442 29.8663Z" fill="url(#paint5_linear_6482_27278)"/>
<path d="M31.505 10.4855C29.0381 11.8952 28.2451 12.0714 25.602 13.6574C27.1879 11.9833 27.7165 11.2785 28.6857 9.7807C26.2187 9.8688 22.6064 10.2212 20.0513 10.7499C22.2539 9.51638 26.7473 8.1948 29.0381 7.93048C28.5094 7.22563 24.1042 4.93488 22.9588 4.40625C26.3949 4.67057 30.7121 5.99215 32.7385 7.22563C33.5315 6.96132 34.4125 6.96132 35.9103 6.7851C35.5579 7.48995 35.5579 7.93048 34.0601 8.89964C34.5006 9.95691 33.5315 16.0362 32.6504 17.6221C32.6504 15.067 32.3861 11.8952 31.505 10.4855Z" fill="white"/>
<path d="M13.4434 32.1587C12.0337 31.63 10.9764 31.0133 9.91913 29.956C10.2716 28.9869 10.624 28.282 11.2407 27.401C10.0953 27.5772 9.21428 27.6653 8.24512 27.9296C7.36406 26.4318 7.01164 25.0221 6.65922 23.1719C6.3949 25.1983 6.3949 26.608 6.65922 28.1939C5.77816 28.4582 5.07332 28.6344 4.36847 28.9869C5.42574 29.6036 6.3068 30.1322 7.45217 30.6609C8.06891 31.9824 8.77376 32.9516 9.83102 34.0089C9.56671 33.1278 9.4786 32.423 9.65481 31.4538C10.8002 31.8943 11.9456 32.0706 13.4434 32.1587Z" fill="white"/>
<path d="M17.1438 12.0703C16.7033 12.6871 16.1747 13.7443 16.0865 14.1849C19.6989 14.7135 22.6945 16.5637 22.6945 16.5637C19.5227 16.0351 17.8487 16.0351 16.6152 16.2113C15.4698 16.2994 15.2055 16.4756 15.2055 16.4756C14.3244 18.3258 13.7958 21.5857 13.7958 21.5857C13.1791 20.176 12.3861 17.3567 12.3861 17.3567C10.8002 18.2377 7.09976 21.6738 7.09976 21.6738C9.12619 17.621 11.2407 15.7708 11.2407 15.7708C10.5359 15.0659 8.68567 14.7135 7.27597 14.6254C7.98082 14.3611 9.83104 14.0086 11.2407 13.9205C12.6504 13.9205 13.4434 13.9205 13.4434 13.9205C14.5887 13.0395 16.439 12.1584 17.1438 12.0703Z" fill="white"/>
<path d="M21.0204 29.602C20.4037 30.483 19.787 31.1879 19.0821 31.9808C17.8486 32.3333 16.8795 32.4214 15.646 32.4214C16.3508 32.7738 17.0557 33.0381 17.8486 33.2143C17.0557 33.9192 16.4389 34.3597 15.646 34.8883C16.8795 34.624 18.5535 34.0954 19.787 33.3024C20.4037 33.3024 21.0204 33.3024 21.461 33.2143C21.3729 32.8619 21.2848 32.5976 21.1967 32.069C22.342 31.1879 23.2231 30.3949 24.1041 29.4258C23.0469 30.1306 22.1658 30.6593 21.0204 31.1879C21.0204 30.6593 21.0204 30.2187 21.0204 29.602Z" fill="white"/>
<path d="M55.2936 14.625C58.0248 14.625 58.994 15.1536 58.994 16.6514C58.994 17.0919 58.9059 17.4443 58.6416 17.7087C58.113 18.3254 57.1438 18.6778 55.8222 18.5897H55.7341L54.9411 20.528H55.7341C57.2319 20.528 58.5535 20.9686 59.1702 21.7615C59.4345 22.114 59.6108 22.5545 59.6108 22.995C59.6108 24.4928 58.2892 25.2858 55.646 25.2858C55.2055 25.2858 54.5006 25.2858 54.0601 25.2858C53.972 23.2593 53.972 20.4399 53.972 19.647C53.972 18.6778 54.0601 16.5633 54.0601 14.7131C54.3244 14.625 54.853 14.625 55.2936 14.625ZM50.3596 13.2153C50.4478 14.625 50.5359 18.3254 50.5359 19.647C50.5359 20.8805 50.5359 25.0214 50.3596 26.7836V26.9598H56.7033C59.8751 26.9598 63.2231 25.9906 63.2231 23.1712C63.2231 21.4091 61.9015 20.0875 59.5226 19.3827C61.2848 18.9421 62.5182 17.7087 62.5182 16.299C62.5182 14.0082 59.8751 13.1272 57.4081 13.0391H50.2715L50.3596 13.2153Z" fill="#838383"/>
<path d="M78.113 13.0391H74.9412L75.0293 16.5633C75.1174 18.3254 75.1174 20.0875 75.2936 21.7615C75.1174 21.2329 74.9412 20.9686 73.972 19.5589C73.972 19.4708 70.7121 14.4488 69.5667 13.0391H65.9544V13.2153C66.0425 14.625 66.1306 18.3254 66.1306 19.647C66.1306 20.8805 66.1306 25.0214 65.9544 26.7836V26.9598H69.2143V26.7836C69.0381 23.4355 69.0381 19.9994 69.0381 16.6514C69.1262 17.0919 69.3024 17.3562 69.831 18.1492C69.831 18.2373 75.4698 26.343 75.7341 26.8717V26.9598H78.3773V26.7836C78.2011 25.0214 78.2011 20.8805 78.2011 19.647C78.2011 18.3254 78.2892 14.625 78.3773 13.2153V13.1272H78.113V13.0391Z" fill="#838383"/>
<path d="M86.6592 14.7131C88.5095 14.7131 89.7429 15.0655 90.3597 15.7703C90.624 16.1228 90.8002 16.5633 90.8002 17.0038C90.8002 19.0303 88.5095 19.4708 86.6592 19.4708H85.8663C85.8663 19.4708 85.6901 19.4708 85.5139 19.4708C85.5139 19.0303 85.5139 18.4135 85.5139 17.7087C85.5139 16.8276 85.5139 15.7703 85.5139 14.8012C85.7782 14.8012 86.2187 14.7131 86.6592 14.7131ZM81.9015 13.2153C81.9896 14.625 82.0777 18.3254 82.0777 19.647C82.0777 20.8805 82.0777 25.0214 81.9015 26.7836V26.9598H85.7782V26.7836C85.6901 25.462 85.602 23.0831 85.602 21.2329C85.7782 21.2329 86.3068 21.2329 86.3068 21.2329H86.8354C91.9456 21.2329 94.4125 19.9113 94.4125 17.0919C94.4125 13.832 90.9764 13.1272 88.0689 13.0391H81.9896V13.2153" fill="#838383"/>
<path d="M106.483 14.7131C108.333 14.7131 109.567 15.0655 110.183 15.7703C110.448 16.1228 110.624 16.5633 110.624 17.0038C110.624 19.0303 108.333 19.4708 106.483 19.4708H105.69C105.69 19.4708 105.514 19.4708 105.338 19.4708C105.338 19.0303 105.338 18.4135 105.338 17.7087C105.338 16.8276 105.338 15.7703 105.338 14.8012C105.602 14.8012 106.042 14.7131 106.483 14.7131ZM101.725 13.2153C101.813 14.625 101.901 18.3254 101.901 19.647C101.901 20.8805 101.901 25.0214 101.725 26.7836V26.9598H105.602V26.7836C105.514 25.462 105.426 23.0831 105.426 21.2329C105.602 21.2329 106.131 21.2329 106.131 21.2329H106.659C111.769 21.2329 114.236 19.9113 114.236 17.0919C114.236 13.832 110.712 13.1272 107.805 13.0391H101.725V13.2153Z" fill="#838383"/>
<path d="M120.316 17.18C120.58 17.8849 121.461 19.647 122.342 21.8496C122.166 21.8496 121.99 21.8496 121.99 21.8496H120.316C120.316 21.8496 118.553 21.8496 118.289 21.8496C118.994 20.0875 119.699 18.5016 120.316 17.18ZM119.346 13.0391C118.554 15.0655 113.884 25.1977 113.179 26.7836L113.091 26.9598H116.351V26.8717C116.615 25.9025 117.056 24.8452 117.496 23.6999C117.672 23.6999 120.228 23.6999 120.228 23.6999H122.518C122.518 23.6999 122.871 23.6999 122.959 23.6999C123.576 25.1977 124.016 26.343 124.192 26.8717V26.9598H127.981L121.813 13.0391H121.902H119.346Z" fill="#838383"/>
<path d="M129.655 13.2153C129.743 14.625 129.831 18.3254 129.831 19.647C129.831 20.8805 129.831 25.0214 129.655 26.7836V26.9598H133.531V26.7836C133.355 25.0214 133.267 20.8805 133.267 19.647C133.267 18.6778 133.267 16.5633 133.355 14.8012C133.62 14.8012 134.06 14.7131 134.412 14.7131C136.175 14.7131 137.496 15.0655 138.113 15.7703C138.377 16.1228 138.553 16.5633 138.553 17.0038C138.553 18.5897 137.056 19.3827 135.646 19.4708C135.205 19.4708 134.853 19.4708 134.853 19.4708L134.589 19.3827L134.765 19.647C136.175 21.6734 138.201 25.1095 139.082 26.7836V26.8717H143.223L143.135 26.6954C142.959 26.4311 140.227 22.4664 139.082 20.7924L138.994 20.7043C141.109 20.0875 142.166 18.854 142.166 17.0919C142.166 13.9201 138.73 13.1272 135.734 13.0391H129.655V13.2153Z" fill="#838383"/>
<path d="M148.686 13.0391H144.985V13.1272C145.073 14.5369 145.161 18.2373 145.161 19.5589C145.161 20.7924 145.161 24.9333 144.985 26.6954V26.8717H148.862V26.6954C148.686 24.9333 148.686 20.7924 148.686 19.5589C148.686 18.2373 148.774 14.5369 148.862 13.1272V13.0391H148.686Z" fill="#838383"/>
<path d="M157.232 14.625C159.963 14.625 160.932 15.1536 160.932 16.6514C160.932 17.0919 160.844 17.4443 160.58 17.7087C160.051 18.3254 159.082 18.6778 157.761 18.5897H157.672L156.968 20.528H157.672C159.17 20.528 160.404 20.9686 161.109 21.7615C161.461 22.114 161.549 22.5545 161.549 22.995C161.549 24.4928 160.227 25.2858 157.496 25.2858C157.056 25.2858 156.351 25.2858 155.91 25.2858C155.822 23.2593 155.822 20.4399 155.822 19.647C155.822 18.6778 155.822 16.5633 155.91 14.7131C156.263 14.625 156.791 14.625 157.232 14.625ZM152.298 13.2153C152.386 14.625 152.474 18.3254 152.474 19.647C152.474 20.8805 152.474 25.0214 152.298 26.7836V26.9598H158.73C161.902 26.9598 165.25 25.9906 165.25 23.1712C165.25 21.4091 163.928 20.0875 161.549 19.3827C163.311 18.9421 164.545 17.7087 164.545 16.299C164.545 14.0082 161.902 13.1272 159.435 13.0391H152.298V13.2153Z" fill="#838383"/>
<path d="M173.091 17.0919C173.443 17.7087 174.236 19.5589 175.117 21.7615C174.941 21.7615 174.853 21.7615 174.853 21.7615H173.179C173.179 21.7615 171.417 21.7615 171.153 21.7615C171.769 20.0875 172.474 18.5016 173.091 17.0919ZM174.677 13.0391H172.122V13.1272C171.329 15.2417 166.483 25.9025 166.042 26.7836L165.954 26.9598H169.302V26.8717C169.567 25.9025 169.919 24.8452 170.36 23.6999C170.448 23.6999 173.091 23.6999 173.091 23.6999H175.382H175.822C176.439 25.1977 176.879 26.343 177.056 26.8717V26.9598H180.844L174.677 13.0391Z" fill="#838383"/>
<path d="M182.078 16.6531C182.078 19.1201 184.545 20.0892 186.659 20.9703C188.333 21.6751 190.095 22.38 190.095 23.5254C190.095 23.8778 190.007 24.1421 189.831 24.4064C189.39 24.847 188.598 25.1113 187.276 25.0232C185.954 24.9351 184.545 24.5826 182.871 23.7897L182.254 23.4373V23.9659V26.4329L182.694 26.521H182.959C183.752 26.6972 185.338 27.0496 186.835 27.0496C190.888 27.0496 193.355 25.4637 193.355 22.7324C193.355 20.1773 190.888 19.2082 188.598 18.3271C186.924 17.6223 185.249 17.0055 185.249 15.9483C185.249 15.5958 185.25 14.7148 187.364 14.7148C188.95 14.7148 190.448 15.3315 191.329 15.684L192.122 16.0364V15.5077V12.9527L191.329 12.7765C190.536 12.6003 189.214 12.3359 187.893 12.3359C184.368 12.5121 182.078 14.1862 182.078 16.6531Z" fill="#838383"/>
</g>
<defs>
<linearGradient id="paint0_linear_6482_27278" x1="20.2955" y1="-0.982996" x2="20.2955" y2="41.1996" gradientUnits="userSpaceOnUse">
<stop stop-color="#404040"/>
<stop offset="0.6" stop-color="#A5A5A5"/>
<stop offset="1" stop-color="#545454"/>
</linearGradient>
<linearGradient id="paint1_linear_6482_27278" x1="20.2325" y1="-9.92824" x2="20.2325" y2="37.4733" gradientUnits="userSpaceOnUse">
<stop stop-color="#545454"/>
<stop offset="0.3" stop-color="#A5A5A5"/>
<stop offset="0.55" stop-color="#545454"/>
<stop offset="0.8352" stop-color="#404040"/>
<stop offset="0.8691" stop-color="#434343"/>
<stop offset="0.9244" stop-color="#494949"/>
<stop offset="0.9939" stop-color="#555555"/>
<stop offset="1" stop-color="#575757"/>
</linearGradient>
<linearGradient id="paint2_linear_6482_27278" x1="27.8254" y1="34.8582" x2="27.8254" y2="4.18378" gradientUnits="userSpaceOnUse">
<stop stop-color="#5A5A5A"/>
<stop offset="1" stop-color="#545454"/>
</linearGradient>
<linearGradient id="paint3_linear_6482_27278" x1="8.79367" y1="34.8608" x2="8.79367" y2="4.17705" gradientUnits="userSpaceOnUse">
<stop stop-color="#5A5A5A"/>
<stop offset="1" stop-color="#545454"/>
</linearGradient>
<linearGradient id="paint4_linear_6482_27278" x1="14.7223" y1="34.8532" x2="14.7223" y2="4.18968" gradientUnits="userSpaceOnUse">
<stop stop-color="#5A5A5A"/>
<stop offset="1" stop-color="#545454"/>
</linearGradient>
<linearGradient id="paint5_linear_6482_27278" x1="19.8481" y1="34.8549" x2="19.8481" y2="4.18076" gradientUnits="userSpaceOnUse">
<stop stop-color="#5A5A5A"/>
<stop offset="1" stop-color="#545454"/>
</linearGradient>
<clipPath id="clip0_6482_27278">
<rect width="193.04" height="40" fill="white" transform="translate(0.315613)"/>
</clipPath>
</defs>
</svg>
