<?xml version="1.0" standalone="no"?>
<!DOCTYPE svg PUBLIC "-//W3C//DTD SVG 20010904//EN"
 "http://www.w3.org/TR/2001/REC-SVG-20010904/DTD/svg10.dtd">
<svg version="1.0" xmlns="http://www.w3.org/2000/svg"
 width="1600.000000pt" height="1600.000000pt" viewBox="0 0 1600.000000 1600.000000"
 preserveAspectRatio="xMidYMid meet">
<metadata>
Created by potrace 1.11, written by Peter Selinger 2001-2013
</metadata>
<g transform="translate(0.000000,1600.000000) scale(0.100000,-0.100000)"
fill="#000000" stroke="none">
<path d="M243 15986 c-98 -31 -160 -84 -211 -180 l-27 -51 0 -7755 0 -7755 23
-47 c34 -70 93 -130 158 -163 l59 -30 7755 0 7755 0 46 23 c70 34 122 84 160
154 l34 63 0 7750 0 7750 -26 55 c-36 77 -77 121 -151 161 l-63 34 -7735 2
c-6378 1 -7742 -1 -7777 -11z m9822 -1081 c198 -52 372 -180 474 -349 93 -156
127 -380 82 -556 -57 -226 -197 -403 -396 -501 -107 -52 -179 -70 -305 -76
-267 -12 -508 110 -654 330 -99 151 -132 272 -124 461 8 196 72 340 218 487
123 124 264 196 426 218 80 11 207 4 279 -14z m-2660 -177 c150 -35 281 -71
309 -85 132 -67 226 -220 226 -369 0 -64 -358 -1585 -405 -1724 -78 -228 -248
-597 -383 -835 -67 -119 -203 -322 -257 -385 -247 -287 -1935 -1984 -2940
-2955 -783 -756 -1249 -1221 -1346 -1345 -273 -346 -443 -690 -510 -1031 -31
-156 -32 -382 -1 -516 65 -285 231 -514 497 -685 416 -268 1440 -579 3500
-1062 2997 -702 4028 -916 4835 -1001 219 -23 507 -30 625 -15 414 51 707 253
885 609 158 317 202 802 115 1276 -48 257 -104 429 -518 1585 l-252 705 -2243
3 c-1233 1 -2242 4 -2242 7 0 3 118 166 262 363 621 848 878 1164 1219 1498
353 345 643 525 971 601 62 15 153 18 625 23 l552 5 -69 210 c-105 325 -248
785 -270 870 -78 305 -94 964 -34 1405 8 63 96 463 194 887 195 845 197 851
287 934 68 62 161 102 252 107 66 3 110 -4 341 -57 163 -38 289 -73 327 -91
78 -36 143 -101 185 -188 31 -62 33 -73 33 -172 0 -88 -4 -115 -24 -165 -31
-77 -126 -174 -208 -213 -51 -24 -70 -27 -158 -27 -55 0 -114 4 -131 8 l-30 8
-122 -528 c-67 -290 -126 -553 -131 -583 -23 -142 -34 -381 -28 -638 9 -380
12 -400 128 -772 312 -1002 635 -1946 1309 -3835 490 -1372 526 -1485 585
-1827 43 -250 50 -342 50 -618 0 -358 -31 -566 -126 -854 -247 -751 -796
-1220 -1570 -1343 -169 -27 -592 -24 -866 5 -860 92 -1936 314 -4893 1008
-1726 405 -2602 649 -3234 900 -530 211 -832 419 -1093 754 -184 235 -303 517
-359 845 -25 142 -25 469 -1 625 57 361 197 735 405 1078 251 412 419 593
1717 1848 1399 1352 2807 2779 2942 2980 151 227 344 619 427 869 43 131 275
1146 262 1149 -143 37 -221 83 -288 171 -80 104 -100 268 -49 398 46 116 180
224 307 247 72 13 121 5 409 -62z m1489 -1708 c248 -36 444 -195 531 -430 23
-61 29 -97 33 -190 5 -139 -9 -206 -70 -330 -78 -160 -241 -289 -423 -335 -75
-19 -231 -19 -313 0 -226 53 -419 244 -479 475 -26 101 -22 255 11 355 76 237
267 405 511 450 88 16 113 17 199 5z m516 -2047 c215 -59 364 -245 377 -473
10 -155 -39 -282 -152 -396 -107 -107 -218 -154 -371 -154 -246 0 -458 172
-509 415 -18 88 -18 122 0 210 64 303 356 481 655 398z"/>
</g>
</svg>
