<svg width="87" height="40" viewBox="0 0 87 40" fill="none" xmlns="http://www.w3.org/2000/svg">
<g clip-path="url(#clip0_6482_27301)">
<mask id="mask0_6482_27301" style="mask-type:luminance" maskUnits="userSpaceOnUse" x="-65" y="-109" width="228" height="295">
<path d="M162.958 -108.699H-64.2976V185.397H162.958V-108.699Z" fill="white"/>
</mask>
<g mask="url(#mask0_6482_27301)">
<path d="M7.19889 39.5695H2.58694V30.3753H0.355225V26.5765H2.58694V22.4102H7.19889V26.5765H9.80565V30.3753H7.19889V39.5695Z" fill="#838383"/>
</g>
<mask id="mask1_6482_27301" style="mask-type:luminance" maskUnits="userSpaceOnUse" x="-65" y="-109" width="228" height="295">
<path d="M162.958 -108.699H-64.2976V185.397H162.958V-108.699Z" fill="white"/>
</mask>
<g mask="url(#mask1_6482_27301)">
<mask id="mask2_6482_27301" style="mask-type:luminance" maskUnits="userSpaceOnUse" x="-65" y="-109" width="228" height="295">
<path d="M162.958 -108.699H-64.2976V185.397H162.958V-108.699Z" fill="white"/>
</mask>
<g mask="url(#mask2_6482_27301)">
<path d="M15.8844 28.6966H15.9364C16.8238 27.0999 18.3426 26.3906 20.1398 26.3906H21.0273V30.8318C20.4284 30.5145 19.7547 30.3656 19.0778 30.401C16.5193 30.401 15.8844 32.098 15.8844 34.326V39.5692H11.2761V26.5726H15.8844V28.6966Z" fill="#838383"/>
<path d="M36.8721 39.5673H32.249V38.1265H32.2119C31.4024 39.4187 29.8057 39.9832 28.2869 39.9832C24.4362 39.9832 21.7255 36.7637 21.7255 33.0429C21.7255 29.3222 24.3842 26.125 28.2349 26.125C29.7203 26.125 31.3021 26.682 32.2639 27.822V26.5743H36.8721V39.5673ZM26.4748 33.0838C26.4748 34.7325 27.5665 35.9987 29.4455 35.9987C31.3244 35.9987 32.4161 34.7325 32.4161 33.0838C32.4161 32.2959 32.1032 31.5403 31.5461 30.9832C30.9889 30.4261 30.2333 30.1131 29.4455 30.1131C28.6576 30.1131 27.902 30.4261 27.3449 30.9832C26.7878 31.5403 26.4748 32.2959 26.4748 33.0838Z" fill="#838383"/>
<path d="M48.558 38.1269H48.506C47.6965 39.4191 46.0997 39.9835 44.581 39.9835C40.7303 39.9835 38.0195 36.7641 38.0195 33.0433C38.0195 29.3226 40.6783 26.1254 44.529 26.1254C46.0143 26.1254 47.5962 26.6824 48.558 27.8224V18.5391H53.1662V39.5602H48.558V38.1269ZM42.78 33.0842C42.78 34.7329 43.8717 35.9991 45.7507 35.9991C47.6296 35.9991 48.7214 34.7329 48.7214 33.0842C48.7214 32.2963 48.4084 31.5407 47.8513 30.9836C47.2942 30.4265 46.5386 30.1135 45.7507 30.1135C44.9628 30.1135 44.2072 30.4265 43.6501 30.9836C43.093 31.5407 42.78 32.2963 42.78 33.0842Z" fill="#838383"/>
<path d="M60.1733 21.5847C60.1769 22.0995 60.0276 22.6039 59.7443 23.0338C59.4609 23.4637 59.0562 23.7998 58.5816 23.9993C58.107 24.1989 57.5838 24.2531 57.0783 24.1549C56.5729 24.0567 56.108 23.8106 55.7426 23.4478C55.3772 23.085 55.1278 22.6219 55.026 22.1172C54.9242 21.6125 54.9746 21.0889 55.1707 20.6129C55.3669 20.1368 55.7001 19.7297 56.1279 19.4433C56.5558 19.1568 57.0591 19.0039 57.5739 19.0039C58.2601 19.0039 58.9185 19.2752 59.4054 19.7587C59.8924 20.2421 60.1684 20.8985 60.1733 21.5847ZM59.8948 39.5683H55.2717V26.5717H59.8836L59.8948 39.5683Z" fill="#838383"/>
<path d="M75.773 33.846H66.0737C66.0737 35.7026 67.0615 36.735 68.959 36.735C69.4024 36.7697 69.8464 36.6757 70.2377 36.4643C70.629 36.2528 70.9509 35.9329 71.1647 35.543H75.5947C75.4343 36.241 75.1341 36.8994 74.7122 37.4782C74.2904 38.0571 73.7556 38.5444 73.1402 38.911C71.8817 39.6495 70.444 40.0272 68.985 40.0027C64.6812 40.0027 61.4618 37.5705 61.4618 33.0847C61.4618 28.755 64.4325 26.1445 68.6582 26.1445C73.1662 26.1445 75.773 28.9332 75.773 33.367V33.846ZM71.4915 31.1872C71.3647 30.5961 71.0357 30.0676 70.5613 29.6928C70.0869 29.318 69.4966 29.1203 68.8922 29.1338C67.5479 29.1338 66.4339 29.843 66.1554 31.1872H71.4915Z" fill="#838383"/>
<path d="M81.5806 28.6966H81.6363C82.5238 27.0999 84.0425 26.3906 85.8398 26.3906H86.7273V30.8318C86.1284 30.5145 85.4546 30.3656 84.7778 30.401C82.2193 30.401 81.5843 32.098 81.5843 34.326V39.5692H76.9724V26.5726H81.5806V28.6966Z" fill="#838383"/>
</g>
</g>
<mask id="mask3_6482_27301" style="mask-type:luminance" maskUnits="userSpaceOnUse" x="61" y="0" width="23" height="23">
<path d="M67.7633 0.847656L61.6809 6.89667H72.561L61.8926 17.5651L66.6753 22.3144L77.3326 11.6497V22.5149L83.4113 16.4696V0.847656H67.7633Z" fill="white"/>
</mask>
<g mask="url(#mask3_6482_27301)">
<mask id="mask4_6482_27301" style="mask-type:luminance" maskUnits="userSpaceOnUse" x="-65" y="-109" width="228" height="295">
<path d="M162.958 -108.699H-64.2975V185.397H162.958V-108.699Z" fill="white"/>
</mask>
<g mask="url(#mask4_6482_27301)">
<path d="M61.6809 21.8348L81.2984 2.94141L72.1376 24.4676L61.6809 21.8348Z" fill="#BBBBBB"/>
<path d="M64.0352 20.1824L61.4619 17.5385L71.7404 7.14118L81.2985 2.94141L64.0352 20.1824Z" fill="#A3A3A3"/>
<path d="M60.6932 7.46796L62.1934 6.02718L81.3022 2.94141L72.561 6.89982L60.6932 7.46796Z" fill="#BABABA"/>
<path d="M77.3326 11.6492L81.3022 2.94141L77.949 22.5144L77.5071 22.9414L76.8127 22.5144L77.3326 11.6492Z" fill="#BFBFBF"/>
<path d="M81.2984 2.94241L61.6809 6.90082L67.5628 0.480469L81.2984 2.94241Z" fill="#838383"/>
<path d="M67.7596 0.846639L70.2104 0L83.7604 0.642406L81.4024 2.95581L67.7596 0.846639Z" fill="#636363"/>
<path d="M77.3326 22.5144L81.3022 2.94141L84.3323 17.3306L77.3326 22.5144Z" fill="#8C8C8C"/>
<path d="M83.4113 16.4696L81.2985 2.94198L83.4113 0.847656L84.4845 14.613L83.4113 16.4696Z" fill="#5E5E5E"/>
</g>
</g>
</g>
<defs>
<clipPath id="clip0_6482_27301">
<rect width="86.3684" height="40" fill="white" transform="translate(0.355225)"/>
</clipPath>
</defs>
</svg>
