<svg width="25" height="24" viewBox="0 0 25 24" fill="none" xmlns="http://www.w3.org/2000/svg">
<circle cx="12.5" cy="12" r="12" fill="#3A3A55"/>
<path d="M8.7355 15.4105H15.765L12.739 7.939C12.6653 7.75767 12.5888 7.54233 12.5095 7.293C12.4358 7.04367 12.3622 6.7745 12.2885 6.4855C12.2205 6.78017 12.1468 7.04933 12.0675 7.293C11.9938 7.53667 11.9173 7.75483 11.838 7.9475L8.7355 15.4105ZM17.7625 15.232C17.9268 15.6287 18.009 16.0253 18.009 16.422V17H6.687V16.4305C6.687 16.2492 6.70683 16.0622 6.7465 15.8695C6.78617 15.6712 6.84567 15.47 6.925 15.266L11.362 4.76H13.3765L17.7625 15.232Z" fill="#F7F7F7"/>
</svg>
