<svg width="25" height="24" viewBox="0 0 25 24" fill="none" xmlns="http://www.w3.org/2000/svg">
<path d="M12.3335 2C6.8195 2 2.3335 6.486 2.3335 12C2.3335 17.514 6.8195 22 12.3335 22C17.8475 22 22.3335 17.514 22.3335 12C22.3335 6.486 17.8475 2 12.3335 2ZM13.3335 16.915V18H11.3335V16.92C8.9945 16.553 8.3335 14.918 8.3335 14H10.3335C10.3445 14.143 10.4925 15 12.3335 15C13.7135 15 14.3335 14.415 14.3335 14C14.3335 13.676 14.3335 13 12.3335 13C8.8535 13 8.3335 11.12 8.3335 10C8.3335 8.712 9.3625 7.416 11.3335 7.085V6.012H13.3335V7.121C15.0675 7.531 15.7335 8.974 15.7335 10H14.7335L13.7335 10.018C13.7195 9.638 13.5185 9 12.3335 9C11.0345 9 10.3335 9.516 10.3335 10C10.3335 10.374 10.3335 11 12.3335 11C15.8135 11 16.3335 12.88 16.3335 14C16.3335 15.288 15.3045 16.584 13.3335 16.915Z" fill="#FDE61A"/>
</svg>
