<svg width="24" height="24" viewBox="0 0 24 24" fill="none" xmlns="http://www.w3.org/2000/svg">
<circle cx="12" cy="12" r="12" fill="#3A3A55"/>
<path d="M15.312 7.16908C15.2407 6.88174 14.9874 6.67574 14.6907 6.66508C14.4027 6.64841 14.1267 6.83908 14.0334 7.12041L11.9094 13.4897L9.94136 9.06041C9.8327 8.81574 9.58003 8.65508 9.31936 8.66441C9.05136 8.66974 8.81203 8.83441 8.7127 9.08308L7.54736 11.9977H5.33203V13.3311H7.54736C8.09603 13.3311 8.58203 13.0017 8.7847 12.4931L9.36403 11.0451L11.3887 15.6017C11.4967 15.8437 11.736 15.9977 11.9987 15.9977C12.0094 15.9977 12.02 15.9977 12.0307 15.9971C12.306 15.9831 12.5447 15.8031 12.6307 15.5417L14.5734 9.71374L15.226 12.3211C15.374 12.9157 15.906 13.3311 16.5194 13.3311H18.6654V11.9977H16.5187L15.312 7.16908Z" fill="#F7F7F7"/>
</svg>
