<svg width="24" height="24" viewBox="0 0 24 24" fill="none" xmlns="http://www.w3.org/2000/svg">
<circle cx="12" cy="12" r="12" fill="#0073FB"/>
<g clip-path="url(#clip0_2060_13479)">
<path d="M16.6667 5.33334H7.33333C6.598 5.33334 6 5.93134 6 6.66668V17.3333C6 18.0687 6.598 18.6667 7.33333 18.6667H16.6667C17.402 18.6667 18 18.0687 18 17.3333V6.66668C18 5.93134 17.402 5.33334 16.6667 5.33334ZM7.33333 17.3333V6.66668H16.6667L16.6673 17.3333H7.33333Z" fill="#E7E7E7"/>
<path d="M8.66675 12H10.0001V13.3333H8.66675V12ZM8.66675 14.6667H10.0001V16H8.66675V14.6667ZM11.3334 12H12.6667V13.3333H11.3334V12ZM8.66675 8H15.3334V10.6667H8.66675V8ZM11.3334 14.6667H12.6667V16H11.3334V14.6667ZM14.0001 12H15.3334V16H14.0001V12Z" fill="#E7E7E7"/>
</g>
<defs>
<clipPath id="clip0_2060_13479">
<rect width="24" height="24" fill="white"/>
</clipPath>
</defs>
</svg>
