<svg width="25" height="24" viewBox="0 0 25 24" fill="none" xmlns="http://www.w3.org/2000/svg">
<circle cx="12.3335" cy="12" r="12" fill="#BD05FE"/>
<g clip-path="url(#clip0_1632_16978)">
<path d="M12.6663 8.73404C12.6683 8.73404 12.671 8.73404 12.673 8.73471C12.885 8.77804 13.0957 8.84337 13.2977 8.92871C13.495 9.01204 13.685 9.11604 13.8637 9.23604C14.0397 9.35471 14.2057 9.49137 14.357 9.64271C14.5083 9.79404 14.6463 9.96071 14.7643 10.136C14.8857 10.3167 14.989 10.5067 15.0717 10.7034C15.1563 10.902 15.2217 11.112 15.2657 11.328C15.3103 11.5474 15.333 11.7734 15.333 12C15.333 12.2267 15.3103 12.4527 15.265 12.672C15.221 12.888 15.1557 13.098 15.0703 13.2974C14.9883 13.4927 14.885 13.6834 14.7643 13.8627C14.645 14.0387 14.5077 14.2054 14.3563 14.3567L15.299 15.2994C15.5103 15.088 15.7023 14.8554 15.869 14.608C16.0383 14.3567 16.1837 14.09 16.299 13.8167C16.4177 13.5367 16.509 13.2414 16.571 12.9394C16.6343 12.6327 16.6663 12.3167 16.6663 12C16.6663 11.6834 16.6343 11.3674 16.571 11.06C16.509 10.7574 16.4177 10.4627 16.2997 10.184C16.1837 9.90937 16.0383 9.64271 15.869 9.39071C15.703 9.14404 15.511 8.91204 15.2997 8.70071C15.0883 8.48871 14.8557 8.29737 14.6097 8.13137C14.361 7.96337 14.0943 7.81804 13.8177 7.70071C13.5343 7.58071 13.239 7.48937 12.941 7.42871C12.8497 7.41004 12.7577 7.40004 12.6663 7.38671V5.33337L9.99967 8.00004L12.6663 10.6667V8.73404ZM7.69967 13.816C7.81567 14.0907 7.96101 14.3574 8.13034 14.6094C8.29634 14.856 8.48834 15.088 8.69967 15.2987C8.90901 15.5094 9.14234 15.7014 9.39034 15.8687C9.63901 16.0367 9.90567 16.182 10.1823 16.2994C10.4657 16.4194 10.761 16.5107 11.059 16.5714C11.1703 16.594 11.2843 16.6087 11.3977 16.6234V18.586L14.0643 15.9194L11.3977 13.2527V15.2727C11.3743 15.2687 11.3497 15.2707 11.3263 15.2654C11.1143 15.222 10.9037 15.1567 10.7017 15.0714C10.5043 14.988 10.3143 14.884 10.1357 14.764C9.95767 14.6447 9.79234 14.508 9.64234 14.3574C9.49034 14.2054 9.35301 14.0394 9.23501 13.864C9.11367 13.6834 9.01034 13.4934 8.92767 13.2967C8.84301 13.098 8.77767 12.888 8.73367 12.672C8.68901 12.4527 8.66634 12.2267 8.66634 12C8.66634 11.7734 8.68901 11.5474 8.73434 11.328C8.77834 11.112 8.84367 10.902 8.92901 10.7027C9.01101 10.5067 9.11434 10.3167 9.23501 10.1374C9.35434 9.96137 9.49167 9.79471 9.64301 9.64337L8.70034 8.70004C8.48834 8.91204 8.29634 9.14404 8.12967 9.39137C7.96034 9.64271 7.81567 9.90937 7.70034 10.1827C7.58167 10.4627 7.49034 10.758 7.42834 11.06C7.36501 11.3674 7.33301 11.6834 7.33301 12C7.33301 12.3167 7.36501 12.6327 7.42834 12.94C7.48967 13.242 7.58167 13.5374 7.69967 13.816Z" fill="#F7F7F7"/>
</g>
<defs>
<clipPath id="clip0_1632_16978">
<rect width="24" height="24" fill="white" transform="translate(0.333496)"/>
</clipPath>
</defs>
</svg>
