<svg width="25" height="24" viewBox="0 0 25 24" fill="none" xmlns="http://www.w3.org/2000/svg">
<circle cx="12.5" cy="12" r="12" fill="#3A3A55"/>
<path d="M10.005 11.03H14.6545V12.6365H10.005V11.03ZM18.454 11.88C18.454 12.7867 18.3067 13.6225 18.012 14.3875C17.7173 15.1525 17.3008 15.8127 16.7625 16.368C16.2298 16.9177 15.5867 17.3483 14.833 17.66C14.085 17.9717 13.252 18.1275 12.334 18.1275C11.4217 18.1275 10.5887 17.9717 9.835 17.66C9.087 17.3483 8.44383 16.9177 7.9055 16.368C7.36717 15.8127 6.95067 15.1525 6.656 14.3875C6.36133 13.6225 6.214 12.7867 6.214 11.88C6.214 10.9733 6.36133 10.1375 6.656 9.3725C6.95067 8.6075 7.36717 7.94733 7.9055 7.392C8.44383 6.83667 9.087 6.40317 9.835 6.0915C10.5887 5.77983 11.4217 5.624 12.334 5.624C13.252 5.624 14.085 5.77983 14.833 6.0915C15.5867 6.40317 16.2298 6.83667 16.7625 7.392C17.3008 7.94733 17.7173 8.6075 18.012 9.3725C18.3067 10.1375 18.454 10.9733 18.454 11.88ZM16.4225 11.88C16.4225 11.1773 16.3262 10.5455 16.1335 9.9845C15.9465 9.4235 15.6745 8.9475 15.3175 8.5565C14.9662 8.1655 14.5383 7.86517 14.034 7.6555C13.5297 7.44583 12.963 7.341 12.334 7.341C11.7107 7.341 11.1468 7.44583 10.6425 7.6555C10.1382 7.86517 9.7075 8.1655 9.3505 8.5565C8.9935 8.9475 8.71867 9.4235 8.526 9.9845C8.33333 10.5455 8.237 11.1773 8.237 11.88C8.237 12.5883 8.33333 13.223 8.526 13.784C8.71867 14.345 8.9935 14.821 9.3505 15.212C9.7075 15.5973 10.1382 15.8948 10.6425 16.1045C11.1468 16.3085 11.7107 16.4105 12.334 16.4105C12.963 16.4105 13.5297 16.3085 14.034 16.1045C14.5383 15.8948 14.9662 15.5973 15.3175 15.212C15.6745 14.821 15.9465 14.345 16.1335 13.784C16.3262 13.223 16.4225 12.5883 16.4225 11.88Z" fill="#F7F7F7"/>
</svg>
