<svg width="13" height="12" viewBox="0 0 13 12" fill="none" xmlns="http://www.w3.org/2000/svg">
<g id="icon">
<path d="M6.82363 3H5.62363V5.4H3.22363V6.6H5.62363V9H6.82363V6.6H9.22363V5.4H6.82363V3Z" fill="#221D28"/>
<path d="M6.22363 0C2.91523 0 0.223633 2.6916 0.223633 6C0.223633 9.3084 2.91523 12 6.22363 12C9.53203 12 12.2236 9.3084 12.2236 6C12.2236 2.6916 9.53203 0 6.22363 0ZM6.22363 10.8C3.57703 10.8 1.42363 8.6466 1.42363 6C1.42363 3.3534 3.57703 1.2 6.22363 1.2C8.87023 1.2 11.0236 3.3534 11.0236 6C11.0236 8.6466 8.87023 10.8 6.22363 10.8Z" fill="#221D28"/>
</g>
</svg>
