<svg width="256" height="48" viewBox="0 0 256 48" fill="none" xmlns="http://www.w3.org/2000/svg">
<path d="M0 0.5H53.047V47.5H0V0.5Z" fill="#2D78C8" fill-opacity="0.5"/>
<path d="M51.4129 24.2101C51.4129 34.0427 51.8731 44.086 51.8731 44.086C51.8731 45.2238 51.0638 45.9402 50.0165 45.9402H4.09427C3.03111 45.9402 2.33292 45.1114 2.22184 44.086C2.22184 44.086 0.936523 35.4895 0.936523 22.4402C0.936523 9.29256 2.33292 3.19633 2.33292 3.19633C2.45986 2.15688 3.15806 1.32812 4.20535 1.32812H50.1276C51.1749 1.32812 52.0001 2.15688 52.0001 3.19633C51.8731 3.19633 51.4129 14.4758 51.4129 24.2101Z" fill="#2D78C8" fill-opacity="0.5"/>
<path d="M41.1301 13.1267C37.8613 14.7842 36.814 14.9949 33.3071 16.8491L33.4182 16.5401C35.2906 14.7842 36.0999 13.9555 37.2741 12.3963C34.0053 12.607 29.2132 12.916 25.8174 13.5481L26.0554 13.2251C29.2132 11.8906 34.9415 10.5421 37.8613 10.2331C37.1631 9.292 31.3077 6.49672 29.9114 5.99104L30.0224 5.66797C34.4655 6.08937 40.305 7.95757 42.7645 9.292C43.8118 8.98297 44.986 8.98297 46.9696 8.78632C46.9696 8.78632 46.6205 9.81172 44.5259 11.1602C45.0971 12.3963 43.8118 19.546 42.6534 21.4142C42.6534 18.5066 42.4154 14.7842 41.1301 13.1267Z" fill="#2D78C8" fill-opacity="0.5"/>
<path d="M12.0284 37.7669C11.9173 38.8063 12.2664 39.5227 12.5044 40.4638L12.3933 40.7729C10.9811 39.5227 10.0448 38.385 9.23557 36.8398C7.60116 36.2077 6.53799 35.5897 5.1416 34.8733L5.25268 34.5643C6.1889 34.2412 7.12511 34.2412 8.17241 33.9322C7.82331 32.078 7.95025 30.4205 8.17241 28.0326V27.8359C8.75953 29.9008 9.10863 32.078 10.1718 33.6231C11.4571 33.4265 12.7424 32.9068 14.2499 32.6961L14.1388 33.0051C13.3137 34.0445 12.8535 34.8733 12.3933 36.0111C13.7897 37.2472 15.5352 37.6686 17.2966 38.2866L17.1696 38.5957C15.1861 38.4973 13.7897 38.2866 12.0284 37.7669Z" fill="#2D78C8" fill-opacity="0.5"/>
<path d="M22.0885 14.9961C22.0885 14.9961 21.3903 16.1339 20.8032 17.5807H20.6762C24.7702 18.1004 28.6261 19.5472 29.5624 20.0669L29.4513 20.376C25.2462 19.7579 23.0247 19.7579 21.3903 19.9546C19.867 20.0669 19.5179 20.2776 19.5179 20.2776C18.5816 22.0335 18.1056 24.9271 17.8834 25.9665L17.7565 26.2755C16.9472 24.618 15.8841 21.303 15.8841 21.303C13.7895 22.3425 8.88623 26.3739 8.88623 26.3739C11.5679 21.6121 14.3766 19.4489 14.3766 19.4489C13.4404 18.6201 10.9808 18.1987 9.10838 18.1004L9.23533 17.7914C10.3937 17.4823 12.7422 17.37 14.2496 17.2716C16.1221 17.2716 17.1694 17.2716 17.1694 17.2716C18.6927 16.1339 21.1523 15.0944 22.0885 14.9961Z" fill="#2D78C8" fill-opacity="0.5"/>
<path d="M27.4517 37.5527C28.8639 36.9346 30.3873 35.7968 31.6726 35.0664L31.4346 35.3895C30.1492 36.5273 29.102 37.4543 27.5786 38.4938C27.6897 38.9995 28.0388 39.2102 28.1657 39.5192L28.0388 39.8282C27.4517 39.9406 26.6424 39.9406 25.8173 39.9406C24.1828 40.8677 21.9613 41.4857 20.3269 41.7947L20.4538 41.4857C21.2631 40.98 22.3104 40.4603 23.1356 39.8282C22.0883 39.6316 21.152 39.3225 20.2158 38.9011L20.3269 38.5921C21.6122 38.5921 23.2466 38.6904 24.6589 38.3814C25.5951 37.4543 26.4044 36.6256 27.2295 35.5861C27.2295 36.3166 27.3406 36.8363 27.4517 37.5527Z" fill="#2D78C8" fill-opacity="0.5"/>
<path d="M41.3681 12.8177C38.0993 14.4752 37.0362 14.6859 33.5293 16.5401C35.6398 14.5735 36.338 13.7448 37.6233 11.9889C34.3544 12.0873 29.5623 12.5087 26.1665 13.1267C29.1021 11.6799 35.0526 10.1207 38.0993 9.81172C37.3853 8.98297 31.5458 6.30007 30.0225 5.66797C34.5925 5.99104 40.305 7.53617 43.0026 8.98297C44.0498 8.67395 45.2241 8.67395 47.2076 8.46325C46.7316 9.292 46.7316 9.81172 44.748 10.9495C45.3352 12.1996 44.0499 19.3353 42.8756 21.2035C42.8756 18.1976 42.5265 14.4752 41.3681 12.8177Z" fill="white"/>
<path d="M12.3931 37.457C12.1551 38.5947 12.2661 39.4235 12.6152 40.4629C11.2189 39.2128 10.2826 38.075 9.45749 36.5299C7.95003 35.8978 6.77579 35.2797 5.37939 34.5634C6.31561 34.142 7.25183 33.9313 8.4102 33.6222C8.0611 31.7681 8.0611 30.1106 8.4102 27.7227C8.88624 29.8999 9.34642 31.5574 10.5207 33.3132C11.806 33.0042 12.9643 32.9059 14.4877 32.6952C13.6784 33.7346 13.2024 34.5634 12.7422 35.7011C14.1386 36.9372 15.535 37.6677 17.4074 38.2857C15.4239 38.1874 13.9006 37.9767 12.3931 37.457Z" fill="white"/>
<path d="M22.3104 14.6875C21.7392 15.4039 21.0251 16.654 20.914 17.1597C25.7062 17.7918 29.6732 19.955 29.6732 19.955C25.4682 19.3369 23.2466 19.3369 21.6122 19.5476C20.1047 19.646 19.7398 19.8567 19.7398 19.8567C18.5814 22.0339 17.8832 25.8686 17.8832 25.8686C17.0581 24.2111 16.0108 20.8961 16.0108 20.8961C13.9003 21.9356 8.99707 25.9669 8.99707 25.9669C11.6788 21.2051 14.4874 19.0279 14.4874 19.0279C13.5512 18.1992 11.1075 17.7918 9.23509 17.6794C10.1713 17.3704 12.615 16.9631 14.4874 16.8507C16.3599 16.8507 17.4072 16.8507 17.4072 16.8507C18.9305 15.8253 21.3901 14.7858 22.3104 14.6875Z" fill="white"/>
<path d="M27.4519 37.1453C28.9753 36.5273 30.1495 35.8952 31.5459 35.0664C30.3875 36.2182 29.2133 37.1453 27.6899 38.1848C27.8169 38.8028 27.928 39.1118 28.039 39.5192C27.4519 39.6316 26.6426 39.6316 25.8175 39.6316C24.1831 40.5586 21.9616 41.1767 20.3271 41.4857C21.3903 40.8677 22.1996 40.3479 23.2469 39.5192C22.1996 39.3225 21.2634 38.9995 20.3271 38.5921C21.9616 38.5921 23.2469 38.4938 24.8813 38.0724C25.8175 37.1453 26.6427 36.3166 27.4519 35.2771C27.4519 36.0075 27.4519 36.5273 27.4519 37.1453Z" fill="white"/>
<path fill-rule="evenodd" clip-rule="evenodd" d="M66.249 15.8241H75.7223C78.9911 15.9224 82.498 16.9619 82.498 19.6448C82.498 21.3023 80.8635 22.7491 78.5151 23.2688C81.6728 24.0976 83.4342 25.6567 83.4342 27.7216C83.4342 31.0366 78.9911 32.1744 74.7861 32.1744H66.376V31.9637C66.5981 29.8988 66.5981 25.0387 66.5981 23.5778C66.5981 22.0327 66.487 17.6782 66.376 16.0207L66.249 15.8241ZM71.2633 17.7906C71.2633 19.9678 71.1523 22.4541 71.1523 23.5919C71.1523 24.519 71.1523 27.834 71.2633 30.2219C71.8505 30.2219 72.7867 30.2219 73.3738 30.2219C76.8806 30.2219 78.6261 29.2808 78.6261 27.5249C78.6261 27.0052 78.3881 26.4995 78.039 26.0781C77.2297 25.1511 75.4684 24.6313 73.4849 24.6313H72.4376L73.4849 22.3558H73.596C75.3573 22.4541 76.6426 22.0467 77.3408 21.3163C77.6899 21.0073 77.8169 20.5859 77.8169 20.0802C77.8169 18.3103 76.5315 17.6923 72.8978 17.6923C72.3106 17.6923 71.6124 17.6923 71.2633 17.7906ZM103.158 15.9365H103.523V16.0348C103.396 17.6923 103.285 22.0467 103.285 23.5919C103.285 25.0387 103.285 29.9129 103.523 31.9777V32.1884H100.016V32.076C99.6672 31.458 92.1775 21.9344 92.1775 21.836C91.4793 20.909 91.2413 20.5859 91.1302 20.0802C91.1302 24.0133 91.1302 28.0447 91.3682 31.9777V32.1884H87.0362V31.9777C87.2743 29.9129 87.2743 25.0387 87.2743 23.5919C87.2743 22.0467 87.1632 17.6923 87.0362 16.0348V15.8241H91.8284C93.3517 17.4816 97.6679 23.3812 97.6679 23.4935C98.9532 25.1511 99.1912 25.4601 99.4292 26.0781C99.1912 24.1116 99.1912 22.0467 99.0801 19.9678L98.9532 15.8241H103.158V15.9365ZM108.299 16.0488V15.8381H116.376C120.232 15.9365 124.786 16.7652 124.786 20.5999C124.786 23.9149 121.518 25.4601 114.726 25.4601C114.726 25.4601 113.33 25.4601 113.092 25.4601C113.092 27.6373 113.219 30.4326 113.33 31.9918V32.1884H108.188V31.9918C108.426 29.9129 108.426 25.0527 108.426 23.6059C108.426 22.0467 108.299 17.7063 108.188 16.0488H108.299ZM112.981 17.903C112.981 19.0548 112.981 20.2909 112.981 21.3304C112.981 22.1591 112.981 22.8755 112.981 23.3952C113.203 23.3952 114.488 23.3952 114.488 23.3952C116.948 23.3952 119.978 22.8755 119.978 20.5016C119.978 19.9819 119.756 19.4622 119.407 19.0548C118.582 18.2214 116.942 17.8047 114.488 17.8047C113.917 17.8047 113.33 17.903 112.981 17.903ZM134.482 15.8381H142.543C146.399 15.9365 151.064 16.7652 151.064 20.5999C151.064 23.9149 147.795 25.4601 141.019 25.4601C141.019 25.4601 139.623 25.4601 139.385 25.4601C139.385 27.6373 139.496 30.4326 139.623 31.9918V32.1884H134.482V31.9918C134.704 29.9129 134.704 25.0527 134.704 23.6059C134.704 22.0467 134.593 17.7063 134.482 16.0488V15.8381ZM139.258 17.903C139.258 19.0408 139.258 20.2909 139.258 21.3163C139.258 22.1451 139.258 22.8755 139.258 23.3952C139.496 23.3952 140.781 23.3952 140.781 23.3952C143.241 23.3952 146.272 22.8755 146.272 20.4876C146.272 19.9819 146.05 19.4622 145.685 19.0408C144.87 18.2167 143.236 17.8047 140.781 17.8047C140.194 17.8047 139.623 17.903 139.258 17.903ZM161.108 15.8381L169.296 32.1884H164.266V32.0901C164.044 31.472 163.457 30.1236 162.632 28.3677C162.521 28.3677 159.014 28.3677 159.014 28.3677C159.014 28.3677 155.618 28.3677 155.396 28.3677C154.809 29.7022 154.222 30.9523 153.873 32.0901V32.1884H149.541L149.668 31.9777C150.604 30.1236 156.792 18.212 157.84 15.8381H161.108ZM156.443 26.1905C156.792 26.1905 161.347 26.1905 161.347 26.1905C161.347 26.1905 161.585 26.1905 161.807 26.1905C160.648 23.6059 159.474 21.527 159.125 20.6983C158.316 22.2574 157.38 24.1116 156.443 26.1905ZM171.518 15.8381H179.579C183.546 15.9365 188.1 16.8635 188.1 20.5999C188.1 22.6648 186.704 24.1116 183.895 24.842L184.022 24.9404C185.529 26.9069 189.163 31.5704 189.385 31.8794L189.512 32.0901H184.022V31.9777C182.848 30.0112 180.166 25.9798 178.294 23.6059L178.056 23.2829L178.405 23.3952C178.405 23.3952 178.881 23.3952 179.452 23.3952C181.324 23.2829 183.308 22.3558 183.308 20.4876C183.308 19.9819 183.086 19.4622 182.737 19.0408C181.912 18.212 180.166 17.8047 177.818 17.8047C177.357 17.8047 176.77 17.903 176.421 17.903C176.31 19.9819 176.31 22.4541 176.31 23.6059C176.31 25.0527 176.421 29.9129 176.659 31.9777V32.1884H171.518V31.9777C171.74 29.9129 171.74 25.0527 171.74 23.6059C171.74 22.0467 171.629 17.6923 171.518 16.0488V15.8381ZM196.986 15.8381V15.9365C196.875 17.594 196.748 21.9344 196.748 23.4935C196.748 24.9404 196.748 29.8005 196.986 31.8794V32.0901H191.845V31.8794C192.083 29.8005 192.083 24.9404 192.083 23.4935C192.083 21.9344 191.956 17.594 191.845 15.9365V15.8381H196.986ZM201.54 15.8381H211.014C214.283 15.9365 217.789 16.9759 217.789 19.6588C217.789 21.3163 216.155 22.7631 213.806 23.2829C216.964 24.1116 218.726 25.6708 218.726 27.7356C218.726 31.0506 214.283 32.1884 210.077 32.1884H201.54V31.9777C201.778 29.9129 201.778 25.0387 201.778 23.5919C201.778 22.0467 201.651 17.6923 201.54 16.0348V15.8381ZM206.333 17.8047C206.222 19.9819 206.221 22.4681 206.221 23.6059C206.221 24.533 206.222 27.848 206.333 30.2359C206.92 30.2359 207.856 30.2359 208.443 30.2359C212.061 30.2359 213.806 29.2948 213.806 27.539C213.806 27.0193 213.695 26.4995 213.219 26.0922C212.299 25.1651 210.649 24.6454 208.665 24.6454H207.729L208.665 22.3698H208.792C210.538 22.4681 211.823 22.0467 212.521 21.3304C212.87 21.0213 212.997 20.5999 212.997 20.0802C212.997 18.3244 211.712 17.7063 208.078 17.7063C207.507 17.7063 206.793 17.7063 206.333 17.8047ZM239.402 32.2025H234.372V32.0901C234.149 31.472 233.562 30.1236 232.737 28.3677C232.737 28.3677 225.612 28.3677 225.501 28.3677C224.909 29.7162 224.438 30.957 224.089 32.0901V32.2025H219.646L219.773 31.9918C220.36 30.9523 226.787 18.4368 227.834 15.9505V15.8381H231.214L239.402 32.2025ZM226.549 26.0922C226.913 26.0922 231.468 26.0922 231.468 26.0922C231.468 26.0922 231.584 26.0922 231.817 26.0922C230.643 23.5076 229.595 21.3304 229.119 20.614C228.31 22.2715 227.374 24.1256 226.549 26.0922ZM248.764 15.0234C250.509 15.0234 252.255 15.3325 253.318 15.5432L254.365 15.7539V19.3638L253.318 18.9565C252.144 18.5491 250.16 17.8187 248.05 17.8187C245.257 17.8187 245.257 18.8582 245.257 19.2655C245.257 20.5157 247.479 21.232 249.684 22.0608C252.731 23.1002 256 24.238 256 27.244C256 30.4466 252.731 32.3148 247.352 32.3148C245.368 32.3148 243.258 31.8934 242.21 31.6827H241.861L241.274 31.5844V28.0727L242.099 28.4801C244.321 29.4072 246.193 29.8286 247.939 29.9269C249.684 30.0393 250.747 29.7162 251.335 29.2105C251.557 28.8875 251.684 28.5784 251.684 28.1711C251.684 26.8226 249.335 25.9938 247.114 25.1651C244.321 24.1256 241.052 22.9879 241.052 20.0943C241.052 17.2007 244.083 15.2341 248.764 15.0234Z" fill="#2D78C8" fill-opacity="0.5"/>
</svg>
