<svg width="256" height="36" viewBox="0 0 256 36" fill="none" xmlns="http://www.w3.org/2000/svg">
<g clip-path="url(#clip0_7005_62764)">
<path d="M61.0073 18.3043C61.0073 19.8212 59.6665 20.2257 58.0383 20.2257H53.9201V24.2706C55.3567 24.574 56.0271 25.1807 56.0271 25.5852V25.6864H51.1427V12.4392C50.2808 12.1358 49.6104 11.5291 49.6104 11.1246V11.0234H62.3481V14.6639H62.2523C61.8692 14.6639 61.2946 13.956 61.0073 13.0459H53.9201V18.001H61.0073V18.3043Z" fill="#2D78C8" fill-opacity="0.5"/>
<path d="M68.3816 25.6847H63.3057V25.5836C63.3057 25.1791 63.8803 24.5724 64.5507 24.269V14.7634C63.8803 14.5611 63.3057 13.8533 63.3057 13.4488V13.3477H68.3816V13.4488C68.3816 13.8533 67.807 14.46 67.1366 14.7634V24.269C67.807 24.4713 68.3816 25.1791 68.3816 25.5836V25.6847Z" fill="#2D78C8" fill-opacity="0.5"/>
<path d="M80.449 19.0106C80.449 20.5274 79.1082 20.9319 77.48 20.9319H73.7449V24.269C74.7026 24.4713 75.4688 25.1791 75.4688 25.5836V25.6847H71.2548V14.7634C70.5844 14.5611 70.0098 13.8533 70.0098 13.4488V13.3477H82.2687V16.6847H82.1729C81.7898 16.6847 81.2152 16.078 80.9278 15.3701H73.7449V19.0106H80.449Z" fill="#2D78C8" fill-opacity="0.5"/>
<path d="M95.1023 13.3477V16.6847H95.0065C94.6234 16.6847 94.0488 16.078 93.7615 15.3701H90.4094V24.269C91.3672 24.4713 92.1333 25.1791 92.1333 25.5836V25.6847H86.1954V25.5836C86.1954 25.1791 86.9616 24.5724 87.9194 24.269V15.3701H84.6631C84.4715 16.078 83.8011 16.6847 83.418 16.6847H83.3223V13.3477H95.1023Z" fill="#2D78C8" fill-opacity="0.5"/>
<path d="M100.178 18.4038C101.328 18.1005 102.573 17.9993 103.722 18.1005C104.967 18.1005 106.116 18.2016 107.361 18.4038V14.7634C106.691 14.5611 106.116 13.8533 106.116 13.4488V13.3477H111.192V13.4488C111.192 13.8533 110.618 14.46 109.947 14.7634V24.269C110.618 24.4713 111.192 25.1791 111.192 25.5836V25.6847H107.457V20.6286C106.308 20.4263 105.063 20.2241 103.818 20.3252C102.669 20.3252 101.424 20.4263 100.274 20.6286V24.269C100.945 24.4713 101.519 25.1791 101.519 25.5836V25.6847H97.6884V14.7634C97.018 14.5611 96.4434 13.8533 96.4434 13.4488V13.3477H101.519V13.4488C101.519 13.8533 100.945 14.46 100.274 14.7634L100.178 18.4038Z" fill="#2D78C8" fill-opacity="0.5"/>
<path d="M133.124 11.0234V14.6639C132.741 14.6639 132.071 13.956 131.783 13.0459H127.569V24.1695C128.431 24.4729 129.102 25.0796 129.102 25.4841H123.355C123.355 25.0796 124.026 24.3718 124.888 24.1695V13.147H120.674C120.387 14.0571 119.812 14.765 119.429 14.765H119.333V11.1246H133.124V11.0234Z" fill="#2D78C8" fill-opacity="0.5"/>
<path d="M138.2 18.4038C139.349 18.1005 140.594 17.9993 141.744 18.1005C142.989 18.1005 144.138 18.2016 145.383 18.4038V14.7634C144.713 14.5611 144.138 13.8533 144.138 13.4488V13.3477H149.214V13.4488C149.214 13.8533 148.639 14.46 147.969 14.7634V24.269C148.639 24.4713 149.214 25.1791 149.214 25.5836V25.6847H145.383V20.6286C144.234 20.4263 142.989 20.2241 141.744 20.3252C140.594 20.3252 139.349 20.4263 138.2 20.6286V24.269C138.87 24.4713 139.445 25.1791 139.445 25.5836V25.6847H135.614V14.7634C134.944 14.5611 134.369 13.8533 134.369 13.4488V13.3477H139.445V13.4488C139.445 13.8533 138.87 14.46 138.2 14.7634V18.4038Z" fill="#2D78C8" fill-opacity="0.5"/>
<path d="M155.726 25.6847H150.65V25.5836C150.65 25.1791 151.225 24.5724 151.895 24.269V14.7634C151.225 14.5611 150.65 13.8533 150.65 13.4488V13.3477H155.726V13.4488C155.726 13.8533 155.152 14.46 154.481 14.7634V24.269C155.152 24.4713 155.726 25.1791 155.726 25.5836V25.6847Z" fill="#2D78C8" fill-opacity="0.5"/>
<path d="M162.335 25.6847H158.6V14.7634C157.929 14.5611 157.354 13.8533 157.354 13.4488V13.3477H165.591C168.464 13.3477 170.284 14.3589 170.284 16.9881C170.284 19.0106 169.039 20.1229 167.123 20.4263L169.613 24.269C170.284 24.3701 171.05 25.078 171.05 25.5836V25.6847H167.506L164.346 20.6286H161.185V24.269C161.856 24.4713 162.43 25.1791 162.43 25.5836L162.335 25.6847ZM165.208 18.8083C167.315 18.8083 167.794 18.1005 167.794 17.0892C167.794 16.078 167.411 15.3701 165.208 15.3701H161.185V18.8083H165.208Z" fill="#2D78C8" fill-opacity="0.5"/>
<path d="M173.061 14.7634C172.391 14.5611 171.816 13.8533 171.816 13.4488V13.3477H179.957C183.213 13.3477 185.703 15.3701 185.703 19.5162C185.703 23.6623 183.213 25.6847 179.957 25.6847H173.061V14.7634ZM178.999 23.6623C181.776 23.6623 183.117 22.7522 183.117 19.5162C183.117 16.2802 181.776 15.3701 178.999 15.3701H175.551V23.6623H178.999Z" fill="#2D78C8" fill-opacity="0.5"/>
<path d="M38.4048 10.8202C38.309 4.85393 33.8077 0 28.1571 0H0V25.2809C0 31.2472 4.59708 36 10.2477 36.1011H38.4048V10.8202Z" fill="#2D78C8" fill-opacity="0.5"/>
<path d="M28.1568 1.92188H1.81934V25.2814C1.81934 30.1354 5.55447 34.0792 10.1515 34.0792H36.489V10.7196C36.489 5.8657 32.7539 1.92188 28.1568 1.92188Z" fill="white"/>
<path d="M28.0611 3.23438H3.06445V25.2793C3.06445 29.5265 6.32072 32.8636 10.2474 32.8636H35.3398V10.8186C35.3398 6.67258 32.0835 3.23438 28.0611 3.23438Z" fill="#2D78C8" fill-opacity="0.5"/>
<path d="M17.2394 29.3257L22.9858 6.26953H21.645L15.8986 29.4268L17.2394 29.3257ZM28.9237 21.4381C29.8814 21.2358 30.7434 20.8313 31.4138 20.0223C31.9884 19.2134 32.2757 18.2021 31.9884 17.1909C31.7969 16.2808 31.2222 15.4718 30.456 14.865C29.7856 14.3594 29.0195 14.056 28.2533 14.056H22.1238C23.6562 14.5617 24.8055 15.7752 25.2843 17.3931C25.2843 17.3931 26.242 20.528 22.2196 21.4381C22.9858 21.7414 23.6562 22.2471 24.3266 22.9549C24.8055 23.4605 25.0928 24.1684 25.2843 24.7751C25.9547 28.1122 22.1238 28.9212 22.1238 28.9212H28.0617C30.1687 28.9212 31.0307 27.7077 31.2222 27.5055C31.8926 26.7976 32.1799 25.7864 31.9884 24.7751C31.7969 23.9662 31.4138 23.1572 30.7434 22.6516C30.2645 22.1459 29.5941 21.7414 28.9237 21.4381ZM16.2817 20.0223C16.8563 19.4156 17.0479 18.101 16.7606 16.9886C16.4732 15.9774 15.8986 15.0673 15.1324 14.4605C14.462 13.9549 13.6958 13.5504 12.8339 13.4493H6.32136C7.94949 13.9549 9.19453 15.2695 9.76917 16.9886C10.4396 20.528 6.60868 21.2358 6.60868 21.2358H13.7916C14.6536 21.2358 15.6113 20.8313 16.2817 20.0223ZM15.6113 6.87627L15.5155 12.0336H6.22559V6.87627H15.6113Z" fill="white"/>
<path d="M203.612 23.361C206.007 23.361 206.869 22.6531 206.869 21.3385C206.869 20.0239 206.007 19.2149 203.612 19.2149H198.249V23.361H203.612ZM203.517 16.889C205.241 16.889 206.486 16.4846 206.486 14.9677C206.486 13.552 205.241 13.3497 203.517 13.3497H198.249V16.889H203.517ZM203.804 11.125C207.06 11.125 209.167 12.0351 209.167 14.7654C209.167 16.4846 208.018 17.5969 206.103 18.1025C208.305 18.507 209.55 19.7205 209.55 21.6419C209.55 23.9677 207.635 25.7879 204.379 25.7879H195.376V12.6419C194.514 12.3385 193.939 11.7317 193.939 11.3272V11.125H203.804Z" fill="#2D78C8" fill-opacity="0.5"/>
<path d="M225.928 14.7634C225.257 14.5611 224.683 13.8533 224.683 13.4488V13.3477H228.322L235.984 21.7409V14.7634C235.313 14.5611 234.739 13.8533 234.739 13.4488V13.3477H239.527V13.4488C239.527 13.8533 238.953 14.46 238.282 14.7634V24.269C238.953 24.4713 239.527 25.1791 239.527 25.5836V25.6847H236.175L228.226 17.0892V24.269C228.897 24.4713 229.471 25.1791 229.471 25.5836V25.6847H225.928V14.7634Z" fill="#2D78C8" fill-opacity="0.5"/>
<path d="M249.966 14.5611C249.679 14.2578 249.392 13.9544 249.392 13.4488V13.3477H254.18V13.4488C254.18 14.0555 253.414 14.6623 252.839 14.7634L248.625 18.505L253.318 24.269C253.893 24.4713 254.755 24.9769 254.755 25.5836V25.6847H251.211L246.806 20.0218L244.986 21.5387V24.269C245.657 24.4713 246.231 25.1791 246.231 25.5836V25.6847H242.496V14.7634C241.826 14.5611 241.251 13.8533 241.251 13.4488V13.3477H246.231V13.4488C246.231 13.8533 245.657 14.46 244.986 14.7634V19.0106L249.966 14.5611Z" fill="#2D78C8" fill-opacity="0.5"/>
<path d="M216.637 16.3818L214.818 20.629C216.159 20.5279 217.499 20.5279 218.744 20.629L216.829 16.2807H216.637V16.3818ZM214.435 25.5841V25.6852H209.55V25.5841C209.55 24.9773 210.316 24.3706 210.891 24.2694L215.105 14.6627C214.626 14.4605 214.147 13.9548 214.147 13.5503V13.4492H219.702V13.5503C219.702 13.9548 219.128 14.4605 218.744 14.6627L223.246 24.2694C223.82 24.3706 224.587 24.9773 224.587 25.5841V25.6852H219.319V25.5841C219.319 24.9773 219.989 24.4717 220.468 24.3706L219.798 22.8537C217.883 22.5503 215.871 22.5503 213.956 22.8537L213.285 24.3706C213.956 24.3706 214.435 24.8762 214.435 25.5841Z" fill="#2D78C8" fill-opacity="0.5"/>
</g>
<defs>
<clipPath id="clip0_7005_62764">
<rect width="256" height="36" fill="white"/>
</clipPath>
</defs>
</svg>
