<svg width="46" height="39" viewBox="0 0 46 39" fill="none" xmlns="http://www.w3.org/2000/svg">
<mask id="mask0_6902_32444" style="mask-type:alpha" maskUnits="userSpaceOnUse" x="2" y="0" width="41" height="37">
<path d="M19.1394 33.9215L26.9036 6.23741L21.7415 5.80133L20.8245 9.07111L18.1441 12.8764L5.3394 23.4272C2.05055 26.4271 1.43416 29.6165 5.74653 30.9007C5.74653 30.9007 9.50263 31.9866 13.0398 32.6631C14.0192 32.8673 18.2032 33.7425 19.1394 33.9215Z" fill="#C4C4C4"/>
<path d="M19.1385 33.91L26.9028 6.2259L31.7678 7.70762L30.8508 10.9774L31.2314 15.3681L37.1088 29.492C38.4641 33.3802 37.32 36.4687 32.7662 36.0571C32.7662 36.0571 28.8173 35.6693 25.2827 34.9933C24.2949 34.8213 20.074 34.089 19.1385 33.91Z" fill="#C4C4C4"/>
</mask>
<g mask="url(#mask0_6902_32444)">
<rect x="-0.291016" y="24.1172" width="36.5896" height="14.3064" fill="#EF4824"/>
<path d="M24.2033 17.5234C19.4779 17.5234 15.7495 29.5755 10.2871 29.5755H4.56458C3.52411 29.5755 2.91718 29.0119 2.91718 29.0119L0.359375 33.4338L33.1773 37.2922V22.8992L29.6657 18.7373C29.6657 18.7373 29.2985 17.5234 27.8016 17.5234H24.2033Z" fill="#478AEF"/>
<mask id="mask1_6902_32444" style="mask-type:alpha" maskUnits="userSpaceOnUse" x="0" y="17" width="34" height="21">
<path d="M24.2033 17.5234C19.4779 17.5234 15.7495 29.5755 10.2871 29.5755H4.56458C3.52411 29.5755 2.91718 29.0119 2.91718 29.0119L0.359375 33.4338L33.1773 37.2922V22.8992L29.6657 18.7373C29.6657 18.7373 29.2985 17.5234 27.8016 17.5234H24.2033Z" fill="#9E4F35"/>
</mask>
<g mask="url(#mask1_6902_32444)">
<rect x="-1.33203" y="9.8125" width="36.5896" height="14.3064" fill="#2DFFD9"/>
</g>
</g>
<path d="M19.4434 4.3238L20.9216 4.60643L19.8338 8.48664C19.5527 9.48939 18.379 11.4261 17.6952 12.0282C12.3599 16.7257 5.41205 22.0462 4.14951 23.1729C0.673438 26.2749 0.416576 30.1474 4.6186 31.8064C7.32558 32.8752 12.7106 33.9047 19.0432 35.1155" stroke="#221D28" stroke-width="2.16763" stroke-linejoin="round"/>
<ellipse cx="1.34376" cy="1.13197" rx="1.34376" ry="1.13197" transform="matrix(0.98221 0.187788 -0.269947 0.962875 18.3799 2.96875)" fill="#221D28"/>
<path d="M34.9258 7.28303L33.4569 7.00218L32.369 10.8824C32.0879 11.8851 32.1077 14.0501 32.3984 14.8384C34.6669 20.9897 38.0439 28.2842 38.5727 29.7534C40.0287 33.7984 38.2035 37.371 33.5739 37.3415C30.5915 37.3225 25.2404 36.2994 18.9476 35.0963" stroke="#221D28" stroke-width="2.16763" stroke-linejoin="round"/>
<ellipse cx="1.33532" cy="1.13197" rx="1.33532" ry="1.13197" transform="matrix(-0.98221 -0.187788 -0.269947 0.962875 36.5928 6.45312)" fill="#221D28"/>
<circle cx="21.1247" cy="9.63254" r="1.7341" fill="#221D28"/>
<circle cx="22.3385" cy="14.6685" r="1.38728" fill="#221D28"/>
<circle cx="23.9864" cy="4.86922" r="1.99422" fill="#221D28"/>
</svg>
