<svg width="100" height="48" viewBox="0 0 100 48" fill="none" xmlns="http://www.w3.org/2000/svg">
<g clip-path="url(#clip0_7005_62768)">
<mask id="mask0_7005_62768" style="mask-type:luminance" maskUnits="userSpaceOnUse" x="-75" y="-128" width="264" height="347">
<path d="M188.267 -127.223H-74.8569V218.34H188.267V-127.223Z" fill="white"/>
</mask>
<g mask="url(#mask0_7005_62768)">
<path d="M7.92381 46.9942H2.58395V36.191H0V31.7275H2.58395V26.832H7.92381V31.7275H10.942V36.191H7.92381V46.9942Z" fill="#2D78C8" fill-opacity="0.5"/>
</g>
<mask id="mask1_7005_62768" style="mask-type:luminance" maskUnits="userSpaceOnUse" x="-75" y="-128" width="264" height="347">
<path d="M188.267 -127.223H-74.8569V218.34H188.267V-127.223Z" fill="white"/>
</mask>
<g mask="url(#mask1_7005_62768)">
<mask id="mask2_7005_62768" style="mask-type:luminance" maskUnits="userSpaceOnUse" x="-75" y="-128" width="264" height="347">
<path d="M188.267 -127.223H-74.8569V218.34H188.267V-127.223Z" fill="white"/>
</mask>
<g mask="url(#mask2_7005_62768)">
<path d="M17.9801 34.2134H18.0403C19.0679 32.3373 20.8263 31.5039 22.9072 31.5039H23.9348V36.7222C23.2413 36.3495 22.4613 36.1745 21.6776 36.2161C18.7153 36.2161 17.9801 38.2101 17.9801 40.828V46.9888H12.6445V31.7177H17.9801V34.2134Z" fill="#2D78C8" fill-opacity="0.5"/>
<path d="M42.2805 46.99H36.9277V45.2971H36.8847C35.9474 46.8154 34.0987 47.4786 32.3402 47.4786C27.8817 47.4786 24.7432 43.6958 24.7432 39.3239C24.7432 34.952 27.8215 31.1953 32.28 31.1953C33.9998 31.1953 35.8313 31.8498 36.9449 33.1893V31.7233H42.2805V46.99ZM30.2421 39.3719C30.2421 41.3091 31.5061 42.797 33.6816 42.797C35.8571 42.797 37.1212 41.3091 37.1212 39.3719C37.1212 38.4461 36.7588 37.5583 36.1138 36.9037C35.4687 36.2491 34.5939 35.8813 33.6816 35.8813C32.7694 35.8813 31.8946 36.2491 31.2495 36.9037C30.6045 37.5583 30.2421 38.4461 30.2421 39.3719Z" fill="#2D78C8" fill-opacity="0.5"/>
<path d="M55.8106 45.2969H55.7504C54.8132 46.8153 52.9644 47.4785 51.2059 47.4785C46.7475 47.4785 43.6089 43.6957 43.6089 39.3238C43.6089 34.9519 46.6873 31.1952 51.1458 31.1952C52.8655 31.1952 54.6971 31.8497 55.8106 33.1892V22.2812H61.1462V46.9811H55.8106V45.2969ZM49.1207 39.3718C49.1207 41.309 50.3848 42.7968 52.5603 42.7968C54.7358 42.7968 55.9998 41.309 55.9998 39.3718C55.9998 38.446 55.6374 37.5582 54.9924 36.9036C54.3473 36.249 53.4725 35.8812 52.5603 35.8812C51.648 35.8812 50.7732 36.249 50.1281 36.9036C49.4831 37.5582 49.1207 38.446 49.1207 39.3718Z" fill="#2D78C8" fill-opacity="0.5"/>
<path d="M69.2593 25.8605C69.2636 26.4655 69.0907 27.0581 68.7626 27.5633C68.4345 28.0684 67.966 28.4632 67.4164 28.6978C66.8669 28.9323 66.2611 28.9959 65.6759 28.8805C65.0907 28.7651 64.5524 28.476 64.1294 28.0497C63.7063 27.6235 63.4175 27.0793 63.2997 26.4863C63.1818 25.8932 63.2401 25.278 63.4673 24.7186C63.6944 24.1593 64.0801 23.681 64.5755 23.3444C65.0709 23.0078 65.6536 22.8281 66.2497 22.8281C67.0442 22.8281 67.8065 23.1469 68.3703 23.715C68.9341 24.283 69.2537 25.0543 69.2593 25.8605ZM68.9369 46.9913H63.5841V31.7203H68.924L68.9369 46.9913Z" fill="#2D78C8" fill-opacity="0.5"/>
<path d="M87.3209 40.268H76.0908C76.0908 42.4495 77.2345 43.6625 79.4315 43.6625C79.9449 43.7034 80.4589 43.5929 80.912 43.3445C81.365 43.096 81.7377 42.7201 81.9853 42.2619H87.1145C86.9288 43.0821 86.5812 43.8557 86.0927 44.5358C85.6043 45.216 84.9851 45.7887 84.2726 46.2193C82.8154 47.0871 81.1509 47.5309 79.4616 47.5021C74.4786 47.5021 70.751 44.6442 70.751 39.3735C70.751 34.2861 74.1905 31.2188 79.0832 31.2188C84.3027 31.2188 87.3209 34.4955 87.3209 39.7051V40.268ZM82.3637 37.1439C82.2168 36.4493 81.836 35.8284 81.2867 35.388C80.7374 34.9476 80.054 34.7153 79.3541 34.7311C77.7977 34.7311 76.5079 35.5645 76.1854 37.1439H82.3637Z" fill="#2D78C8" fill-opacity="0.5"/>
<path d="M94.045 34.2134H94.1095C95.1371 32.3373 96.8956 31.5039 98.9765 31.5039H100.004V36.7222C99.3106 36.3495 98.5305 36.1745 97.7468 36.2161C94.7845 36.2161 94.0493 38.2101 94.0493 40.828V46.9888H88.7095V31.7177H94.045V34.2134Z" fill="#2D78C8" fill-opacity="0.5"/>
</g>
</g>
<mask id="mask3_7005_62768" style="mask-type:luminance" maskUnits="userSpaceOnUse" x="71" y="1" width="26" height="26">
<path d="M78.0473 1.49609L71.0049 8.60369H83.6022L71.25 21.1391L76.7876 26.7195L89.1269 14.1885V26.9552L96.165 19.8519V1.49609H78.0473Z" fill="white"/>
</mask>
<g mask="url(#mask3_7005_62768)">
<mask id="mask4_7005_62768" style="mask-type:luminance" maskUnits="userSpaceOnUse" x="-75" y="-128" width="264" height="347">
<path d="M188.267 -127.223H-74.8569V218.34H188.267V-127.223Z" fill="white"/>
</mask>
<g mask="url(#mask4_7005_62768)">
<path d="M71.0049 26.1568L93.7187 3.95703L83.112 29.2503L71.0049 26.1568Z" fill="#2D78C8" fill-opacity="0.5"/>
<path d="M73.731 24.2152L70.7515 21.1086L82.6522 8.89177L93.7189 3.95703L73.731 24.2152Z" fill="#2D78C8" fill-opacity="0.5"/>
<path d="M69.8613 9.27573L71.5983 7.58282L93.7231 3.95703L83.6022 8.60816L69.8613 9.27573Z" fill="#2D78C8" fill-opacity="0.5"/>
<path d="M89.1268 14.1887L93.7229 3.95703L89.8405 26.9553L89.3289 27.457L88.5249 26.9553L89.1268 14.1887Z" fill="#2D78C8" fill-opacity="0.5"/>
<path d="M93.7187 3.95528L71.0049 8.60641L77.8152 1.0625L93.7187 3.95528Z" fill="#2D78C8" fill-opacity="0.5"/>
<path d="M78.043 1.4948L80.8806 0.5L96.5691 1.25483L93.839 3.97308L78.043 1.4948Z" fill="#2D78C8" fill-opacity="0.5"/>
<path d="M89.127 26.9553L93.723 3.95703L97.2313 20.8643L89.127 26.9553Z" fill="#2D78C8" fill-opacity="0.5"/>
<path d="M96.1651 19.8519L93.7188 3.95692L96.1651 1.49609L97.4076 17.6703L96.1651 19.8519Z" fill="#2D78C8" fill-opacity="0.5"/>
</g>
</g>
</g>
<defs>
<clipPath id="clip0_7005_62768">
<rect width="100" height="47" fill="white" transform="translate(0 0.5)"/>
</clipPath>
</defs>
</svg>
