<svg width="84" height="84" viewBox="0 0 84 84" fill="none" xmlns="http://www.w3.org/2000/svg">
<path d="M3.5 70V66.5C3.5 52.969 14.469 42 28 42C41.531 42 52.5 52.969 52.5 66.5V70" stroke="#2D78C8" stroke-width="5" stroke-linecap="round"/>
<path d="M45.5 49C45.5 39.3351 53.3351 31.5 63 31.5C72.6649 31.5 80.5 39.3351 80.5 49V50.75" stroke="#2D78C8" stroke-width="5" stroke-linecap="round"/>
<path d="M28 42C35.7318 42 42 35.7318 42 28C42 20.268 35.7318 14 28 14C20.268 14 14 20.268 14 28C14 35.7318 20.268 42 28 42Z" stroke="#2D78C8" stroke-width="5" stroke-linecap="round" stroke-linejoin="round"/>
<path d="M63 31.5C68.7992 31.5 73.5 26.799 73.5 21C73.5 15.201 68.7992 10.5 63 10.5C57.2008 10.5 52.5 15.201 52.5 21C52.5 26.799 57.2008 31.5 63 31.5Z" stroke="#2D78C8" stroke-width="5" stroke-linecap="round" stroke-linejoin="round"/>
</svg>
