<svg width="84" height="84" viewBox="0 0 84 84" fill="none" xmlns="http://www.w3.org/2000/svg">
<path d="M58.375 68.25C58.375 70.0449 56.9199 71.5 55.125 71.5C53.3301 71.5 51.875 70.0449 51.875 68.25C51.875 66.4551 53.3301 65 55.125 65C56.9199 65 58.375 66.4551 58.375 68.25Z" stroke="#2D78C8" stroke-width="4"/>
<path d="M58.375 15.75C58.375 17.5449 56.9199 19 55.125 19C53.3301 19 51.875 17.5449 51.875 15.75C51.875 13.9551 53.3301 12.5 55.125 12.5C56.9199 12.5 58.375 13.9551 58.375 15.75Z" stroke="#2D78C8" stroke-width="4"/>
<path d="M13.75 42C13.75 43.7949 12.2949 45.25 10.5 45.25C8.70507 45.25 7.25 43.7949 7.25 42C7.25 40.2051 8.70507 38.75 10.5 38.75C12.2949 38.75 13.75 40.2051 13.75 42Z" stroke="#2D78C8" stroke-width="4"/>
<path d="M73.5 31.5C71.1785 31.5069 68.9248 32.2838 67.0922 33.7089C65.2595 35.1339 63.9514 37.1267 63.3727 39.375H52.1273C51.7555 37.8946 51.0627 36.5141 50.0981 35.3313C49.1335 34.1484 47.9206 33.1921 46.5453 32.5301C45.17 31.8682 43.6659 31.5167 42.1397 31.5006C40.6134 31.4845 39.1023 31.8043 37.7134 32.4371L29.3738 22.0159C30.7456 20.2143 31.4921 18.0144 31.5 15.75C31.5 13.6733 30.8842 11.6432 29.7304 9.91652C28.5767 8.1898 26.9368 6.84399 25.0182 6.04927C23.0996 5.25455 20.9884 5.04661 18.9516 5.45176C16.9148 5.8569 15.0438 6.85693 13.5754 8.32538C12.1069 9.79383 11.1069 11.6648 10.7018 13.7016C10.2966 15.7384 10.5045 17.8496 11.2993 19.7682C12.094 21.6868 13.4398 23.3267 15.1665 24.4804C16.8932 25.6342 18.9233 26.25 21 26.25C22.4802 26.2466 23.9425 25.9271 25.2893 25.3129L33.6263 35.7341C32.2481 37.5322 31.5013 39.7345 31.5013 42C31.5013 44.2655 32.2481 46.4678 33.6263 48.2659L25.2893 58.6871C23.9425 58.0729 22.4802 57.7534 21 57.75C18.9233 57.75 16.8932 58.3658 15.1665 59.5196C13.4398 60.6733 12.094 62.3132 11.2993 64.2318C10.5045 66.1505 10.2966 68.2617 10.7018 70.2985C11.1069 72.3353 12.1069 74.2062 13.5754 75.6746C15.0438 77.1431 16.9148 78.1431 18.9516 78.5482C20.9884 78.9534 23.0996 78.7455 25.0182 77.9507C26.9368 77.156 28.5767 75.8102 29.7304 74.0835C30.8842 72.3568 31.5 70.3267 31.5 68.25C31.4923 65.9856 30.7457 63.7856 29.3738 61.9841L37.7108 51.5629C39.0998 52.1962 40.6112 52.5163 42.1377 52.5005C43.6643 52.4847 45.1687 52.1333 46.5443 51.4713C47.92 50.8093 49.1332 49.8528 50.098 48.6697C51.0628 47.4865 51.7556 46.1057 52.1273 44.625H63.3727C63.8671 46.5217 64.8833 48.2418 66.3061 49.59C67.7289 50.9382 69.5011 51.8604 71.4217 52.252C73.3423 52.6435 75.3342 52.4887 77.1712 51.8051C79.0081 51.1215 80.6167 49.9365 81.8141 48.3847C83.0114 46.8329 83.7497 44.9764 83.945 43.0261C84.1404 41.0758 83.7849 39.1098 82.919 37.3513C82.0532 35.5929 80.7116 34.1125 79.0466 33.0781C77.3817 32.0438 75.4601 31.4971 73.5 31.5ZM15.75 15.75C15.75 14.7117 16.0579 13.6966 16.6348 12.8333C17.2117 11.9699 18.0316 11.297 18.9909 10.8996C19.9502 10.5023 21.0058 10.3983 22.0242 10.6009C23.0426 10.8035 23.9781 11.3035 24.7123 12.0377C25.4465 12.7719 25.9466 13.7074 26.1491 14.7258C26.3517 15.7442 26.2477 16.7998 25.8504 17.7591C25.453 18.7184 24.7801 19.5383 23.9167 20.1152C23.0534 20.6921 22.0384 21 21 21C19.608 20.9986 18.2735 20.445 17.2892 19.4608C16.305 18.4765 15.7514 17.142 15.75 15.75ZM21 73.5C19.9617 73.5 18.9466 73.1921 18.0833 72.6152C17.2199 72.0383 16.547 71.2184 16.1496 70.2591C15.7523 69.2998 15.6483 68.2442 15.8509 67.2258C16.0535 66.2074 16.5535 65.2719 17.2877 64.5377C18.0219 63.8035 18.9574 63.3035 19.9758 63.1009C20.9942 62.8983 22.0498 63.0023 23.0091 63.3996C23.9684 63.797 24.7883 64.4699 25.3652 65.3333C25.9421 66.1966 26.25 67.2117 26.25 68.25C26.2486 69.642 25.695 70.9765 24.7108 71.9608C23.7265 72.9451 22.392 73.4986 21 73.5ZM42 47.25C40.9617 47.25 39.9466 46.9421 39.0833 46.3652C38.2199 45.7883 37.547 44.9684 37.1496 44.0091C36.7523 43.0498 36.6483 41.9942 36.8509 40.9758C37.0535 39.9574 37.5535 39.0219 38.2877 38.2877C39.0219 37.5535 39.9574 37.0535 40.9758 36.8509C41.9942 36.6483 43.0498 36.7523 44.0091 37.1496C44.9684 37.547 45.7883 38.2199 46.3652 39.0833C46.9421 39.9466 47.25 40.9617 47.25 42C47.2486 43.392 46.695 44.7265 45.7108 45.7108C44.7265 46.695 43.392 47.2486 42 47.25ZM73.5 47.25C72.4616 47.25 71.4466 46.9421 70.5833 46.3652C69.7199 45.7883 69.047 44.9684 68.6496 44.0091C68.2523 43.0498 68.1483 41.9942 68.3509 40.9758C68.5534 39.9574 69.0535 39.0219 69.7877 38.2877C70.5219 37.5535 71.4574 37.0535 72.4758 36.8509C73.4942 36.6483 74.5498 36.7523 75.5091 37.1496C76.4684 37.547 77.2883 38.2199 77.8652 39.0833C78.4421 39.9466 78.75 40.9617 78.75 42C78.7486 43.392 78.195 44.7265 77.2108 45.7108C76.2265 46.695 74.892 47.2486 73.5 47.25Z" fill="#2D78C8"/>
</svg>
