<svg width="11" height="10" viewBox="0 0 11 10" fill="none" xmlns="http://www.w3.org/2000/svg">
<g clip-path="url(#clip0_206_3952)">
<path d="M4.0859 5L3.29295 4.20705L3.2868 4.20091L3.28686 4.20085C3.1047 4.01225 3.00391 3.75965 3.00618 3.49745C3.00846 3.23526 3.11363 2.98444 3.29904 2.79904C3.48445 2.61363 3.73526 2.50846 3.99746 2.50618C4.25965 2.5039 4.51226 2.6047 4.70086 2.78686L4.70711 2.79289L4.70705 2.79295L5.5 3.58589L6.29295 2.79295L6.29909 2.7868L6.29915 2.78686C6.48775 2.6047 6.74035 2.5039 7.00255 2.50618C7.26474 2.50846 7.51556 2.61363 7.70096 2.79904C7.88637 2.98444 7.99154 3.23526 7.99382 3.49745C7.9961 3.75965 7.8953 4.01225 7.71314 4.20086L7.70711 4.20711L7.70705 4.20705L6.91411 5L7.70449 5.79038C7.7983 5.88191 7.87322 5.991 7.92496 6.11145M4.0859 5L7.92496 6.11145M4.0859 5L3.29295 5.79294L3.2929 5.79289L3.28686 5.79914C3.1047 5.98774 3.00391 6.24035 3.00618 6.50254C3.00846 6.76474 3.11363 7.01555 3.29904 7.20096L3.65259 6.84741L3.29904 7.20096C3.48445 7.38637 3.73526 7.49154 3.99746 7.49382C4.25965 7.49609 4.51226 7.3953 4.70086 7.21314L4.70091 7.2132L4.70705 7.20705L5.5 6.4141L6.29039 7.20449C6.38191 7.2983 6.491 7.37321 6.61145 7.42496C6.73346 7.47736 6.86468 7.50495 6.99746 7.5061C7.13024 7.50726 7.26192 7.48196 7.38481 7.43168L7.19548 6.96891L7.38481 7.43167C7.50771 7.38139 7.61936 7.30714 7.71325 7.21325C7.80714 7.11936 7.8814 7.00771 7.93168 6.88481L4.0859 5ZM7.92496 6.11145C7.97737 6.23345 8.00495 6.36467 8.00611 6.49746C8.00726 6.63023 7.98196 6.76191 7.93168 6.88481L7.92496 6.11145ZM2.99994 1.25839C3.73988 0.763972 4.60981 0.500055 5.49972 0.5C6.69284 0.501382 7.8367 0.975958 8.68037 1.81963C9.52411 2.66336 9.99869 3.80733 10 5.00055C9.99989 5.89037 9.73598 6.76019 9.24161 7.50006C8.74715 8.24008 8.04434 8.81686 7.22208 9.15746C6.39981 9.49805 5.49501 9.58716 4.6221 9.41353C3.74918 9.2399 2.94736 8.81131 2.31802 8.18198C1.68869 7.55264 1.2601 6.75082 1.08647 5.8779C0.912835 5.00499 1.00195 4.10019 1.34254 3.27792C1.68314 2.45566 2.25991 1.75285 2.99994 1.25839Z" fill="#9CA3AF" stroke="#9CA3AF"/>
</g>
<defs>
<clipPath id="clip0_206_3952">
<rect width="10" height="10" fill="white" transform="translate(0.5)"/>
</clipPath>
</defs>
</svg>
