<svg width="12" height="13" viewBox="0 0 12 13" fill="none" xmlns="http://www.w3.org/2000/svg">
<path d="M7.20988 6.7396L11.7388 2.03684C11.8205 1.95488 11.8857 1.85684 11.9305 1.74844C11.9754 1.64004 11.999 1.52346 12 1.40548C12.001 1.28751 11.9793 1.17052 11.9363 1.06132C11.8933 0.952133 11.8297 0.852931 11.7494 0.769509C11.669 0.686087 11.5735 0.620114 11.4684 0.57544C11.3632 0.530766 11.2505 0.508286 11.1369 0.509311C11.0233 0.510336 10.911 0.534846 10.8066 0.581411C10.7023 0.627976 10.6078 0.695663 10.5289 0.780522L6 5.48328L1.47109 0.780522C1.30972 0.618677 1.09358 0.529122 0.869234 0.531147C0.644888 0.533171 0.430283 0.626612 0.27164 0.791345C0.112997 0.956078 0.0230102 1.17892 0.0210607 1.41188C0.0191112 1.64484 0.105355 1.86927 0.261217 2.03684L4.79012 6.7396L0.261217 11.4424C0.179495 11.5243 0.11431 11.6224 0.0694668 11.7308C0.0246235 11.8392 0.00101956 11.9557 3.23065e-05 12.0737C-0.000954946 12.1917 0.020694 12.3087 0.0637164 12.4179C0.106739 12.5271 0.170273 12.6263 0.250611 12.7097C0.33095 12.7931 0.426484 12.8591 0.531639 12.9038C0.636794 12.9484 0.749465 12.9709 0.863076 12.9699C0.976687 12.9689 1.08896 12.9444 1.19336 12.8978C1.29775 12.8512 1.39216 12.7835 1.47109 12.6987L6 7.99592L10.5289 12.6987C10.6903 12.8605 10.9064 12.9501 11.1308 12.9481C11.3551 12.946 11.5697 12.8526 11.7284 12.6879C11.887 12.5231 11.977 12.3003 11.9789 12.0673C11.9809 11.8344 11.8946 11.6099 11.7388 11.4424L7.20988 6.7396Z" fill="#9CA3AF"/>
</svg>
