<svg width="15" height="14" viewBox="0 0 15 14" fill="none" xmlns="http://www.w3.org/2000/svg">
<path d="M5.31265 3.5V0.0910001C4.95685 0.185485 4.63225 0.366004 4.36987 0.6153L2.30785 2.5949C2.04817 2.8468 1.86014 3.15843 1.76172 3.5H5.31265Z" fill="#374151"/>
<path d="M11.9238 0H6.77094V3.5C6.77094 3.8713 6.6173 4.2274 6.34381 4.48995C6.07033 4.7525 5.69941 4.9 5.31265 4.9H1.66693V7.7H7.0728L6.29991 6.9573C6.23027 6.89273 6.17472 6.81549 6.13651 6.73008C6.09829 6.64468 6.07818 6.55283 6.07734 6.45988C6.0765 6.36694 6.09495 6.27476 6.13161 6.18873C6.16827 6.10271 6.22241 6.02455 6.29087 5.95882C6.35933 5.8931 6.44074 5.84112 6.53035 5.80592C6.61996 5.77073 6.71598 5.75302 6.81279 5.75382C6.90961 5.75463 7.00528 5.77394 7.09424 5.81063C7.1832 5.84732 7.26366 5.90064 7.33092 5.9675L9.34919 7.9051C9.48588 8.03637 9.56267 8.21439 9.56267 8.4C9.56267 8.58562 9.48588 8.76363 9.34919 8.8949L7.33092 10.8325C7.1934 10.96 7.00922 11.0306 6.81804 11.029C6.62686 11.0274 6.44398 10.9538 6.30879 10.824C6.1736 10.6942 6.09692 10.5186 6.09526 10.3351C6.0936 10.1515 6.16709 9.97472 6.29991 9.8427L7.0728 9.1H1.66693V12.6C1.66088 12.965 1.80588 13.3173 2.07011 13.5798C2.33434 13.8422 2.69622 13.9934 3.07637 14H11.9238C12.3039 13.9934 12.6658 13.8422 12.9301 13.5798C13.1943 13.3173 13.3393 12.965 13.3332 12.6V1.4C13.3393 1.03504 13.1943 0.68267 12.9301 0.420209C12.6658 0.157749 12.3039 0.00662745 11.9238 0Z" fill="#374151"/>
</svg>
