<svg width="15" height="14" viewBox="0 0 15 14" fill="none" xmlns="http://www.w3.org/2000/svg">
<g clip-path="url(#clip0_248_1040)">
<path d="M12.4 12.6C12.4 12.6 2.6 12.2136 2.6 12.6C2.6 12.9864 2.8926 13.3 3.2531 13.3H11.7462C12.1074 13.3 12.4 12.9864 12.4 12.6Z" fill="#374151"/>
<path d="M5.4 3.5V0.0910001C5.0626 0.1876 4.7497 0.3598 4.4949 0.6153L2.5153 2.5949C2.2598 2.8497 2.0876 3.1626 1.991 3.5H5.4Z" fill="#374151"/>
<path d="M13.8 4.9H13.0496C13.0804 4.8209 13.1 4.7369 13.1 4.6473V1.4C13.1 0.6279 12.4931 0 11.7469 0H6.8V3.5C6.8 4.2721 6.1721 4.9 5.4 4.9H1.2C0.8136 4.9 0.5 5.2136 0.5 5.6V11.9C0.5 12.2864 0.8136 12.6 1.2 12.6H1.9C1.9 13.3721 2.5069 14 3.2531 14H11.7469C12.4931 14 13.1 13.3721 13.1 12.6H13.8C14.1864 12.6 14.5 12.2864 14.5 11.9V5.6C14.5 5.2136 14.1864 4.9 13.8 4.9ZM3.7529 9.8H4.4655C4.8519 9.8 5.1655 10.1136 5.1655 10.5C5.1655 10.8864 4.8519 11.2 4.4655 11.2H3.7529C2.7316 11.2 1.9 10.3691 1.9 9.3471V8.1529C1.9 7.1316 2.7316 6.3 3.7529 6.3H4.4655C4.8519 6.3 5.1655 6.6136 5.1655 7C5.1655 7.3864 4.8519 7.7 4.4655 7.7H3.7529C3.503 7.7 3.3 7.903 3.3 8.1529V9.3471C3.3 9.597 3.503 9.8 3.7529 9.8ZM9.2612 10.2025C9.0302 10.8647 8.4926 11.2 7.6645 11.2H6.8763C6.4899 11.2 6.1763 10.8864 6.1763 10.5C6.1763 10.1136 6.4899 9.8 6.8763 9.8H7.6645C7.8752 9.8 7.9347 9.7685 7.9368 9.7671C7.9585 9.6866 7.9725 9.6187 7.9557 9.5914C7.9291 9.5494 7.8213 9.4822 7.6659 9.4654L7.29 9.4241C6.4087 9.3275 5.7752 8.5603 5.848 7.6755C5.9194 6.8166 6.6453 6.2041 7.5014 6.1789L8.1734 6.1929C8.5598 6.2013 8.8664 6.5212 8.8587 6.9076C8.8503 7.2947 8.5185 7.6132 8.144 7.5929L7.4818 7.5789H7.4804C7.3593 7.5789 7.2529 7.6699 7.2431 7.791C7.2326 7.9128 7.3201 8.0185 7.4419 8.0318L7.8171 8.0731C8.3785 8.134 8.872 8.4224 9.1387 8.8438C9.3872 9.2358 9.4299 9.7181 9.2612 10.2025ZM13.0657 7.217L11.9758 10.5574C11.882 10.8458 11.6132 11.0404 11.3101 11.0404C11.308 11.0404 11.3052 11.0404 11.3024 11.0404C10.9965 11.0369 10.7284 10.836 10.6402 10.5434L9.6301 7.203C9.5181 6.8327 9.7274 6.4421 10.097 6.3301C10.468 6.2181 10.8579 6.4274 10.9699 6.797L11.3353 8.0059L11.7343 6.783C11.854 6.4162 12.2481 6.2146 12.617 6.3343C12.9845 6.4547 13.1854 6.8495 13.0657 7.217Z" fill="#374151"/>
</g>
<defs>
<clipPath id="clip0_248_1040">
<rect width="14" height="14" fill="white" transform="translate(0.5)"/>
</clipPath>
</defs>
</svg>
