<?xml version="1.0" encoding="UTF-8"?><svg id="Layer_1" xmlns="http://www.w3.org/2000/svg" viewBox="0 0 627 602"><path d="M1.13,49.72h624.73v515.28c0,19.87-16.13,36-36,36H11.13c-5.52,0-10-4.48-10-10V49.72h0Z" style="fill:#0d0010; stroke-width:0px;"/><rect x="51" y="101" width="75" height="450" rx="6" ry="6" style="fill:#280330; stroke:#c911ee; stroke-miterlimit:10; stroke-width:2px;"/><path d="M177.48,100.9h7.96v2.27h-5.58v2.88h5.36v2.27h-5.36v2.92h5.8v2.27h-8.17v-12.6Z" style="fill:#fff; stroke-width:0px;"/><path d="M191.26,107.09c0,.29.15.5.45.62.3.13.85.23,1.64.31.91.1,1.66.37,2.23.82.58.45.86,1.08.86,1.88v.11c0,.89-.32,1.6-.97,2.12s-1.56.79-2.74.79c-.7,0-1.29-.09-1.78-.27-.49-.18-.9-.41-1.22-.68-.32-.27-.57-.57-.75-.9-.17-.33-.29-.65-.35-.96l2.09-.68c.1.38.3.72.6,1.01.31.29.78.43,1.41.43.56,0,.95-.09,1.16-.26s.32-.36.32-.57c0-.12-.03-.23-.08-.33-.05-.1-.15-.2-.3-.29-.14-.09-.34-.17-.58-.23-.25-.06-.56-.11-.93-.14-1.01-.08-1.81-.34-2.4-.78-.59-.44-.89-1.08-.89-1.94v-.11c0-.44.1-.83.29-1.17.19-.34.44-.62.76-.86s.67-.41,1.08-.53c.41-.12.83-.18,1.26-.18.56,0,1.05.07,1.47.21.41.14.76.32,1.05.54.29.22.52.47.7.74.18.27.32.53.41.78l-2.05.83c-.11-.32-.29-.58-.56-.77-.26-.19-.61-.28-1.03-.28-.38,0-.67.07-.86.21-.19.14-.29.31-.29.51Z" style="fill:#fff; stroke-width:0px;"/><path d="M199.18,104.57h2.65v-3.67h2.27v3.67h3.22v2.16h-3.22v4.07c0,.36.16.54.49.54h2.41v2.16h-3.78c-.41,0-.74-.13-1-.4-.26-.26-.39-.6-.39-1.01v-5.36h-2.65v-2.16Z" style="fill:#fff; stroke-width:0px;"/><path d="M210.61,111.34h3.02v-4.61h-2.81v-2.16h5.08v6.77h2.59v2.16h-7.88v-2.16ZM216.46,101.93c0,.24-.04.46-.14.68-.09.21-.21.39-.37.54-.16.15-.34.27-.55.36s-.43.14-.66.14c-.24,0-.46-.05-.67-.14s-.38-.21-.54-.36c-.16-.15-.28-.33-.37-.54-.09-.21-.13-.44-.13-.68s.04-.46.13-.67c.09-.21.21-.39.37-.54.16-.15.34-.27.54-.36s.43-.14.67-.14c.23,0,.45.05.66.14s.39.21.55.36c.16.15.28.33.37.54.09.21.14.43.14.67Z" style="fill:#fff; stroke-width:0px;"/><path d="M230.43,113.5h-2.27v-6.26c0-.25-.06-.44-.19-.57s-.29-.19-.5-.19c-.24,0-.43.07-.57.21-.14.14-.21.36-.21.65v6.16h-2.27v-6.26c0-.25-.07-.44-.21-.57-.14-.13-.3-.19-.5-.19-.22,0-.4.07-.54.21-.14.14-.22.36-.22.65v6.16h-2.27v-8.93h2.27v.86h.32c.07-.32.24-.59.49-.8.26-.21.6-.31,1.02-.31.4,0,.73.11,1.01.31.28.21.46.48.56.8h.32c.1-.32.3-.59.6-.8.31-.21.69-.31,1.14-.31.6,0,1.08.2,1.44.6.36.4.54.96.54,1.67v6.91Z" style="fill:#fff; stroke-width:0px;"/><path d="M238.26,112.2c-.24.56-.58.96-1.01,1.2-.43.23-.94.35-1.51.35-.54,0-1.05-.1-1.52-.31-.47-.2-.89-.5-1.25-.9-.36-.4-.65-.88-.85-1.44-.21-.56-.31-1.21-.31-1.93v-.29c0-.71.1-1.34.31-1.91s.48-1.04.83-1.44.75-.7,1.21-.91c.46-.21.96-.31,1.49-.31.64,0,1.15.11,1.54.32.39.21.7.55.93,1.01h.32v-1.08h2.27v6.23c0,.36.16.54.49.54h.34v2.16h-1.55c-.41,0-.74-.12-1-.36-.26-.24-.39-.55-.39-.94h-.32ZM236.25,111.59c.66,0,1.19-.22,1.58-.66.4-.44.59-1.04.59-1.79v-.22c0-.76-.2-1.35-.59-1.79-.4-.44-.92-.66-1.58-.66s-1.19.22-1.58.66c-.4.44-.59,1.04-.59,1.79v.22c0,.76.2,1.35.59,1.79.4.44.92.66,1.58.66Z" style="fill:#fff; stroke-width:0px;"/><path d="M243.25,104.57h2.65v-3.67h2.27v3.67h3.22v2.16h-3.22v4.07c0,.36.16.54.49.54h2.41v2.16h-3.78c-.41,0-.74-.13-1-.4-.26-.26-.39-.6-.39-1.01v-5.36h-2.65v-2.16Z" style="fill:#fff; stroke-width:0px;"/><path d="M256.51,109.77c.01.26.08.51.19.73.11.22.27.41.47.58.2.16.43.29.68.38.26.09.53.13.82.13.56,0,1-.1,1.3-.3.3-.2.52-.43.65-.71l1.94,1.08c-.11.23-.26.46-.45.71s-.44.47-.75.67-.68.37-1.12.5c-.44.13-.95.2-1.54.2-.67,0-1.28-.11-1.84-.32-.55-.22-1.03-.53-1.43-.94-.4-.41-.71-.91-.94-1.49-.22-.59-.33-1.25-.33-2v-.11c0-.68.12-1.31.35-1.87.23-.56.55-1.04.96-1.44.41-.4.88-.71,1.43-.93.55-.22,1.13-.33,1.75-.33.77,0,1.43.13,1.98.4.55.27,1.01.61,1.37,1.03.36.41.62.87.79,1.37.17.5.25.98.25,1.45v1.21h-6.55ZM258.66,106.37c-.58,0-1.04.15-1.4.44-.36.29-.59.63-.7,1.02h4.21c-.07-.42-.3-.77-.67-1.04s-.85-.41-1.43-.41Z" style="fill:#fff; stroke-width:0px;"/><path d="M268.38,107.09c0,.29.15.5.45.62.3.13.85.23,1.64.31.91.1,1.66.37,2.23.82.58.45.86,1.08.86,1.88v.11c0,.89-.32,1.6-.97,2.12s-1.56.79-2.74.79c-.7,0-1.29-.09-1.78-.27-.49-.18-.9-.41-1.22-.68-.32-.27-.57-.57-.75-.9-.17-.33-.29-.65-.35-.96l2.09-.68c.1.38.3.72.6,1.01.31.29.78.43,1.41.43.56,0,.95-.09,1.16-.26s.32-.36.32-.57c0-.12-.03-.23-.08-.33-.05-.1-.15-.2-.3-.29-.14-.09-.34-.17-.58-.23-.25-.06-.56-.11-.93-.14-1.01-.08-1.81-.34-2.4-.78-.59-.44-.89-1.08-.89-1.94v-.11c0-.44.1-.83.29-1.17.19-.34.44-.62.76-.86s.67-.41,1.08-.53c.41-.12.83-.18,1.26-.18.56,0,1.05.07,1.47.21.41.14.76.32,1.05.54.29.22.52.47.7.74.18.27.32.53.41.78l-2.05.83c-.11-.32-.29-.58-.56-.77-.26-.19-.61-.28-1.03-.28-.38,0-.67.07-.86.21-.19.14-.29.31-.29.51Z" style="fill:#fff; stroke-width:0px;"/><path d="M626,11v40H1v-14C1,17.12,17.12,1,37,1h579c5.52,0,10,4.48,10,10Z" style="fill:#c911ee; stroke:#c911ee; stroke-miterlimit:10; stroke-width:2px;"/><path d="M626,51v514c0,19.88-16.12,36-36,36H11c-5.52,0-10-4.48-10-10V51h625Z" style="fill:none; stroke:#c911ee; stroke-miterlimit:10; stroke-width:2px;"/><circle cx="57.25" cy="26" r="6.25" style="fill:#280330; stroke:#280330; stroke-miterlimit:10; stroke-width:2px;"/><circle cx="94.75" cy="26" r="6.25" style="fill:#280330; stroke:#280330; stroke-miterlimit:10; stroke-width:2px;"/><circle cx="132.25" cy="26" r="6.25" style="fill:#280330; stroke:#280330; stroke-miterlimit:10; stroke-width:2px;"/><rect x="176" y="126" width="187.5" height="37.5" rx="6" ry="6" style="fill:#280330; stroke:#c911ee; stroke-miterlimit:10; stroke-width:2px;"/><rect x="388.5" y="126" width="187.5" height="37.5" rx="6" ry="6" style="fill:#280330; stroke:#c911ee; stroke-miterlimit:10; stroke-width:2px;"/><rect x="176" y="188.5" width="312.5" height="312.5" rx="6" ry="6" style="fill:#0d0010; stroke:#c911ee; stroke-miterlimit:10; stroke-width:2px;"/><line x1="238.5" y1="238.5" x2="238.5" y2="501" style="fill:none; stroke:#c911ee; stroke-miterlimit:10; stroke-width:2px;"/><path d="M388.5,338.5h37.5v156.5c0,3.31-2.69,6-6,6h-25.5c-3.31,0-6-2.69-6-6v-156.5h0Z" transform="translate(814.5 839.5) rotate(180)" style="fill:none; stroke:#c911ee; stroke-miterlimit:10; stroke-width:2px;"/><path d="M351,376h37.5v119c0,3.31-2.69,6-6,6h-25.5c-3.31,0-6-2.69-6-6v-119h0Z" transform="translate(739.5 877) rotate(180)" style="fill:none; stroke:#c911ee; stroke-miterlimit:10; stroke-width:2px;"/><path d="M313.5,413.5h37.5v81.5c0,3.31-2.69,6-6,6h-25.5c-3.31,0-6-2.69-6-6v-81.5h0Z" transform="translate(664.5 914.5) rotate(180)" style="fill:none; stroke:#c911ee; stroke-miterlimit:10; stroke-width:2px;"/><path d="M276,451h37.5v44c0,3.31-2.69,6-6,6h-25.5c-3.31,0-6-2.69-6-6v-44h0Z" transform="translate(589.5 952) rotate(180)" style="fill:none; stroke:#c911ee; stroke-miterlimit:10; stroke-width:2px;"/><path d="M238.5,476h37.5v19c0,3.31-2.69,6-6,6h-25.5c-3.31,0-6-2.69-6-6v-19h0Z" transform="translate(514.5 977) rotate(180)" style="fill:none; stroke:#c911ee; stroke-miterlimit:10; stroke-width:2px;"/><rect x="388.5" y="451" width="25" height="175" rx="12.5" ry="12.5" transform="translate(-137.5 939.5) rotate(-90)" style="fill:#280330; stroke:#c911ee; stroke-miterlimit:10; stroke-width:2px;"/><rect x="219.88" y="482.38" width="25" height="112.24" rx="12.5" ry="12.5" transform="translate(-306.12 770.88) rotate(-90)" style="fill:#280330; stroke:#c911ee; stroke-miterlimit:10; stroke-width:2px;"/><line x1="176" y1="238.5" x2="488.5" y2="238.5" style="fill:none; stroke:#c911ee; stroke-miterlimit:10; stroke-width:2px;"/><path d="M199.59,377.41l-9.91,9.91c-.75.75-1.77,1.17-2.83,1.17h-19.34c-2.21,0-4-1.79-4-4v-17c0-2.21,1.79-4,4-4h19.34c1.06,0,2.08.42,2.83,1.17l9.91,9.91c.78.78.78,2.05,0,2.83Z" style="fill:#0d0010; stroke:lime; stroke-miterlimit:10; stroke-width:2px;"/><path d="M182,188.5h300.5c3.31,0,6,2.69,6,6v44H176v-44c0-3.31,2.69-6,6-6Z" style="fill:#280330; stroke:#c911ee; stroke-miterlimit:10; stroke-width:2px;"/><path d="M394.5,213.5h25.5c3.31,0,6,2.69,6,6v19h-37.5v-19c0-3.31,2.69-6,6-6Z" style="fill:#c911ee; stroke:#c911ee; stroke-miterlimit:10; stroke-width:2px;"/><path d="M238.5,188.5h150v19c0,3.31-2.69,6-6,6h-138c-3.31,0-6-2.69-6-6v-19h0Z" style="fill:#c911ee; stroke:#c911ee; stroke-miterlimit:10; stroke-width:2px;"/><line x1="426" y1="238.5" x2="426" y2="501" style="fill:none; stroke:#c911ee; stroke-miterlimit:10; stroke-width:2px;"/><path d="M238.5,238.5h37.5v169c0,3.31-2.69,6-6,6h-25.5c-3.31,0-6-2.69-6-6v-169h0Z" style="fill:none; stroke:lime; stroke-miterlimit:10; stroke-width:2px;"/><path d="M276,238.5h37.5v131.5c0,3.31-2.69,6-6,6h-25.5c-3.31,0-6-2.69-6-6v-131.5h0Z" style="fill:none; stroke:lime; stroke-miterlimit:10; stroke-width:2px;"/><path d="M313.5,238.5h37.5v94c0,3.31-2.69,6-6,6h-25.5c-3.31,0-6-2.69-6-6v-94h0Z" style="fill:none; stroke:lime; stroke-miterlimit:10; stroke-width:2px;"/><path d="M351,238.5h37.5v56.5c0,3.31-2.69,6-6,6h-25.5c-3.31,0-6-2.69-6-6v-56.5h0Z" style="fill:none; stroke:lime; stroke-miterlimit:10; stroke-width:2px;"/><path d="M388.5,238.5h37.5v31.5c0,3.31-2.69,6-6,6h-25.5c-3.31,0-6-2.69-6-6v-31.5h0Z" style="fill:none; stroke:lime; stroke-miterlimit:10; stroke-width:2px;"/></svg>