<?xml version="1.0" encoding="UTF-8"?><svg id="Layer_1" xmlns="http://www.w3.org/2000/svg" viewBox="0 0 627 602"><path d="M1,50.72h624.73v515.28c0,19.87-16.13,36-36,36H11c-5.52,0-10-4.48-10-10V50.72h0Z" style="fill:#0d0010; stroke-width:0px;"/><rect x="51" y="173" width="225" height="306" rx="4.12" ry="4.12" style="fill:#0d0010; stroke:#0d0010; stroke-miterlimit:10; stroke-width:2px;"/><g style="opacity:.4;"><rect x="51" y="173" width="225" height="306" rx="4.12" ry="4.12" style="fill:#280330; stroke:#c911ee; stroke-miterlimit:10; stroke-width:2px;"/><rect x="154.5" y="114.5" width="18" height="189" rx="8.79" ry="8.79" transform="translate(372.5 45.5) rotate(90)" style="fill:#280330; stroke:#c911ee; stroke-miterlimit:10; stroke-width:2px;"/><rect x="154.5" y="141.5" width="18" height="189" rx="8.79" ry="8.79" transform="translate(399.5 72.5) rotate(90)" style="fill:#280330; stroke:#c911ee; stroke-miterlimit:10; stroke-width:2px;"/><rect x="191.04" y="268.04" width="7.92" height="36" rx="3.96" ry="3.96" transform="translate(481.04 91.04) rotate(90)" style="fill:#c911ee; stroke:#c911ee; stroke-miterlimit:10; stroke-width:2px;"/><rect x="123" y="380" width="27" height="117" rx="4.32" ry="4.32" transform="translate(575 302) rotate(90)" style="fill:#280330; stroke:#c911ee; stroke-miterlimit:10; stroke-width:2px;"/><rect x="217.5" y="420.5" width="27" height="36" rx="4.32" ry="4.32" transform="translate(669.5 207.5) rotate(90)" style="fill:#280330; stroke:#c911ee; stroke-miterlimit:10; stroke-width:2px;"/><polyline points="240 389 87 389 87 281" style="fill:none; stroke:#c911ee; stroke-linecap:round; stroke-linejoin:round; stroke-width:2px;"/><polyline points="96 371 114 353 132 362 150 308 168 362 177 335 195 353 213 335 222 335 240 308" style="fill:none; stroke:lime; stroke-linecap:round; stroke-linejoin:round; stroke-width:2px;"/><line x1="195" y1="389" x2="195" y2="386" style="fill:none; stroke:#c911ee; stroke-linecap:round; stroke-linejoin:round; stroke-width:2px;"/><line x1="195" y1="380.4" x2="195" y2="304.8" style="fill:none; stroke:#c911ee; stroke-dasharray:0 0 5.6 5.6; stroke-linecap:round; stroke-linejoin:round; stroke-width:2px;"/><line x1="195" y1="302" x2="195" y2="299" style="fill:none; stroke:#c911ee; stroke-linecap:round; stroke-linejoin:round; stroke-width:2px;"/></g><rect x="138.5" y="147.5" width="262.5" height="357" rx="4.8" ry="4.8" style="fill:#0d0010; stroke:#0d0010; stroke-miterlimit:10; stroke-width:2px;"/><g style="opacity:.6;"><rect x="138.5" y="147.5" width="262.5" height="357" rx="5" ry="5" style="fill:#280330; stroke:#c911ee; stroke-miterlimit:10; stroke-width:2px;"/><rect x="259.25" y="79.25" width="21" height="220.5" rx="10.26" ry="10.26" transform="translate(459.25 -80.25) rotate(90)" style="fill:#280330; stroke:#c911ee; stroke-miterlimit:10; stroke-width:2px;"/><rect x="259.25" y="110.75" width="21" height="220.5" rx="10.26" ry="10.26" transform="translate(490.75 -48.75) rotate(90)" style="fill:#280330; stroke:#c911ee; stroke-miterlimit:10; stroke-width:2px;"/><rect x="301.88" y="258.38" width="9.24" height="42" rx="4.62" ry="4.62" transform="translate(585.88 -27.12) rotate(90)" style="fill:#c911ee; stroke:#c911ee; stroke-miterlimit:10; stroke-width:2px;"/><rect x="222.5" y="389" width="31.5" height="136.5" rx="5.04" ry="5.04" transform="translate(695.5 219) rotate(90)" style="fill:#280330; stroke:#c911ee; stroke-miterlimit:10; stroke-width:2px;"/><rect x="332.75" y="436.25" width="31.5" height="42" rx="5.04" ry="5.04" transform="translate(805.75 108.75) rotate(90)" style="fill:#280330; stroke:#c911ee; stroke-miterlimit:10; stroke-width:2px;"/><polyline points="359 399.5 180.5 399.5 180.5 273.5" style="fill:none; stroke:#c911ee; stroke-linecap:round; stroke-linejoin:round; stroke-width:2px;"/><polyline points="191 378.5 212 357.5 233 368 254 305 275 368 285.5 336.5 306.5 357.5 327.5 336.5 338 336.5 359 305" style="fill:none; stroke:lime; stroke-linecap:round; stroke-linejoin:round; stroke-width:2px;"/><line x1="306.5" y1="399.5" x2="306.5" y2="396.5" style="fill:none; stroke:#c911ee; stroke-linecap:round; stroke-linejoin:round; stroke-width:2px;"/><line x1="306.5" y1="390.68" x2="306.5" y2="300.41" style="fill:none; stroke:#c911ee; stroke-dasharray:0 0 5.82 5.82; stroke-linecap:round; stroke-linejoin:round; stroke-width:2px;"/><line x1="306.5" y1="297.5" x2="306.5" y2="294.5" style="fill:none; stroke:#c911ee; stroke-linecap:round; stroke-linejoin:round; stroke-width:2px;"/></g><path d="M626,11v40H1v-14C1,17.12,17.12,1,37,1h579c5.52,0,10,4.48,10,10Z" style="fill:#c911ee; stroke:#c911ee; stroke-miterlimit:10; stroke-width:2px;"/><path d="M626,51v514c0,19.88-16.12,36-36,36H11c-5.52,0-10-4.48-10-10V51h625Z" style="fill:none; stroke:#c911ee; stroke-miterlimit:10; stroke-width:2px;"/><circle cx="57.25" cy="26" r="6.25" style="fill:#280330; stroke:#280330; stroke-miterlimit:10; stroke-width:2px;"/><circle cx="94.75" cy="26" r="6.25" style="fill:#280330; stroke:#280330; stroke-miterlimit:10; stroke-width:2px;"/><circle cx="132.25" cy="26" r="6.25" style="fill:#280330; stroke:#280330; stroke-miterlimit:10; stroke-width:2px;"/><rect x="263.5" y="113.5" width="312.5" height="425" rx="6" ry="6" style="fill:#280330; stroke:#c911ee; stroke-miterlimit:10; stroke-width:2px;"/><rect x="407.25" y="32.25" width="25" height="262.5" rx="12.21" ry="12.21" transform="translate(583.25 -256.25) rotate(90)" style="fill:#280330; stroke:#c911ee; stroke-miterlimit:10; stroke-width:2px;"/><rect x="407.25" y="69.75" width="25" height="262.5" rx="12.21" ry="12.21" transform="translate(620.75 -218.75) rotate(90)" style="fill:#280330; stroke:#c911ee; stroke-miterlimit:10; stroke-width:2px;"/><rect x="458" y="245.5" width="11" height="50" rx="5.5" ry="5.5" transform="translate(734 -193) rotate(90)" style="fill:#c911ee; stroke:#c911ee; stroke-miterlimit:10; stroke-width:2px;"/><rect x="363.5" y="401" width="37.5" height="162.5" rx="6" ry="6" transform="translate(864.5 100) rotate(90)" style="fill:#280330; stroke:#c911ee; stroke-miterlimit:10; stroke-width:2px;"/><rect x="494.75" y="457.25" width="37.5" height="50" rx="6" ry="6" transform="translate(995.75 -31.25) rotate(90)" style="fill:#280330; stroke:#c911ee; stroke-miterlimit:10; stroke-width:2px;"/><polyline points="526 413.5 313.5 413.5 313.5 263.5" style="fill:none; stroke:#c911ee; stroke-linecap:round; stroke-linejoin:round; stroke-width:2px;"/><polyline points="326 388.5 351 363.5 376 376 401 301 426 376 438.5 338.5 463.5 363.5 488.5 338.5 501 338.5 526 301" style="fill:none; stroke:lime; stroke-linecap:round; stroke-linejoin:round; stroke-width:2px;"/><line x1="463.5" y1="413.5" x2="463.5" y2="410.5" style="fill:none; stroke:#c911ee; stroke-linecap:round; stroke-linejoin:round; stroke-width:2px;"/><line x1="463.5" y1="404.24" x2="463.5" y2="294.63" style="fill:none; stroke:#c911ee; stroke-dasharray:0 0 6.26 6.26; stroke-linecap:round; stroke-linejoin:round; stroke-width:2px;"/><line x1="463.5" y1="291.5" x2="463.5" y2="288.5" style="fill:none; stroke:#c911ee; stroke-linecap:round; stroke-linejoin:round; stroke-width:2px;"/></svg>