<?xml version="1.0" encoding="UTF-8"?><svg id="Layer_1" xmlns="http://www.w3.org/2000/svg" viewBox="0 0 627 602"><path d="M1,49.72h624.73v515.28c0,19.87-16.13,36-36,36H11c-5.52,0-10-4.48-10-10V49.72h0Z" style="fill:#0d0010; stroke-width:0px;"/><path d="M626,11v40H1v-14C1,17.12,17.12,1,37,1h579c5.52,0,10,4.48,10,10Z" style="fill:#c911ee; stroke:#c911ee; stroke-miterlimit:10; stroke-width:2px;"/><path d="M626,51v514c0,19.88-16.12,36-36,36H11c-5.52,0-10-4.48-10-10V51h625Z" style="fill:none; stroke:#c911ee; stroke-miterlimit:10; stroke-width:2px;"/><circle cx="57.25" cy="26" r="6.25" style="fill:#280330; stroke:#280330; stroke-miterlimit:10; stroke-width:2px;"/><circle cx="94.75" cy="26" r="6.25" style="fill:#280330; stroke:#280330; stroke-miterlimit:10; stroke-width:2px;"/><circle cx="132.25" cy="26" r="6.25" style="fill:#280330; stroke:#280330; stroke-miterlimit:10; stroke-width:2px;"/><rect x="288.5" y="301" width="50" height="50" rx="6" ry="6" transform="translate(639.5 12.5) rotate(90)" style="fill:#c911ee; stroke:#c911ee; stroke-miterlimit:10; stroke-width:2px;"/><path d="M353.66,371.26c-8.06,3.27-17.97,2.78-26.67,2.89-11.41-.02-22.49.05-33.9-.04-20.94-.66-27.59-2.61-28.33-25.12-.29-13.5-.06-26.51-.13-40.03,0-4.67.07-9.52.62-14.15,1.24-12.54,5.67-16.96,18.2-18.2,15.02-1.27,29.93-.35,44.96-.62,8.88.28,23.02-.79,29.42,5.94,2.93,3.34,3.85,8.55,4.39,13.28.53,4.71.57,9.61.57,14.36,0,9.83,0,19.03,0,28.79-.35,9.69,1.46,28.36-8.98,32.83l-.14.06Z" style="fill:none; stroke:#c911ee; stroke-miterlimit:10; stroke-width:2px;"/><path d="M199.59,252.32c9.94-7.16,23.06-6.62,34.78-6.69,18.31.27,36.69,1.63,54.96.72,8.33-.39,16.66-1.17,24.93-2.19,27.16-3.78,54.62-5.24,82-3.44,12.17.82,26.18,3.05,33.48,13.91,18.96,29.36-19.24,100.4-36.44,126.92-7.94,12.09-19.33,22.9-33.93,25.66-27.08,4.92-54.72-7.17-81.47-11.92-14.04-3.11-29.26-5.97-40.32-15.78-8.66-7.74-13.03-18.88-16.52-29.72-4.69-15.45-10.06-30.58-16.61-45.3-5.83-15.05-21.4-39.09-5.02-52.05l.15-.12Z" style="fill:none; opacity:.8; stroke:#c911ee; stroke-miterlimit:10; stroke-width:2px;"/><path d="M124.67,225.39c7.9-6.55,17.74-8.29,28.43-9.25,51.4-1.87,102.25,8.4,153.06-1.54,16.95-2.87,33.79-6.32,50.9-8.16,31.94-3.47,64.14-.89,96.2.07,6.4.31,12.39.66,18.87,1.68,21.89,2.99,34.05,14.98,33.35,37.36-3.79,56.45-42.58,102.01-74.69,146.13-11.25,15.13-22.73,30.72-38.8,41.1-38.41,24.35-84.82,1.63-123.95-11.53-22.27-8.13-45.96-15.21-63.99-31.33-8.27-7.38-14.69-16.5-20.33-25.99-14.41-25.67-28.34-51.74-44.77-76.19-10.28-16.88-34.03-44.35-14.43-62.2l.14-.13Z" style="fill:none; opacity:.7; stroke:#c911ee; stroke-miterlimit:10; stroke-width:2px;"/><path d="M51.67,195.65c14.74-9.67,33.68-9.17,50.96-9.37,42.11.3,84.04,5.18,126.15,6.26,12.5.24,24.98-.13,37.43-1.39,25.89-2.54,51.04-9.49,76.5-14.46,58.4-12.92,118.1-3.14,177.14-3.43,20.03.16,46.17,2.98,53.27,25.11,2.66,7.84,2.63,16.01,1.53,24.09-15.57,83.27-77.65,139.34-127.32,203.29-19.59,24.35-43.52,48.98-76.18,52.59-29.32,3.34-57.88-7.77-84.78-18.1-45.77-18.99-96.55-35.45-129.13-74.5-8.4-10.01-15.84-20.67-23.28-31.39-24.12-35.09-48.75-70.06-75.68-103.04-2.77-3.53-5.43-7.11-7.92-10.98-9.38-14.09-15.49-33.38,1.16-44.56l.16-.11Z" style="fill:none; opacity:.6; stroke:#c911ee; stroke-miterlimit:10; stroke-width:2px;"/><path d="M626,145.21v99.22c-23.55,52.91-60.36,99.66-101.08,140.75-6.18,6.55-12.31,13.15-18.26,19.86-37.04,40.36-67.23,98.47-126.13,108.67-24.29,3.83-48.34-3.34-70.84-11.84-65-26.26-135.06-51.83-184.13-103.97C80.81,349.65,45.83,293.12,1,245.05v-86.24c68.3-5.94,136.81,5.51,205.07,7.93,28.32,1.33,56.75-1.29,84.29-8.04,27.99-6.49,55.56-15.15,84.07-19.23,65.59-11.06,131.68,3.27,197.61,1.2,16.29-.34,38.34-2.38,53.96,4.54Z" style="fill:none; opacity:.5; stroke:#c911ee; stroke-miterlimit:10; stroke-width:2px;"/><path d="M626,109.29v211.95c-19.4,24.81-40.98,47.95-64.21,69.2-34.42,33.1-61.42,72.9-94.15,107.58-63.12,69.32-104.46,62.75-183.94,24.73-27.86-12.09-56.16-23.17-83.18-37.1-62.18-31.67-112.11-81.43-157.24-133.68-14.59-17.19-28.37-35.04-42.28-52.81v-170.31c1.49.07,2.97.15,4.46.22,59.12,2.79,118.08,7.89,177.09,12.57,17.63,1.09,35.32,1.44,52.91-.18,42.65-3.69,82.16-21.6,123.7-30.56,42.97-8.85,87.48-11.79,131.34-8.8,36.63,2.77,73.17,7.67,109.97,7.99,8.53.03,17.03-.3,25.53-.8Z" style="fill:none; opacity:.4; stroke:#c911ee; stroke-miterlimit:10; stroke-width:2px;"/><rect x="1" y="51" width="625" height="550" style="fill:none; stroke-width:0px;"/><rect x="76" y="126" width="75" height="75" rx="37.5" ry="37.5" style="fill:#0d0010; stroke:#c911ee; stroke-miterlimit:10; stroke-width:2px;"/><path d="M118.52,161.83h-3.35v-13.39h1.67c3.7,0,6.7,3,6.7,6.7,0,.92.75,1.67,1.67,1.67s1.67-.75,1.67-1.67c0-5.55-4.5-10.04-10.04-10.04h-1.67v-3.35c0-.92-.75-1.67-1.67-1.67s-1.67.75-1.67,1.67v3.35h-1.67c-5.55,0-10.04,4.5-10.04,10.04s4.5,10.04,10.04,10.04h1.67v13.39h-3.35c-3.7,0-6.7-3-6.7-6.7,0-.92-.75-1.67-1.67-1.67s-1.67.75-1.67,1.67c0,5.55,4.5,10.04,10.04,10.04h3.35v3.35c0,.92.75,1.67,1.67,1.67s1.67-.75,1.67-1.67v-3.35h3.35c5.55,0,10.04-4.5,10.04-10.04s-4.5-10.04-10.04-10.04ZM110.15,161.83c-3.7,0-6.7-3-6.7-6.7s3-6.7,6.7-6.7h1.67v13.39h-1.67ZM118.52,178.57h-3.35v-13.39h3.35c3.7,0,6.7,3,6.7,6.7s-3,6.7-6.7,6.7Z" style="fill:lime; stroke-width:0px;"/><rect x="463.5" y="188.5" width="75" height="75" rx="37.5" ry="37.5" style="fill:#0d0010; stroke:#c911ee; stroke-miterlimit:10; stroke-width:2px;"/><path d="M518.37,213.49l-8.11-8.11c-.3-.3-.72-.47-1.15-.47h-16.23c-1.79,0-3.25,1.45-3.25,3.25v3.25h-3.25c-1.79,0-3.25,1.45-3.25,3.25v29.21c0,1.79,1.45,3.25,3.25,3.25h22.72c1.79,0,3.25-1.45,3.25-3.25v-3.25h3.25c1.79,0,3.25-1.45,3.25-3.25v-22.72c0-.43-.17-.84-.47-1.15ZM509.11,243.85h-22.72v-29.21h15.55l7.16,7.16v22.04ZM515.6,237.36h-3.25v-16.23c0-.43-.17-.84-.47-1.15l-8.11-8.11c-.3-.3-.72-.47-1.15-.47h-9.74v-3.25h15.55l7.16,7.16v22.04ZM504.25,230.87c0,.9-.73,1.62-1.62,1.62h-9.74c-.9,0-1.62-.73-1.62-1.62s.73-1.62,1.62-1.62h9.74c.9,0,1.62.73,1.62,1.62ZM504.25,237.36c0,.9-.73,1.62-1.62,1.62h-9.74c-.9,0-1.62-.73-1.62-1.62s.73-1.62,1.62-1.62h9.74c.9,0,1.62.73,1.62,1.62Z" style="fill:lime; stroke-width:0px;"/><rect x="113.5" y="413.5" width="75" height="75" rx="37.5" ry="37.5" style="fill:#0d0010; stroke:#c911ee; stroke-miterlimit:10; stroke-width:2px;"/><path d="M171.65,469.35l-10.16-10.16c6.32-7.59,5.29-18.86-2.3-25.18-7.59-6.32-18.86-5.29-25.18,2.3-6.32,7.59-5.29,18.86,2.3,25.18,6.63,5.52,16.26,5.52,22.89,0l10.16,10.16c.63.63,1.66.63,2.3,0s.63-1.66,0-2.3ZM133.17,447.78c0-8.07,6.54-14.61,14.61-14.61s14.61,6.54,14.61,14.61-6.54,14.61-14.61,14.61c-8.07,0-14.6-6.55-14.61-14.61Z" style="fill:lime; stroke-width:0px;"/><rect x="451" y="463.5" width="75" height="75" rx="37.5" ry="37.5" style="fill:#0d0010; stroke:#c911ee; stroke-miterlimit:10; stroke-width:2px;"/><path d="M485.44,489.54c0,.84-.68,1.53-1.53,1.53h-12.23c-.84,0-1.53-.68-1.53-1.53s.68-1.53,1.53-1.53h12.23c.84,0,1.53.68,1.53,1.53ZM483.92,509.41h-4.59v-4.59c0-.84-.68-1.53-1.53-1.53s-1.53.68-1.53,1.53v4.59h-4.59c-.84,0-1.53.68-1.53,1.53s.68,1.53,1.53,1.53h4.59v4.59c0,.84.68,1.53,1.53,1.53s1.53-.68,1.53-1.53v-4.59h4.59c.84,0,1.53-.68,1.53-1.53s-.68-1.53-1.53-1.53ZM493.09,509.41h12.23c.84,0,1.53-.68,1.53-1.53s-.68-1.53-1.53-1.53h-12.23c-.84,0-1.53.68-1.53,1.53s.68,1.53,1.53,1.53ZM505.32,512.46h-12.23c-.84,0-1.53.68-1.53,1.53s.68,1.53,1.53,1.53h12.23c.84,0,1.53-.68,1.53-1.53s-.68-1.53-1.53-1.53ZM493.53,495.2c.6.6,1.56.6,2.16,0,0,0,0,0,0,0l3.5-3.51,3.5,3.51c.6.6,1.57.6,2.16,0,.6-.6.6-1.57,0-2.16l-3.51-3.5,3.51-3.5c.6-.6.6-1.57,0-2.16s-1.57-.6-2.16,0l-3.5,3.51-3.5-3.51c-.6-.6-1.57-.6-2.16,0s-.6,1.57,0,2.16l3.51,3.5-3.51,3.5c-.6.6-.6,1.56,0,2.16,0,0,0,0,0,0Z" style="fill:lime; stroke-width:0px;"/><path d="M328.5,326c0,.69-.56,1.25-1.25,1.25h-12.5v12.5c0,.69-.56,1.25-1.25,1.25s-1.25-.56-1.25-1.25v-12.5h-12.5c-.69,0-1.25-.56-1.25-1.25s.56-1.25,1.25-1.25h12.5v-12.5c0-.69.56-1.25,1.25-1.25s1.25.56,1.25,1.25v12.5h12.5c.69,0,1.25.56,1.25,1.25Z" style="fill:#280330; stroke-width:0px;"/></svg>