<?xml version="1.0" encoding="UTF-8"?><svg id="Layer_1" xmlns="http://www.w3.org/2000/svg" viewBox="0 0 627 602"><path d="M1,49.72h624.73v515.28c0,19.87-16.13,36-36,36H11c-5.52,0-10-4.48-10-10V49.72h0Z" style="fill:#0d0010; stroke-width:0px;"/><path d="M626,11v40H1v-14C1,17.12,17.12,1,37,1h579c5.52,0,10,4.48,10,10Z" style="fill:#c911ee; stroke:#c911ee; stroke-miterlimit:10; stroke-width:2px;"/><path d="M626,51v514c0,19.88-16.12,36-36,36H11c-5.52,0-10-4.48-10-10V51h625Z" style="fill:none; stroke:#c911ee; stroke-miterlimit:10; stroke-width:2px;"/><circle cx="57.25" cy="26" r="6.25" style="fill:#280330; stroke:#280330; stroke-miterlimit:10; stroke-width:2px;"/><circle cx="94.75" cy="26" r="6.25" style="fill:#280330; stroke:#280330; stroke-miterlimit:10; stroke-width:2px;"/><circle cx="132.25" cy="26" r="6.25" style="fill:#280330; stroke:#280330; stroke-miterlimit:10; stroke-width:2px;"/><path d="M55.75,261.23v-9.14h-.32l-1.19,4.32h-2.27v-.22l1.51-5.29h4.64v10.33h3.13v2.27h-9.07v-2.27h3.56Z" style="fill:#fff; stroke-width:0px;"/><path d="M66.26,257.09c0,.29.15.5.45.62.3.13.85.23,1.64.31.91.1,1.66.37,2.23.82.58.45.86,1.08.86,1.88v.11c0,.89-.32,1.6-.97,2.12s-1.56.79-2.74.79c-.7,0-1.29-.09-1.78-.27-.49-.18-.9-.41-1.22-.68-.32-.27-.57-.57-.75-.9-.17-.33-.29-.65-.35-.96l2.09-.68c.1.38.3.72.6,1.01.31.29.78.43,1.41.43.56,0,.95-.09,1.16-.26s.32-.36.32-.57c0-.12-.03-.23-.08-.33-.05-.1-.15-.2-.3-.29-.14-.09-.34-.17-.58-.23-.25-.06-.56-.11-.93-.14-1.01-.08-1.81-.34-2.4-.78-.59-.44-.89-1.08-.89-1.94v-.11c0-.44.1-.83.29-1.17.19-.34.44-.62.76-.86s.67-.41,1.08-.53c.41-.12.83-.18,1.26-.18.56,0,1.05.07,1.47.21.41.14.76.32,1.05.54.29.22.52.47.7.74.18.27.32.53.41.78l-2.05.83c-.11-.32-.29-.58-.56-.77-.26-.19-.61-.28-1.03-.28-.38,0-.67.07-.86.21-.19.14-.29.31-.29.51Z" style="fill:#fff; stroke-width:0px;"/><path d="M74.18,254.57h2.65v-3.67h2.27v3.67h3.22v2.16h-3.22v4.07c0,.36.16.54.49.54h2.41v2.16h-3.78c-.41,0-.74-.13-1-.4-.26-.26-.39-.6-.39-1.01v-5.36h-2.65v-2.16Z" style="fill:#fff; stroke-width:0px;"/><path d="M96.54,250.9h2.38v10.33h5.72v2.27h-8.1v-12.6Z" style="fill:#fff; stroke-width:0px;"/><path d="M109.48,259.77c.01.26.08.51.19.73.11.22.27.41.47.58.2.16.43.29.68.38.26.09.53.13.82.13.56,0,1-.1,1.3-.3.3-.2.52-.43.65-.71l1.94,1.08c-.11.23-.26.46-.45.71s-.44.47-.75.67-.68.37-1.12.5c-.44.13-.95.2-1.54.2-.67,0-1.28-.11-1.84-.32-.55-.22-1.03-.53-1.43-.94-.4-.41-.71-.91-.94-1.49-.22-.59-.33-1.25-.33-2v-.11c0-.68.12-1.31.35-1.87.23-.56.55-1.04.96-1.44.41-.4.88-.71,1.43-.93.55-.22,1.13-.33,1.75-.33.77,0,1.43.13,1.98.4.55.27,1.01.61,1.37,1.03.36.41.62.87.79,1.37.17.5.25.98.25,1.45v1.21h-6.55ZM111.62,256.37c-.58,0-1.04.15-1.4.44-.36.29-.59.63-.7,1.02h4.21c-.07-.42-.3-.77-.67-1.04s-.85-.41-1.43-.41Z" style="fill:#fff; stroke-width:0px;"/><path d="M124.87,262.2h-.32c-.1.2-.21.4-.35.58-.14.19-.32.35-.54.5-.22.14-.49.26-.79.34s-.67.13-1.11.13c-.55,0-1.07-.1-1.54-.3-.47-.2-.89-.49-1.24-.88s-.63-.87-.83-1.43c-.2-.56-.3-1.21-.3-1.94v-.32c0-.72.1-1.36.31-1.93s.5-1.04.86-1.43c.37-.39.79-.69,1.28-.89.49-.2,1-.31,1.54-.31.72,0,1.29.13,1.71.4.42.27.75.65.99,1.14h.32v-1.3h2.27v11.12c0,.41-.13.74-.39,1.01-.26.26-.59.4-1,.4h-6.01v-2.16h4.64c.32,0,.49-.18.49-.54v-2.2ZM122.5,261.59c.71,0,1.28-.22,1.72-.67.44-.45.66-1.04.66-1.77v-.22c0-.73-.22-1.32-.66-1.77-.44-.45-1.01-.67-1.72-.67s-1.28.22-1.72.66c-.44.44-.66,1.04-.66,1.79v.22c0,.76.22,1.35.66,1.79.44.44,1.01.66,1.72.66Z" style="fill:#fff; stroke-width:0px;"/><rect x="107.25" y="219.75" width="37.5" height="150" rx="6" ry="6" transform="translate(420.75 168.75) rotate(90)" style="fill:#280330; stroke:#c911ee; stroke-miterlimit:10; stroke-width:2px;"/><rect x="288.5" y="-86.5" width="50" height="525" rx="6" ry="6" transform="translate(489.5 -137.5) rotate(90)" style="fill:#280330; stroke:#c911ee; stroke-miterlimit:10; stroke-width:2px;"/><path d="M69.75,257.25h37.5v69c0,3.31-2.69,6-6,6h-25.5c-3.31,0-6-2.69-6-6v-69h0Z" transform="translate(383.25 206.25) rotate(90)" style="fill:#c911ee; stroke:#c911ee; stroke-miterlimit:10; stroke-width:2px;"/><rect x="382.25" y="219.75" width="37.5" height="150" rx="6" ry="6" transform="translate(695.75 -106.25) rotate(90)" style="fill:#280330; stroke:#c911ee; stroke-miterlimit:10; stroke-width:2px;"/><path d="M344.75,257.25h37.5v69c0,3.31-2.69,6-6,6h-25.5c-3.31,0-6-2.69-6-6v-69h0Z" transform="translate(658.25 -68.75) rotate(90)" style="fill:#c911ee; stroke:#c911ee; stroke-miterlimit:10; stroke-width:2px;"/><path d="M51.86,105.8c0-1.63.41-2.9,1.23-3.8.82-.9,1.96-1.35,3.41-1.35s2.59.45,3.41,1.35c.82.9,1.23,2.17,1.23,3.8v2.81c0,1.68-.41,2.96-1.23,3.83-.82.88-1.96,1.31-3.41,1.31s-2.59-.44-3.41-1.31c-.82-.88-1.23-2.15-1.23-3.83v-2.81ZM56.51,111.59c.43,0,.79-.07,1.08-.21.29-.14.52-.33.7-.58s.31-.55.38-.9c.07-.35.11-.73.11-1.15v-3.1c0-.4-.04-.77-.13-1.12s-.22-.65-.4-.9c-.18-.25-.41-.45-.7-.6-.29-.15-.64-.22-1.04-.22s-.76.07-1.04.22-.52.35-.7.6c-.18.25-.31.55-.4.9-.08.35-.13.72-.13,1.12v3.1c0,.42.04.8.11,1.15.07.35.2.65.38.9.18.25.41.45.7.58.29.14.65.21,1.08.21Z" style="fill:lime; stroke-width:0px;"/><path d="M65.22,117.1h-2.27v-12.53h2.27v1.3h.32c.24-.49.59-.87,1.04-1.14.46-.27,1.04-.4,1.75-.4.53,0,1.03.1,1.5.31s.89.5,1.24.89c.35.39.64.87.85,1.43.21.56.31,1.21.31,1.93v.32c0,.73-.1,1.38-.31,1.94-.2.56-.48,1.04-.83,1.43s-.76.68-1.23.88c-.47.2-.99.3-1.54.3-.41,0-.76-.04-1.06-.13s-.56-.2-.78-.34c-.22-.14-.41-.31-.56-.5-.15-.19-.28-.38-.39-.58h-.32v4.9ZM67.6,111.59c.71,0,1.28-.22,1.72-.66.44-.44.66-1.04.66-1.79v-.22c0-.76-.22-1.35-.66-1.79-.44-.44-1.01-.66-1.72-.66s-1.28.22-1.72.67c-.44.45-.66,1.04-.66,1.77v.22c0,.73.22,1.32.66,1.77s1.01.67,1.72.67Z" style="fill:lime; stroke-width:0px;"/><path d="M74.18,104.57h2.65v-3.67h2.27v3.67h3.22v2.16h-3.22v4.07c0,.36.16.54.49.54h2.41v2.16h-3.78c-.41,0-.74-.13-1-.4-.26-.26-.39-.6-.39-1.01v-5.36h-2.65v-2.16Z" style="fill:lime; stroke-width:0px;"/><path d="M85.61,111.34h3.02v-4.61h-2.81v-2.16h5.08v6.77h2.59v2.16h-7.88v-2.16ZM91.46,101.93c0,.24-.04.46-.14.68-.09.21-.21.39-.37.54-.16.15-.34.27-.55.36s-.43.14-.66.14c-.24,0-.46-.05-.67-.14s-.38-.21-.54-.36c-.16-.15-.28-.33-.37-.54-.09-.21-.13-.44-.13-.68s.04-.46.13-.67c.09-.21.21-.39.37-.54.16-.15.34-.27.54-.36s.43-.14.67-.14c.23,0,.45.05.66.14s.39.21.55.36c.16.15.28.33.37.54.09.21.14.43.14.67Z" style="fill:lime; stroke-width:0px;"/><path d="M105.22,109.14c0,.74-.13,1.4-.38,1.97s-.59,1.05-1.03,1.44c-.43.39-.93.69-1.48.89-.56.21-1.14.31-1.76.31s-1.2-.1-1.75-.31c-.56-.2-1.05-.5-1.48-.89-.43-.39-.77-.87-1.03-1.44s-.38-1.23-.38-1.97v-.22c0-.73.13-1.38.38-1.95.25-.57.59-1.05,1.03-1.45.43-.4.93-.7,1.48-.9s1.14-.31,1.75-.31,1.2.1,1.76.31c.56.2,1.05.5,1.48.9.43.4.77.88,1.03,1.45.25.57.38,1.22.38,1.95v.22ZM100.57,111.59c.32,0,.63-.05.92-.16.29-.11.54-.26.76-.47.22-.2.39-.45.51-.75.13-.29.19-.63.19-1v-.36c0-.37-.06-.7-.19-1-.13-.29-.3-.54-.51-.75-.22-.2-.47-.36-.76-.47-.29-.11-.59-.16-.92-.16s-.63.05-.92.16c-.29.11-.54.26-.76.47-.22.21-.39.45-.51.75-.13.29-.19.63-.19,1v.36c0,.37.06.71.19,1,.13.29.3.54.51.75s.47.36.76.47c.29.11.59.16.92.16Z" style="fill:lime; stroke-width:0px;"/><path d="M109.75,113.5h-2.27v-8.93h2.27v1.33h.32c.2-.5.53-.89.99-1.17.46-.28.99-.41,1.6-.41.43,0,.84.07,1.22.21.38.14.71.35,1,.64.29.29.51.65.68,1.1.16.44.24.97.24,1.58v5.65h-2.27v-5.08c0-.64-.15-1.14-.46-1.5-.31-.37-.75-.55-1.32-.55-.67,0-1.17.23-1.5.67-.33.45-.5,1.05-.5,1.81v4.64Z" style="fill:lime; stroke-width:0px;"/><path d="M121.34,107.09c0,.29.15.5.45.62.3.13.85.23,1.64.31.91.1,1.66.37,2.23.82.58.45.86,1.08.86,1.88v.11c0,.89-.32,1.6-.97,2.12s-1.56.79-2.74.79c-.7,0-1.29-.09-1.78-.27-.49-.18-.9-.41-1.22-.68-.32-.27-.57-.57-.75-.9-.17-.33-.29-.65-.35-.96l2.09-.68c.1.38.3.72.6,1.01.31.29.78.43,1.41.43.56,0,.95-.09,1.16-.26s.32-.36.32-.57c0-.12-.03-.23-.08-.33-.05-.1-.15-.2-.3-.29-.14-.09-.34-.17-.58-.23-.25-.06-.56-.11-.93-.14-1.01-.08-1.81-.34-2.4-.78-.59-.44-.89-1.08-.89-1.94v-.11c0-.44.1-.83.29-1.17.19-.34.44-.62.76-.86s.67-.41,1.08-.53c.41-.12.83-.18,1.26-.18.56,0,1.05.07,1.47.21.41.14.76.32,1.05.54.29.22.52.47.7.74.18.27.32.53.41.78l-2.05.83c-.11-.32-.29-.58-.56-.77-.26-.19-.61-.28-1.03-.28-.38,0-.67.07-.86.21-.19.14-.29.31-.29.51Z" style="fill:lime; stroke-width:0px;"/><rect x="288.5" y="263.5" width="50" height="525" rx="6" ry="6" transform="translate(839.5 212.5) rotate(90)" style="fill:#c911ee; stroke:#c911ee; stroke-miterlimit:10; stroke-width:2px;"/><rect x="157.25" y="232.25" width="37.5" height="250" rx="6" ry="6" transform="translate(533.25 181.25) rotate(90)" style="fill:#280330; stroke:#c911ee; stroke-miterlimit:10; stroke-width:2px;"/><rect x="157.25" y="282.25" width="37.5" height="250" rx="6" ry="6" transform="translate(583.25 231.25) rotate(90)" style="fill:#280330; stroke:#c911ee; stroke-miterlimit:10; stroke-width:2px;"/><line x1="313.5" y1="126" x2="576" y2="126" style="fill:none; stroke:#280330; stroke-linecap:round; stroke-linejoin:round; stroke-width:2px;"/><rect x="157.25" y="332.25" width="37.5" height="250" rx="6" ry="6" transform="translate(633.25 281.25) rotate(90)" style="fill:#280330; stroke:#c911ee; stroke-miterlimit:10; stroke-width:2px;"/><rect x="432.25" y="232.25" width="37.5" height="250" rx="6" ry="6" transform="translate(808.25 -93.75) rotate(90)" style="fill:#280330; stroke:#c911ee; stroke-miterlimit:10; stroke-width:2px;"/><rect x="432.25" y="282.25" width="37.5" height="250" rx="6" ry="6" transform="translate(858.25 -43.75) rotate(90)" style="fill:#280330; stroke:#c911ee; stroke-miterlimit:10; stroke-width:2px;"/><rect x="432.25" y="332.25" width="37.5" height="250" rx="6" ry="6" transform="translate(908.25 6.25) rotate(90)" style="fill:#280330; stroke:#c911ee; stroke-miterlimit:10; stroke-width:2px;"/><line x1="51" y1="126" x2="313.5" y2="126" style="fill:none; stroke:#c911ee; stroke-linecap:round; stroke-linejoin:round; stroke-width:2px;"/><path d="M78.31,347.83h-2.57v-.86c0-.47-.38-.86-.86-.86s-.86.38-.86.86v.86h-8.56v-.86c0-.47-.38-.86-.86-.86s-.86.38-.86.86v.86h-2.57c-.95,0-1.71.77-1.71,1.71v17.13c0,.95.77,1.71,1.71,1.71h17.13c.95,0,1.71-.77,1.71-1.71v-17.13c0-.95-.77-1.71-1.71-1.71ZM63.76,349.54v.86c0,.47.38.86.86.86s.86-.38.86-.86v-.86h8.56v.86c0,.47.38.86.86.86s.86-.38.86-.86v-.86h2.57v3.43h-17.13v-3.43h2.57ZM78.31,366.67h-17.13v-11.99h17.13v11.99Z" style="fill:#c911ee; stroke-width:0px;"/><path d="M353.31,347.83h-2.57v-.86c0-.47-.38-.86-.86-.86s-.86.38-.86.86v.86h-8.56v-.86c0-.47-.38-.86-.86-.86s-.86.38-.86.86v.86h-2.57c-.95,0-1.71.77-1.71,1.71v17.13c0,.95.77,1.71,1.71,1.71h17.13c.95,0,1.71-.77,1.71-1.71v-17.13c0-.95-.77-1.71-1.71-1.71ZM338.76,349.54v.86c0,.47.38.86.86.86s.86-.38.86-.86v-.86h8.56v.86c0,.47.38.86.86.86s.86-.38.86-.86v-.86h2.57v3.43h-17.13v-3.43h2.57ZM353.31,366.67h-17.13v-11.99h17.13v11.99Z" style="fill:#c911ee; stroke-width:0px;"/><path d="M72.26,406.41h-1.67v-6.7h.84c1.85,0,3.35,1.5,3.35,3.35,0,.46.37.84.84.84s.84-.37.84-.84c0-2.77-2.25-5.02-5.02-5.02h-.84v-1.67c0-.46-.37-.84-.84-.84s-.84.37-.84.84v1.67h-.84c-2.77,0-5.02,2.25-5.02,5.02s2.25,5.02,5.02,5.02h.84v6.7h-1.67c-1.85,0-3.35-1.5-3.35-3.35,0-.46-.37-.84-.84-.84s-.84.37-.84.84c0,2.77,2.25,5.02,5.02,5.02h1.67v1.67c0,.46.37.84.84.84s.84-.37.84-.84v-1.67h1.67c2.77,0,5.02-2.25,5.02-5.02s-2.25-5.02-5.02-5.02ZM68.08,406.41c-1.85,0-3.35-1.5-3.35-3.35s1.5-3.35,3.35-3.35h.84v6.7h-.84ZM72.26,414.78h-1.67v-6.7h1.67c1.85,0,3.35,1.5,3.35,3.35s-1.5,3.35-3.35,3.35Z" style="fill:#c911ee; stroke-width:0px;"/><path d="M347.26,406.41h-1.67v-6.7h.84c1.85,0,3.35,1.5,3.35,3.35,0,.46.37.84.84.84s.84-.37.84-.84c0-2.77-2.25-5.02-5.02-5.02h-.84v-1.67c0-.46-.37-.84-.84-.84s-.84.37-.84.84v1.67h-.84c-2.77,0-5.02,2.25-5.02,5.02s2.25,5.02,5.02,5.02h.84v6.7h-1.67c-1.85,0-3.35-1.5-3.35-3.35,0-.46-.37-.84-.84-.84s-.84.37-.84.84c0,2.77,2.25,5.02,5.02,5.02h1.67v1.67c0,.46.37.84.84.84s.84-.37.84-.84v-1.67h1.67c2.77,0,5.02-2.25,5.02-5.02s-2.25-5.02-5.02-5.02ZM343.08,406.41c-1.85,0-3.35-1.5-3.35-3.35s1.5-3.35,3.35-3.35h.84v6.7h-.84ZM347.26,414.78h-1.67v-6.7h1.67c1.85,0,3.35,1.5,3.35,3.35s-1.5,3.35-3.35,3.35Z" style="fill:#c911ee; stroke-width:0px;"/><path d="M347.26,456.41h-1.67v-6.7h.84c1.85,0,3.35,1.5,3.35,3.35,0,.46.37.84.84.84s.84-.37.84-.84c0-2.77-2.25-5.02-5.02-5.02h-.84v-1.67c0-.46-.37-.84-.84-.84s-.84.37-.84.84v1.67h-.84c-2.77,0-5.02,2.25-5.02,5.02s2.25,5.02,5.02,5.02h.84v6.7h-1.67c-1.85,0-3.35-1.5-3.35-3.35,0-.46-.37-.84-.84-.84s-.84.37-.84.84c0,2.77,2.25,5.02,5.02,5.02h1.67v1.67c0,.46.37.84.84.84s.84-.37.84-.84v-1.67h1.67c2.77,0,5.02-2.25,5.02-5.02s-2.25-5.02-5.02-5.02ZM343.08,456.41c-1.85,0-3.35-1.5-3.35-3.35s1.5-3.35,3.35-3.35h.84v6.7h-.84ZM347.26,464.78h-1.67v-6.7h1.67c1.85,0,3.35,1.5,3.35,3.35s-1.5,3.35-3.35,3.35Z" style="fill:#c911ee; stroke-width:0px;"/><path d="M79.12,453.34h-4.74l.83-4.55c.07-.43-.22-.83-.64-.9-.42-.07-.81.21-.89.62l-.88,4.83h-4.66l.83-4.55c.07-.43-.22-.83-.64-.9-.42-.07-.81.21-.89.62l-.88,4.83h-4.6c-.43,0-.78.35-.78.78s.35.78.78.78h4.32l-.85,4.69h-5.03c-.43,0-.78.35-.78.78s.35.78.78.78h4.74l-.83,4.55c-.08.42.2.83.63.91.05,0,.09.01.14.01.38,0,.7-.27.77-.64l.88-4.83h4.66l-.83,4.55c-.08.42.2.83.63.91.05,0,.09.01.14.01.38,0,.7-.27.77-.64l.88-4.83h4.6c.43,0,.78-.35.78-.78s-.35-.78-.78-.78h-4.32l.85-4.69h5.03c.43,0,.78-.35.78-.78s-.35-.78-.78-.78ZM71.65,459.59h-4.66l.85-4.69h4.66l-.85,4.69Z" style="fill:#c911ee; stroke-width:0px;"/><path d="M328.5,526c0,.69-.56,1.25-1.25,1.25h-12.5v12.5c0,.69-.56,1.25-1.25,1.25s-1.25-.56-1.25-1.25v-12.5h-12.5c-.69,0-1.25-.56-1.25-1.25s.56-1.25,1.25-1.25h12.5v-12.5c0-.69.56-1.25,1.25-1.25s1.25.56,1.25,1.25v12.5h12.5c.69,0,1.25.56,1.25,1.25Z" style="fill:#280330; stroke-width:0px;"/><path d="M89.77,188.24l-6.77-6.77c4.21-5.06,3.53-12.57-1.53-16.79-5.06-4.21-12.57-3.53-16.79,1.53-4.21,5.06-3.53,12.57,1.53,16.79,4.42,3.68,10.84,3.68,15.26,0l6.77,6.77c.42.42,1.11.42,1.53,0s.42-1.11,0-1.53ZM64.11,173.85c0-5.38,4.36-9.74,9.74-9.74s9.74,4.36,9.74,9.74-4.36,9.74-9.74,9.74c-5.38,0-9.73-4.36-9.74-9.74Z" style="fill:#c911ee; stroke-width:0px;"/></svg>