<svg width="252" height="183" viewBox="0 0 252 183" fill="none" xmlns="http://www.w3.org/2000/svg">
<rect width="252" height="183" rx="4" fill="#29293D"/>
<rect x="25.5" y="27.5" width="1" height="113" fill="#9A93B4"/>
<rect x="139.5" y="84.5" width="1" height="113" transform="rotate(90 139.5 84.5)" fill="#9A93B4"/>
<path d="M32.024 30.624C32.2213 30.624 32.3933 30.6 32.54 30.552C32.6867 30.5013 32.808 30.4307 32.904 30.34C33.0027 30.2467 33.076 30.1347 33.124 30.004C33.172 29.8707 33.196 29.7227 33.196 29.56C33.196 29.4053 33.172 29.2653 33.124 29.14C33.076 29.0147 33.004 28.908 32.908 28.82C32.812 28.732 32.6907 28.6653 32.544 28.62C32.3973 28.572 32.224 28.548 32.024 28.548H31.22V30.624H32.024ZM32.024 27.716C32.4107 27.716 32.7453 27.7613 33.028 27.852C33.3107 27.9427 33.544 28.0693 33.728 28.232C33.912 28.3947 34.048 28.5893 34.136 28.816C34.2267 29.0427 34.272 29.2907 34.272 29.56C34.272 29.84 34.2253 30.0973 34.132 30.332C34.0387 30.564 33.8987 30.764 33.712 30.932C33.5253 31.1 33.2907 31.2307 33.008 31.324C32.728 31.4173 32.4 31.464 32.024 31.464H31.22V33.5H30.144V27.716H32.024ZM36.8451 30.468C37.0478 30.468 37.2238 30.4427 37.3731 30.392C37.5251 30.3413 37.6491 30.272 37.7451 30.184C37.8438 30.0933 37.9171 29.9867 37.9651 29.864C38.0131 29.7413 38.0371 29.6067 38.0371 29.46C38.0371 29.1667 37.9398 28.9413 37.7451 28.784C37.5531 28.6267 37.2585 28.548 36.8611 28.548H36.1731V30.468H36.8451ZM39.6131 33.5H38.6411C38.4571 33.5 38.3238 33.428 38.2411 33.284L37.0251 31.432C36.9798 31.3627 36.9291 31.3133 36.8731 31.284C36.8198 31.2547 36.7398 31.24 36.6331 31.24H36.1731V33.5H35.0971V27.716H36.8611C37.2531 27.716 37.5891 27.7573 37.8691 27.84C38.1518 27.92 38.3825 28.0333 38.5611 28.18C38.7425 28.3267 38.8758 28.5027 38.9611 28.708C39.0465 28.9107 39.0891 29.1347 39.0891 29.38C39.0891 29.5747 39.0598 29.7587 39.0011 29.932C38.9451 30.1053 38.8625 30.2627 38.7531 30.404C38.6465 30.5453 38.5131 30.6693 38.3531 30.776C38.1958 30.8827 38.0158 30.9667 37.8131 31.028C37.8825 31.068 37.9465 31.116 38.0051 31.172C38.0638 31.2253 38.1171 31.2893 38.1651 31.364L39.6131 33.5ZM45.6756 30.608C45.6756 31.032 45.605 31.4253 45.4636 31.788C45.325 32.148 45.1276 32.46 44.8716 32.724C44.6156 32.988 44.3076 33.1947 43.9476 33.344C43.5876 33.4907 43.1876 33.564 42.7476 33.564C42.3103 33.564 41.9116 33.4907 41.5516 33.344C41.1916 33.1947 40.8823 32.988 40.6236 32.724C40.3676 32.46 40.169 32.148 40.0276 31.788C39.8863 31.4253 39.8156 31.032 39.8156 30.608C39.8156 30.184 39.8863 29.792 40.0276 29.432C40.169 29.0693 40.3676 28.756 40.6236 28.492C40.8823 28.228 41.1916 28.0227 41.5516 27.876C41.9116 27.7267 42.3103 27.652 42.7476 27.652C43.041 27.652 43.317 27.6867 43.5756 27.756C43.8343 27.8227 44.0716 27.9187 44.2876 28.044C44.5036 28.1667 44.697 28.3173 44.8676 28.496C45.041 28.672 45.1876 28.8693 45.3076 29.088C45.4276 29.3067 45.5183 29.544 45.5796 29.8C45.6436 30.056 45.6756 30.3253 45.6756 30.608ZM44.5756 30.608C44.5756 30.2907 44.533 30.0067 44.4476 29.756C44.3623 29.5027 44.241 29.288 44.0836 29.112C43.9263 28.936 43.7343 28.8013 43.5076 28.708C43.2836 28.6147 43.0303 28.568 42.7476 28.568C42.465 28.568 42.2103 28.6147 41.9836 28.708C41.7596 28.8013 41.5676 28.936 41.4076 29.112C41.2503 29.288 41.129 29.5027 41.0436 29.756C40.9583 30.0067 40.9156 30.2907 40.9156 30.608C40.9156 30.9253 40.9583 31.2107 41.0436 31.464C41.129 31.7147 41.2503 31.928 41.4076 32.104C41.5676 32.2773 41.7596 32.4107 41.9836 32.504C42.2103 32.5973 42.465 32.644 42.7476 32.644C43.0303 32.644 43.2836 32.5973 43.5076 32.504C43.7343 32.4107 43.9263 32.2773 44.0836 32.104C44.241 31.928 44.3623 31.7147 44.4476 31.464C44.533 31.2107 44.5756 30.9253 44.5756 30.608ZM47.7006 28.572V30.284H49.8686V31.144H47.7006V33.5H46.6206V27.716H50.2686V28.572H47.7006ZM52.2318 33.5H51.1518V27.716H52.2318V33.5ZM57.5668 28.6H55.8228V33.5H54.7468V28.6H53.0028V27.716H57.5668V28.6Z" fill="#E7E7E7"/>
<path d="M147.224 79.768C147.192 79.824 147.157 79.8653 147.12 79.892C147.085 79.916 147.041 79.928 146.988 79.928C146.932 79.928 146.871 79.908 146.804 79.868C146.74 79.8253 146.663 79.7787 146.572 79.728C146.481 79.6773 146.375 79.632 146.252 79.592C146.132 79.5493 145.989 79.528 145.824 79.528C145.675 79.528 145.544 79.5467 145.432 79.584C145.32 79.6187 145.225 79.668 145.148 79.732C145.073 79.796 145.017 79.8733 144.98 79.964C144.943 80.052 144.924 80.1493 144.924 80.256C144.924 80.392 144.961 80.5053 145.036 80.596C145.113 80.6867 145.215 80.764 145.34 80.828C145.465 80.892 145.608 80.9493 145.768 81C145.928 81.0507 146.092 81.1053 146.26 81.164C146.428 81.22 146.592 81.2867 146.752 81.364C146.912 81.4387 147.055 81.5347 147.18 81.652C147.305 81.7667 147.405 81.908 147.48 82.076C147.557 82.244 147.596 82.448 147.596 82.688C147.596 82.9493 147.551 83.1947 147.46 83.424C147.372 83.6507 147.241 83.8493 147.068 84.02C146.897 84.188 146.688 84.3213 146.44 84.42C146.192 84.516 145.908 84.564 145.588 84.564C145.404 84.564 145.223 84.5453 145.044 84.508C144.865 84.4733 144.693 84.4227 144.528 84.356C144.365 84.2893 144.212 84.2093 144.068 84.116C143.924 84.0227 143.796 83.9187 143.684 83.804L144 83.288C144.027 83.2507 144.061 83.22 144.104 83.196C144.147 83.1693 144.192 83.156 144.24 83.156C144.307 83.156 144.379 83.184 144.456 83.24C144.533 83.2933 144.625 83.3533 144.732 83.42C144.839 83.4867 144.963 83.548 145.104 83.604C145.248 83.6573 145.42 83.684 145.62 83.684C145.927 83.684 146.164 83.612 146.332 83.468C146.5 83.3213 146.584 83.112 146.584 82.84C146.584 82.688 146.545 82.564 146.468 82.468C146.393 82.372 146.293 82.292 146.168 82.228C146.043 82.1613 145.9 82.1053 145.74 82.06C145.58 82.0147 145.417 81.9653 145.252 81.912C145.087 81.8587 144.924 81.7947 144.764 81.72C144.604 81.6453 144.461 81.548 144.336 81.428C144.211 81.308 144.109 81.1587 144.032 80.98C143.957 80.7987 143.92 80.576 143.92 80.312C143.92 80.1013 143.961 79.896 144.044 79.696C144.129 79.496 144.252 79.3187 144.412 79.164C144.572 79.0093 144.769 78.8853 145.004 78.792C145.239 78.6987 145.508 78.652 145.812 78.652C146.153 78.652 146.468 78.7053 146.756 78.812C147.044 78.9187 147.289 79.068 147.492 79.26L147.224 79.768ZM152.575 79.6H150.831V84.5H149.755V79.6H148.011V78.716H152.575V79.6ZM158.652 81.608C158.652 82.032 158.582 82.4253 158.44 82.788C158.302 83.148 158.104 83.46 157.848 83.724C157.592 83.988 157.284 84.1947 156.924 84.344C156.564 84.4907 156.164 84.564 155.724 84.564C155.287 84.564 154.888 84.4907 154.528 84.344C154.168 84.1947 153.859 83.988 153.6 83.724C153.344 83.46 153.146 83.148 153.004 82.788C152.863 82.4253 152.792 82.032 152.792 81.608C152.792 81.184 152.863 80.792 153.004 80.432C153.146 80.0693 153.344 79.756 153.6 79.492C153.859 79.228 154.168 79.0227 154.528 78.876C154.888 78.7267 155.287 78.652 155.724 78.652C156.018 78.652 156.294 78.6867 156.552 78.756C156.811 78.8227 157.048 78.9187 157.264 79.044C157.48 79.1667 157.674 79.3173 157.844 79.496C158.018 79.672 158.164 79.8693 158.284 80.088C158.404 80.3067 158.495 80.544 158.556 80.8C158.62 81.056 158.652 81.3253 158.652 81.608ZM157.552 81.608C157.552 81.2907 157.51 81.0067 157.424 80.756C157.339 80.5027 157.218 80.288 157.06 80.112C156.903 79.936 156.711 79.8013 156.484 79.708C156.26 79.6147 156.007 79.568 155.724 79.568C155.442 79.568 155.187 79.6147 154.96 79.708C154.736 79.8013 154.544 79.936 154.384 80.112C154.227 80.288 154.106 80.5027 154.02 80.756C153.935 81.0067 153.892 81.2907 153.892 81.608C153.892 81.9253 153.935 82.2107 154.02 82.464C154.106 82.7147 154.227 82.928 154.384 83.104C154.544 83.2773 154.736 83.4107 154.96 83.504C155.187 83.5973 155.442 83.644 155.724 83.644C156.007 83.644 156.26 83.5973 156.484 83.504C156.711 83.4107 156.903 83.2773 157.06 83.104C157.218 82.928 157.339 82.7147 157.424 82.464C157.51 82.2107 157.552 81.9253 157.552 81.608ZM163.569 83.136C163.628 83.136 163.68 83.1587 163.725 83.204L164.149 83.664C163.914 83.9547 163.625 84.1773 163.281 84.332C162.94 84.4867 162.529 84.564 162.049 84.564C161.62 84.564 161.233 84.4907 160.889 84.344C160.548 84.1973 160.256 83.9933 160.013 83.732C159.77 83.4707 159.584 83.1587 159.453 82.796C159.325 82.4333 159.261 82.0373 159.261 81.608C159.261 81.1733 159.33 80.776 159.469 80.416C159.608 80.0533 159.802 79.7413 160.053 79.48C160.306 79.2187 160.608 79.016 160.957 78.872C161.306 78.7253 161.693 78.652 162.117 78.652C162.538 78.652 162.912 78.7213 163.237 78.86C163.565 78.9987 163.844 79.18 164.073 79.404L163.713 79.904C163.692 79.936 163.664 79.964 163.629 79.988C163.597 80.012 163.552 80.024 163.493 80.024C163.453 80.024 163.412 80.0133 163.369 79.992C163.326 79.968 163.28 79.94 163.229 79.908C163.178 79.8733 163.12 79.836 163.053 79.796C162.986 79.756 162.909 79.72 162.821 79.688C162.733 79.6533 162.63 79.6253 162.513 79.604C162.398 79.58 162.265 79.568 162.113 79.568C161.854 79.568 161.617 79.6147 161.401 79.708C161.188 79.7987 161.004 79.932 160.849 80.108C160.694 80.2813 160.574 80.4947 160.489 80.748C160.404 80.9987 160.361 81.2853 160.361 81.608C160.361 81.9333 160.406 82.2227 160.497 82.476C160.59 82.7293 160.716 82.9427 160.873 83.116C161.03 83.2893 161.216 83.4227 161.429 83.516C161.642 83.6067 161.872 83.652 162.117 83.652C162.264 83.652 162.396 83.644 162.513 83.628C162.633 83.612 162.742 83.5867 162.841 83.552C162.942 83.5173 163.037 83.4733 163.125 83.42C163.216 83.364 163.305 83.296 163.393 83.216C163.42 83.192 163.448 83.1733 163.477 83.16C163.506 83.144 163.537 83.136 163.569 83.136ZM165.962 81.14H166.214C166.316 81.14 166.4 81.1267 166.466 81.1C166.533 81.0707 166.59 81.0253 166.638 80.964L168.234 78.944C168.301 78.8587 168.37 78.8 168.442 78.768C168.517 78.7333 168.61 78.716 168.722 78.716H169.65L167.702 81.12C167.588 81.2667 167.469 81.3707 167.346 81.432C167.434 81.464 167.513 81.5093 167.582 81.568C167.654 81.624 167.722 81.6987 167.786 81.792L169.794 84.5H168.846C168.718 84.5 168.622 84.4827 168.558 84.448C168.497 84.4107 168.445 84.3573 168.402 84.288L166.766 82.152C166.716 82.08 166.657 82.0293 166.59 82C166.524 81.9707 166.428 81.956 166.302 81.956H165.962V84.5H164.886V78.716H165.962V81.14ZM174.196 81.624C174.393 81.624 174.565 81.6 174.712 81.552C174.859 81.5013 174.98 81.4307 175.076 81.34C175.175 81.2467 175.248 81.1347 175.296 81.004C175.344 80.8707 175.368 80.7227 175.368 80.56C175.368 80.4053 175.344 80.2653 175.296 80.14C175.248 80.0147 175.176 79.908 175.08 79.82C174.984 79.732 174.863 79.6653 174.716 79.62C174.569 79.572 174.396 79.548 174.196 79.548H173.392V81.624H174.196ZM174.196 78.716C174.583 78.716 174.917 78.7613 175.2 78.852C175.483 78.9427 175.716 79.0693 175.9 79.232C176.084 79.3947 176.22 79.5893 176.308 79.816C176.399 80.0427 176.444 80.2907 176.444 80.56C176.444 80.84 176.397 81.0973 176.304 81.332C176.211 81.564 176.071 81.764 175.884 81.932C175.697 82.1 175.463 82.2307 175.18 82.324C174.9 82.4173 174.572 82.464 174.196 82.464H173.392V84.5H172.316V78.716H174.196ZM179.017 81.468C179.22 81.468 179.396 81.4427 179.545 81.392C179.697 81.3413 179.821 81.272 179.917 81.184C180.016 81.0933 180.089 80.9867 180.137 80.864C180.185 80.7413 180.209 80.6067 180.209 80.46C180.209 80.1667 180.112 79.9413 179.917 79.784C179.725 79.6267 179.43 79.548 179.033 79.548H178.345V81.468H179.017ZM181.785 84.5H180.813C180.629 84.5 180.496 84.428 180.413 84.284L179.197 82.432C179.152 82.3627 179.101 82.3133 179.045 82.284C178.992 82.2547 178.912 82.24 178.805 82.24H178.345V84.5H177.269V78.716H179.033C179.425 78.716 179.761 78.7573 180.041 78.84C180.324 78.92 180.554 79.0333 180.733 79.18C180.914 79.3267 181.048 79.5027 181.133 79.708C181.218 79.9107 181.261 80.1347 181.261 80.38C181.261 80.5747 181.232 80.7587 181.173 80.932C181.117 81.1053 181.034 81.2627 180.925 81.404C180.818 81.5453 180.685 81.6693 180.525 81.776C180.368 81.8827 180.188 81.9667 179.985 82.028C180.054 82.068 180.118 82.116 180.177 82.172C180.236 82.2253 180.289 82.2893 180.337 82.364L181.785 84.5ZM183.49 84.5H182.41V78.716H183.49V84.5ZM188.757 83.136C188.815 83.136 188.867 83.1587 188.913 83.204L189.337 83.664C189.102 83.9547 188.813 84.1773 188.469 84.332C188.127 84.4867 187.717 84.564 187.237 84.564C186.807 84.564 186.421 84.4907 186.077 84.344C185.735 84.1973 185.443 83.9933 185.201 83.732C184.958 83.4707 184.771 83.1587 184.641 82.796C184.513 82.4333 184.449 82.0373 184.449 81.608C184.449 81.1733 184.518 80.776 184.657 80.416C184.795 80.0533 184.99 79.7413 185.241 79.48C185.494 79.2187 185.795 79.016 186.145 78.872C186.494 78.7253 186.881 78.652 187.305 78.652C187.726 78.652 188.099 78.7213 188.425 78.86C188.753 78.9987 189.031 79.18 189.261 79.404L188.901 79.904C188.879 79.936 188.851 79.964 188.817 79.988C188.785 80.012 188.739 80.024 188.681 80.024C188.641 80.024 188.599 80.0133 188.557 79.992C188.514 79.968 188.467 79.94 188.417 79.908C188.366 79.8733 188.307 79.836 188.241 79.796C188.174 79.756 188.097 79.72 188.009 79.688C187.921 79.6533 187.818 79.6253 187.701 79.604C187.586 79.58 187.453 79.568 187.301 79.568C187.042 79.568 186.805 79.6147 186.589 79.708C186.375 79.7987 186.191 79.932 186.037 80.108C185.882 80.2813 185.762 80.4947 185.677 80.748C185.591 80.9987 185.549 81.2853 185.549 81.608C185.549 81.9333 185.594 82.2227 185.685 82.476C185.778 82.7293 185.903 82.9427 186.061 83.116C186.218 83.2893 186.403 83.4227 186.617 83.516C186.83 83.6067 187.059 83.652 187.305 83.652C187.451 83.652 187.583 83.644 187.701 83.628C187.821 83.612 187.93 83.5867 188.029 83.552C188.13 83.5173 188.225 83.4733 188.313 83.42C188.403 83.364 188.493 83.296 188.581 83.216C188.607 83.192 188.635 83.1733 188.665 83.16C188.694 83.144 188.725 83.136 188.757 83.136ZM191.154 79.572V81.176H193.178V82.004H191.154V83.64H193.722V84.5H190.074V78.716H193.722V79.572H191.154ZM147.2 91.316L146.496 89.392C146.461 89.3067 146.425 89.2053 146.388 89.088C146.351 88.9707 146.313 88.844 146.276 88.708C146.241 88.844 146.205 88.972 146.168 89.092C146.131 89.2093 146.095 89.312 146.06 89.4L145.36 91.316H147.2ZM149.1 93.5H148.268C148.175 93.5 148.099 93.4773 148.04 93.432C147.981 93.384 147.937 93.3253 147.908 93.256L147.476 92.076H145.08L144.648 93.256C144.627 93.3173 144.585 93.3733 144.524 93.424C144.463 93.4747 144.387 93.5 144.296 93.5H143.456L145.732 87.716H146.828L149.1 93.5ZM153.176 88.6H151.432V93.5H150.356V88.6H148.612V87.716H153.176V88.6ZM156.716 88.572V90.176H158.74V91.004H156.716V92.64H159.284V93.5H155.636V87.716H159.284V88.572H156.716ZM164.938 93.5H163.866C163.791 93.5 163.731 93.4813 163.686 93.444C163.643 93.4067 163.608 93.364 163.582 93.316L162.242 91.096C162.22 91.1627 162.195 91.22 162.166 91.268L160.882 93.316C160.85 93.3613 160.812 93.404 160.77 93.444C160.73 93.4813 160.676 93.5 160.61 93.5H159.606L161.526 90.524L159.682 87.716H160.754C160.828 87.716 160.882 87.7267 160.914 87.748C160.948 87.7667 160.98 87.7987 161.01 87.844L162.326 89.964C162.352 89.8973 162.384 89.8307 162.422 89.764L163.63 87.864C163.659 87.8133 163.691 87.776 163.726 87.752C163.76 87.728 163.804 87.716 163.858 87.716H164.886L163.026 90.48L164.938 93.5ZM167.485 90.624C167.682 90.624 167.854 90.6 168.001 90.552C168.148 90.5013 168.269 90.4307 168.365 90.34C168.464 90.2467 168.537 90.1347 168.585 90.004C168.633 89.8707 168.657 89.7227 168.657 89.56C168.657 89.4053 168.633 89.2653 168.585 89.14C168.537 89.0147 168.465 88.908 168.369 88.82C168.273 88.732 168.152 88.6653 168.005 88.62C167.858 88.572 167.685 88.548 167.485 88.548H166.681V90.624H167.485ZM167.485 87.716C167.872 87.716 168.206 87.7613 168.489 87.852C168.772 87.9427 169.005 88.0693 169.189 88.232C169.373 88.3947 169.509 88.5893 169.597 88.816C169.688 89.0427 169.733 89.2907 169.733 89.56C169.733 89.84 169.686 90.0973 169.593 90.332C169.5 90.564 169.36 90.764 169.173 90.932C168.986 91.1 168.752 91.2307 168.469 91.324C168.189 91.4173 167.861 91.464 167.485 91.464H166.681V93.5H165.605V87.716H167.485ZM169.508 92.956C169.508 92.8733 169.523 92.7947 169.552 92.72C169.584 92.6453 169.627 92.5813 169.68 92.528C169.733 92.4747 169.797 92.432 169.872 92.4C169.947 92.368 170.027 92.352 170.112 92.352C170.197 92.352 170.276 92.368 170.348 92.4C170.423 92.432 170.487 92.4747 170.54 92.528C170.596 92.5813 170.64 92.6453 170.672 92.72C170.704 92.7947 170.72 92.8733 170.72 92.956C170.72 93.0413 170.704 93.1213 170.672 93.196C170.64 93.268 170.596 93.3307 170.54 93.384C170.487 93.4373 170.423 93.4787 170.348 93.508C170.276 93.54 170.197 93.556 170.112 93.556C170.027 93.556 169.947 93.54 169.872 93.508C169.797 93.4787 169.733 93.4373 169.68 93.384C169.627 93.3307 169.584 93.268 169.552 93.196C169.523 93.1213 169.508 93.0413 169.508 92.956Z" fill="#E7E7E7"/>
<path d="M33.532 139.612V140.5H30.144V134.716H31.22V139.612H33.532ZM39.6131 137.608C39.6131 138.032 39.5425 138.425 39.4011 138.788C39.2625 139.148 39.0651 139.46 38.8091 139.724C38.5531 139.988 38.2451 140.195 37.8851 140.344C37.5251 140.491 37.1251 140.564 36.6851 140.564C36.2478 140.564 35.8491 140.491 35.4891 140.344C35.1291 140.195 34.8198 139.988 34.5611 139.724C34.3051 139.46 34.1065 139.148 33.9651 138.788C33.8238 138.425 33.7531 138.032 33.7531 137.608C33.7531 137.184 33.8238 136.792 33.9651 136.432C34.1065 136.069 34.3051 135.756 34.5611 135.492C34.8198 135.228 35.1291 135.023 35.4891 134.876C35.8491 134.727 36.2478 134.652 36.6851 134.652C36.9785 134.652 37.2545 134.687 37.5131 134.756C37.7718 134.823 38.0091 134.919 38.2251 135.044C38.4411 135.167 38.6345 135.317 38.8051 135.496C38.9785 135.672 39.1251 135.869 39.2451 136.088C39.3651 136.307 39.4558 136.544 39.5171 136.8C39.5811 137.056 39.6131 137.325 39.6131 137.608ZM38.5131 137.608C38.5131 137.291 38.4705 137.007 38.3851 136.756C38.2998 136.503 38.1785 136.288 38.0211 136.112C37.8638 135.936 37.6718 135.801 37.4451 135.708C37.2211 135.615 36.9678 135.568 36.6851 135.568C36.4025 135.568 36.1478 135.615 35.9211 135.708C35.6971 135.801 35.5051 135.936 35.3451 136.112C35.1878 136.288 35.0665 136.503 34.9811 136.756C34.8958 137.007 34.8531 137.291 34.8531 137.608C34.8531 137.925 34.8958 138.211 34.9811 138.464C35.0665 138.715 35.1878 138.928 35.3451 139.104C35.5051 139.277 35.6971 139.411 35.9211 139.504C36.1478 139.597 36.4025 139.644 36.6851 139.644C36.9678 139.644 37.2211 139.597 37.4451 139.504C37.6718 139.411 37.8638 139.277 38.0211 139.104C38.1785 138.928 38.2998 138.715 38.3851 138.464C38.4705 138.211 38.5131 137.925 38.5131 137.608ZM43.6381 135.768C43.6061 135.824 43.5714 135.865 43.5341 135.892C43.4994 135.916 43.4554 135.928 43.4021 135.928C43.3461 135.928 43.2847 135.908 43.2181 135.868C43.1541 135.825 43.0767 135.779 42.9861 135.728C42.8954 135.677 42.7887 135.632 42.6661 135.592C42.5461 135.549 42.4034 135.528 42.2381 135.528C42.0887 135.528 41.9581 135.547 41.8461 135.584C41.7341 135.619 41.6394 135.668 41.5621 135.732C41.4874 135.796 41.4314 135.873 41.3941 135.964C41.3567 136.052 41.3381 136.149 41.3381 136.256C41.3381 136.392 41.3754 136.505 41.4501 136.596C41.5274 136.687 41.6287 136.764 41.7541 136.828C41.8794 136.892 42.0221 136.949 42.1821 137C42.3421 137.051 42.5061 137.105 42.6741 137.164C42.8421 137.22 43.0061 137.287 43.1661 137.364C43.3261 137.439 43.4687 137.535 43.5941 137.652C43.7194 137.767 43.8194 137.908 43.8941 138.076C43.9714 138.244 44.0101 138.448 44.0101 138.688C44.0101 138.949 43.9647 139.195 43.8741 139.424C43.7861 139.651 43.6554 139.849 43.4821 140.02C43.3114 140.188 43.1021 140.321 42.8541 140.42C42.6061 140.516 42.3221 140.564 42.0021 140.564C41.8181 140.564 41.6367 140.545 41.4581 140.508C41.2794 140.473 41.1074 140.423 40.9421 140.356C40.7794 140.289 40.6261 140.209 40.4821 140.116C40.3381 140.023 40.2101 139.919 40.0981 139.804L40.4141 139.288C40.4407 139.251 40.4754 139.22 40.5181 139.196C40.5607 139.169 40.6061 139.156 40.6541 139.156C40.7207 139.156 40.7927 139.184 40.8701 139.24C40.9474 139.293 41.0394 139.353 41.1461 139.42C41.2527 139.487 41.3767 139.548 41.5181 139.604C41.6621 139.657 41.8341 139.684 42.0341 139.684C42.3407 139.684 42.5781 139.612 42.7461 139.468C42.9141 139.321 42.9981 139.112 42.9981 138.84C42.9981 138.688 42.9594 138.564 42.8821 138.468C42.8074 138.372 42.7074 138.292 42.5821 138.228C42.4567 138.161 42.3141 138.105 42.1541 138.06C41.9941 138.015 41.8314 137.965 41.6661 137.912C41.5007 137.859 41.3381 137.795 41.1781 137.72C41.0181 137.645 40.8754 137.548 40.7501 137.428C40.6247 137.308 40.5234 137.159 40.4461 136.98C40.3714 136.799 40.3341 136.576 40.3341 136.312C40.3341 136.101 40.3754 135.896 40.4581 135.696C40.5434 135.496 40.6661 135.319 40.8261 135.164C40.9861 135.009 41.1834 134.885 41.4181 134.792C41.6527 134.699 41.9221 134.652 42.2261 134.652C42.5674 134.652 42.8821 134.705 43.1701 134.812C43.4581 134.919 43.7034 135.068 43.9061 135.26L43.6381 135.768ZM48.0287 135.768C47.9967 135.824 47.962 135.865 47.9247 135.892C47.89 135.916 47.846 135.928 47.7927 135.928C47.7367 135.928 47.6754 135.908 47.6087 135.868C47.5447 135.825 47.4674 135.779 47.3767 135.728C47.286 135.677 47.1794 135.632 47.0567 135.592C46.9367 135.549 46.794 135.528 46.6287 135.528C46.4794 135.528 46.3487 135.547 46.2367 135.584C46.1247 135.619 46.03 135.668 45.9527 135.732C45.878 135.796 45.822 135.873 45.7847 135.964C45.7474 136.052 45.7287 136.149 45.7287 136.256C45.7287 136.392 45.766 136.505 45.8407 136.596C45.918 136.687 46.0194 136.764 46.1447 136.828C46.27 136.892 46.4127 136.949 46.5727 137C46.7327 137.051 46.8967 137.105 47.0647 137.164C47.2327 137.22 47.3967 137.287 47.5567 137.364C47.7167 137.439 47.8594 137.535 47.9847 137.652C48.11 137.767 48.21 137.908 48.2847 138.076C48.362 138.244 48.4007 138.448 48.4007 138.688C48.4007 138.949 48.3554 139.195 48.2647 139.424C48.1767 139.651 48.046 139.849 47.8727 140.02C47.702 140.188 47.4927 140.321 47.2447 140.42C46.9967 140.516 46.7127 140.564 46.3927 140.564C46.2087 140.564 46.0274 140.545 45.8487 140.508C45.67 140.473 45.498 140.423 45.3327 140.356C45.17 140.289 45.0167 140.209 44.8727 140.116C44.7287 140.023 44.6007 139.919 44.4887 139.804L44.8047 139.288C44.8314 139.251 44.866 139.22 44.9087 139.196C44.9514 139.169 44.9967 139.156 45.0447 139.156C45.1114 139.156 45.1834 139.184 45.2607 139.24C45.338 139.293 45.43 139.353 45.5367 139.42C45.6434 139.487 45.7674 139.548 45.9087 139.604C46.0527 139.657 46.2247 139.684 46.4247 139.684C46.7314 139.684 46.9687 139.612 47.1367 139.468C47.3047 139.321 47.3887 139.112 47.3887 138.84C47.3887 138.688 47.35 138.564 47.2727 138.468C47.198 138.372 47.098 138.292 46.9727 138.228C46.8474 138.161 46.7047 138.105 46.5447 138.06C46.3847 138.015 46.222 137.965 46.0567 137.912C45.8914 137.859 45.7287 137.795 45.5687 137.72C45.4087 137.645 45.266 137.548 45.1407 137.428C45.0154 137.308 44.914 137.159 44.8367 136.98C44.762 136.799 44.7247 136.576 44.7247 136.312C44.7247 136.101 44.766 135.896 44.8487 135.696C44.934 135.496 45.0567 135.319 45.2167 135.164C45.3767 135.009 45.574 134.885 45.8087 134.792C46.0434 134.699 46.3127 134.652 46.6167 134.652C46.958 134.652 47.2727 134.705 47.5607 134.812C47.8487 134.919 48.094 135.068 48.2967 135.26L48.0287 135.768Z" fill="#E7E7E7"/>
<path d="M90.2 78.316L89.496 76.392C89.4613 76.3067 89.4253 76.2053 89.388 76.088C89.3507 75.9707 89.3133 75.844 89.276 75.708C89.2413 75.844 89.2053 75.972 89.168 76.092C89.1307 76.2093 89.0947 76.312 89.06 76.4L88.36 78.316H90.2ZM92.1 80.5H91.268C91.1747 80.5 91.0987 80.4773 91.04 80.432C90.9813 80.384 90.9373 80.3253 90.908 80.256L90.476 79.076H88.08L87.648 80.256C87.6267 80.3173 87.5853 80.3733 87.524 80.424C87.4627 80.4747 87.3867 80.5 87.296 80.5H86.456L88.732 74.716H89.828L92.1 80.5Z" fill="#00CC08"/>
<rect x="88.5" y="81.5" width="2" height="7" fill="#00CC08"/>
<path d="M41.2474 134.182L40.0002 134.114L132.261 42.1468L132.896 43.0866L41.2474 134.182Z" fill="#D46600"/>
</svg>
