<svg width="252" height="183" viewBox="0 0 252 183" fill="none" xmlns="http://www.w3.org/2000/svg">
<rect width="252" height="183" rx="4" fill="#29293D"/>
<rect x="40.5" y="35.5" width="1" height="113" fill="#9A93B4"/>
<rect x="154.5" y="92.5" width="1" height="113" transform="rotate(90 154.5 92.5)" fill="#9A93B4"/>
<path d="M47.024 38.624C47.2213 38.624 47.3933 38.6 47.54 38.552C47.6867 38.5013 47.808 38.4307 47.904 38.34C48.0027 38.2467 48.076 38.1347 48.124 38.004C48.172 37.8707 48.196 37.7227 48.196 37.56C48.196 37.4053 48.172 37.2653 48.124 37.14C48.076 37.0147 48.004 36.908 47.908 36.82C47.812 36.732 47.6907 36.6653 47.544 36.62C47.3973 36.572 47.224 36.548 47.024 36.548H46.22V38.624H47.024ZM47.024 35.716C47.4107 35.716 47.7453 35.7613 48.028 35.852C48.3107 35.9427 48.544 36.0693 48.728 36.232C48.912 36.3947 49.048 36.5893 49.136 36.816C49.2267 37.0427 49.272 37.2907 49.272 37.56C49.272 37.84 49.2253 38.0973 49.132 38.332C49.0387 38.564 48.8987 38.764 48.712 38.932C48.5253 39.1 48.2907 39.2307 48.008 39.324C47.728 39.4173 47.4 39.464 47.024 39.464H46.22V41.5H45.144V35.716H47.024ZM51.8451 38.468C52.0478 38.468 52.2238 38.4427 52.3731 38.392C52.5251 38.3413 52.6491 38.272 52.7451 38.184C52.8438 38.0933 52.9171 37.9867 52.9651 37.864C53.0131 37.7413 53.0371 37.6067 53.0371 37.46C53.0371 37.1667 52.9398 36.9413 52.7451 36.784C52.5531 36.6267 52.2585 36.548 51.8611 36.548H51.1731V38.468H51.8451ZM54.6131 41.5H53.6411C53.4571 41.5 53.3238 41.428 53.2411 41.284L52.0251 39.432C51.9798 39.3627 51.9291 39.3133 51.8731 39.284C51.8198 39.2547 51.7398 39.24 51.6331 39.24H51.1731V41.5H50.0971V35.716H51.8611C52.2531 35.716 52.5891 35.7573 52.8691 35.84C53.1518 35.92 53.3825 36.0333 53.5611 36.18C53.7425 36.3267 53.8758 36.5027 53.9611 36.708C54.0465 36.9107 54.0891 37.1347 54.0891 37.38C54.0891 37.5747 54.0598 37.7587 54.0011 37.932C53.9451 38.1053 53.8625 38.2627 53.7531 38.404C53.6465 38.5453 53.5131 38.6693 53.3531 38.776C53.1958 38.8827 53.0158 38.9667 52.8131 39.028C52.8825 39.068 52.9465 39.116 53.0051 39.172C53.0638 39.2253 53.1171 39.2893 53.1651 39.364L54.6131 41.5ZM60.6756 38.608C60.6756 39.032 60.605 39.4253 60.4636 39.788C60.325 40.148 60.1276 40.46 59.8716 40.724C59.6156 40.988 59.3076 41.1947 58.9476 41.344C58.5876 41.4907 58.1876 41.564 57.7476 41.564C57.3103 41.564 56.9116 41.4907 56.5516 41.344C56.1916 41.1947 55.8823 40.988 55.6236 40.724C55.3676 40.46 55.169 40.148 55.0276 39.788C54.8863 39.4253 54.8156 39.032 54.8156 38.608C54.8156 38.184 54.8863 37.792 55.0276 37.432C55.169 37.0693 55.3676 36.756 55.6236 36.492C55.8823 36.228 56.1916 36.0227 56.5516 35.876C56.9116 35.7267 57.3103 35.652 57.7476 35.652C58.041 35.652 58.317 35.6867 58.5756 35.756C58.8343 35.8227 59.0716 35.9187 59.2876 36.044C59.5036 36.1667 59.697 36.3173 59.8676 36.496C60.041 36.672 60.1876 36.8693 60.3076 37.088C60.4276 37.3067 60.5183 37.544 60.5796 37.8C60.6436 38.056 60.6756 38.3253 60.6756 38.608ZM59.5756 38.608C59.5756 38.2907 59.533 38.0067 59.4476 37.756C59.3623 37.5027 59.241 37.288 59.0836 37.112C58.9263 36.936 58.7343 36.8013 58.5076 36.708C58.2836 36.6147 58.0303 36.568 57.7476 36.568C57.465 36.568 57.2103 36.6147 56.9836 36.708C56.7596 36.8013 56.5676 36.936 56.4076 37.112C56.2503 37.288 56.129 37.5027 56.0436 37.756C55.9583 38.0067 55.9156 38.2907 55.9156 38.608C55.9156 38.9253 55.9583 39.2107 56.0436 39.464C56.129 39.7147 56.2503 39.928 56.4076 40.104C56.5676 40.2773 56.7596 40.4107 56.9836 40.504C57.2103 40.5973 57.465 40.644 57.7476 40.644C58.0303 40.644 58.2836 40.5973 58.5076 40.504C58.7343 40.4107 58.9263 40.2773 59.0836 40.104C59.241 39.928 59.3623 39.7147 59.4476 39.464C59.533 39.2107 59.5756 38.9253 59.5756 38.608ZM62.7006 36.572V38.284H64.8686V39.144H62.7006V41.5H61.6206V35.716H65.2686V36.572H62.7006ZM67.2318 41.5H66.1518V35.716H67.2318V41.5ZM72.5668 36.6H70.8228V41.5H69.7468V36.6H68.0028V35.716H72.5668V36.6Z" fill="#E7E7E7"/>
<path d="M162.224 87.768C162.192 87.824 162.157 87.8653 162.12 87.892C162.085 87.916 162.041 87.928 161.988 87.928C161.932 87.928 161.871 87.908 161.804 87.868C161.74 87.8253 161.663 87.7787 161.572 87.728C161.481 87.6773 161.375 87.632 161.252 87.592C161.132 87.5493 160.989 87.528 160.824 87.528C160.675 87.528 160.544 87.5467 160.432 87.584C160.32 87.6187 160.225 87.668 160.148 87.732C160.073 87.796 160.017 87.8733 159.98 87.964C159.943 88.052 159.924 88.1493 159.924 88.256C159.924 88.392 159.961 88.5053 160.036 88.596C160.113 88.6867 160.215 88.764 160.34 88.828C160.465 88.892 160.608 88.9493 160.768 89C160.928 89.0507 161.092 89.1053 161.26 89.164C161.428 89.22 161.592 89.2867 161.752 89.364C161.912 89.4387 162.055 89.5347 162.18 89.652C162.305 89.7667 162.405 89.908 162.48 90.076C162.557 90.244 162.596 90.448 162.596 90.688C162.596 90.9493 162.551 91.1947 162.46 91.424C162.372 91.6507 162.241 91.8493 162.068 92.02C161.897 92.188 161.688 92.3213 161.44 92.42C161.192 92.516 160.908 92.564 160.588 92.564C160.404 92.564 160.223 92.5453 160.044 92.508C159.865 92.4733 159.693 92.4227 159.528 92.356C159.365 92.2893 159.212 92.2093 159.068 92.116C158.924 92.0227 158.796 91.9187 158.684 91.804L159 91.288C159.027 91.2507 159.061 91.22 159.104 91.196C159.147 91.1693 159.192 91.156 159.24 91.156C159.307 91.156 159.379 91.184 159.456 91.24C159.533 91.2933 159.625 91.3533 159.732 91.42C159.839 91.4867 159.963 91.548 160.104 91.604C160.248 91.6573 160.42 91.684 160.62 91.684C160.927 91.684 161.164 91.612 161.332 91.468C161.5 91.3213 161.584 91.112 161.584 90.84C161.584 90.688 161.545 90.564 161.468 90.468C161.393 90.372 161.293 90.292 161.168 90.228C161.043 90.1613 160.9 90.1053 160.74 90.06C160.58 90.0147 160.417 89.9653 160.252 89.912C160.087 89.8587 159.924 89.7947 159.764 89.72C159.604 89.6453 159.461 89.548 159.336 89.428C159.211 89.308 159.109 89.1587 159.032 88.98C158.957 88.7987 158.92 88.576 158.92 88.312C158.92 88.1013 158.961 87.896 159.044 87.696C159.129 87.496 159.252 87.3187 159.412 87.164C159.572 87.0093 159.769 86.8853 160.004 86.792C160.239 86.6987 160.508 86.652 160.812 86.652C161.153 86.652 161.468 86.7053 161.756 86.812C162.044 86.9187 162.289 87.068 162.492 87.26L162.224 87.768ZM167.575 87.6H165.831V92.5H164.755V87.6H163.011V86.716H167.575V87.6ZM173.652 89.608C173.652 90.032 173.582 90.4253 173.44 90.788C173.302 91.148 173.104 91.46 172.848 91.724C172.592 91.988 172.284 92.1947 171.924 92.344C171.564 92.4907 171.164 92.564 170.724 92.564C170.287 92.564 169.888 92.4907 169.528 92.344C169.168 92.1947 168.859 91.988 168.6 91.724C168.344 91.46 168.146 91.148 168.004 90.788C167.863 90.4253 167.792 90.032 167.792 89.608C167.792 89.184 167.863 88.792 168.004 88.432C168.146 88.0693 168.344 87.756 168.6 87.492C168.859 87.228 169.168 87.0227 169.528 86.876C169.888 86.7267 170.287 86.652 170.724 86.652C171.018 86.652 171.294 86.6867 171.552 86.756C171.811 86.8227 172.048 86.9187 172.264 87.044C172.48 87.1667 172.674 87.3173 172.844 87.496C173.018 87.672 173.164 87.8693 173.284 88.088C173.404 88.3067 173.495 88.544 173.556 88.8C173.62 89.056 173.652 89.3253 173.652 89.608ZM172.552 89.608C172.552 89.2907 172.51 89.0067 172.424 88.756C172.339 88.5027 172.218 88.288 172.06 88.112C171.903 87.936 171.711 87.8013 171.484 87.708C171.26 87.6147 171.007 87.568 170.724 87.568C170.442 87.568 170.187 87.6147 169.96 87.708C169.736 87.8013 169.544 87.936 169.384 88.112C169.227 88.288 169.106 88.5027 169.02 88.756C168.935 89.0067 168.892 89.2907 168.892 89.608C168.892 89.9253 168.935 90.2107 169.02 90.464C169.106 90.7147 169.227 90.928 169.384 91.104C169.544 91.2773 169.736 91.4107 169.96 91.504C170.187 91.5973 170.442 91.644 170.724 91.644C171.007 91.644 171.26 91.5973 171.484 91.504C171.711 91.4107 171.903 91.2773 172.06 91.104C172.218 90.928 172.339 90.7147 172.424 90.464C172.51 90.2107 172.552 89.9253 172.552 89.608ZM178.569 91.136C178.628 91.136 178.68 91.1587 178.725 91.204L179.149 91.664C178.914 91.9547 178.625 92.1773 178.281 92.332C177.94 92.4867 177.529 92.564 177.049 92.564C176.62 92.564 176.233 92.4907 175.889 92.344C175.548 92.1973 175.256 91.9933 175.013 91.732C174.77 91.4707 174.584 91.1587 174.453 90.796C174.325 90.4333 174.261 90.0373 174.261 89.608C174.261 89.1733 174.33 88.776 174.469 88.416C174.608 88.0533 174.802 87.7413 175.053 87.48C175.306 87.2187 175.608 87.016 175.957 86.872C176.306 86.7253 176.693 86.652 177.117 86.652C177.538 86.652 177.912 86.7213 178.237 86.86C178.565 86.9987 178.844 87.18 179.073 87.404L178.713 87.904C178.692 87.936 178.664 87.964 178.629 87.988C178.597 88.012 178.552 88.024 178.493 88.024C178.453 88.024 178.412 88.0133 178.369 87.992C178.326 87.968 178.28 87.94 178.229 87.908C178.178 87.8733 178.12 87.836 178.053 87.796C177.986 87.756 177.909 87.72 177.821 87.688C177.733 87.6533 177.63 87.6253 177.513 87.604C177.398 87.58 177.265 87.568 177.113 87.568C176.854 87.568 176.617 87.6147 176.401 87.708C176.188 87.7987 176.004 87.932 175.849 88.108C175.694 88.2813 175.574 88.4947 175.489 88.748C175.404 88.9987 175.361 89.2853 175.361 89.608C175.361 89.9333 175.406 90.2227 175.497 90.476C175.59 90.7293 175.716 90.9427 175.873 91.116C176.03 91.2893 176.216 91.4227 176.429 91.516C176.642 91.6067 176.872 91.652 177.117 91.652C177.264 91.652 177.396 91.644 177.513 91.628C177.633 91.612 177.742 91.5867 177.841 91.552C177.942 91.5173 178.037 91.4733 178.125 91.42C178.216 91.364 178.305 91.296 178.393 91.216C178.42 91.192 178.448 91.1733 178.477 91.16C178.506 91.144 178.537 91.136 178.569 91.136ZM180.962 89.14H181.214C181.316 89.14 181.4 89.1267 181.466 89.1C181.533 89.0707 181.59 89.0253 181.638 88.964L183.234 86.944C183.301 86.8587 183.37 86.8 183.442 86.768C183.517 86.7333 183.61 86.716 183.722 86.716H184.65L182.702 89.12C182.588 89.2667 182.469 89.3707 182.346 89.432C182.434 89.464 182.513 89.5093 182.582 89.568C182.654 89.624 182.722 89.6987 182.786 89.792L184.794 92.5H183.846C183.718 92.5 183.622 92.4827 183.558 92.448C183.497 92.4107 183.445 92.3573 183.402 92.288L181.766 90.152C181.716 90.08 181.657 90.0293 181.59 90C181.524 89.9707 181.428 89.956 181.302 89.956H180.962V92.5H179.886V86.716H180.962V89.14ZM189.196 89.624C189.393 89.624 189.565 89.6 189.712 89.552C189.859 89.5013 189.98 89.4307 190.076 89.34C190.175 89.2467 190.248 89.1347 190.296 89.004C190.344 88.8707 190.368 88.7227 190.368 88.56C190.368 88.4053 190.344 88.2653 190.296 88.14C190.248 88.0147 190.176 87.908 190.08 87.82C189.984 87.732 189.863 87.6653 189.716 87.62C189.569 87.572 189.396 87.548 189.196 87.548H188.392V89.624H189.196ZM189.196 86.716C189.583 86.716 189.917 86.7613 190.2 86.852C190.483 86.9427 190.716 87.0693 190.9 87.232C191.084 87.3947 191.22 87.5893 191.308 87.816C191.399 88.0427 191.444 88.2907 191.444 88.56C191.444 88.84 191.397 89.0973 191.304 89.332C191.211 89.564 191.071 89.764 190.884 89.932C190.697 90.1 190.463 90.2307 190.18 90.324C189.9 90.4173 189.572 90.464 189.196 90.464H188.392V92.5H187.316V86.716H189.196ZM194.017 89.468C194.22 89.468 194.396 89.4427 194.545 89.392C194.697 89.3413 194.821 89.272 194.917 89.184C195.016 89.0933 195.089 88.9867 195.137 88.864C195.185 88.7413 195.209 88.6067 195.209 88.46C195.209 88.1667 195.112 87.9413 194.917 87.784C194.725 87.6267 194.43 87.548 194.033 87.548H193.345V89.468H194.017ZM196.785 92.5H195.813C195.629 92.5 195.496 92.428 195.413 92.284L194.197 90.432C194.152 90.3627 194.101 90.3133 194.045 90.284C193.992 90.2547 193.912 90.24 193.805 90.24H193.345V92.5H192.269V86.716H194.033C194.425 86.716 194.761 86.7573 195.041 86.84C195.324 86.92 195.554 87.0333 195.733 87.18C195.914 87.3267 196.048 87.5027 196.133 87.708C196.218 87.9107 196.261 88.1347 196.261 88.38C196.261 88.5747 196.232 88.7587 196.173 88.932C196.117 89.1053 196.034 89.2627 195.925 89.404C195.818 89.5453 195.685 89.6693 195.525 89.776C195.368 89.8827 195.188 89.9667 194.985 90.028C195.054 90.068 195.118 90.116 195.177 90.172C195.236 90.2253 195.289 90.2893 195.337 90.364L196.785 92.5ZM198.49 92.5H197.41V86.716H198.49V92.5ZM203.757 91.136C203.815 91.136 203.867 91.1587 203.913 91.204L204.337 91.664C204.102 91.9547 203.813 92.1773 203.469 92.332C203.127 92.4867 202.717 92.564 202.237 92.564C201.807 92.564 201.421 92.4907 201.077 92.344C200.735 92.1973 200.443 91.9933 200.201 91.732C199.958 91.4707 199.771 91.1587 199.641 90.796C199.513 90.4333 199.449 90.0373 199.449 89.608C199.449 89.1733 199.518 88.776 199.657 88.416C199.795 88.0533 199.99 87.7413 200.241 87.48C200.494 87.2187 200.795 87.016 201.145 86.872C201.494 86.7253 201.881 86.652 202.305 86.652C202.726 86.652 203.099 86.7213 203.425 86.86C203.753 86.9987 204.031 87.18 204.261 87.404L203.901 87.904C203.879 87.936 203.851 87.964 203.817 87.988C203.785 88.012 203.739 88.024 203.681 88.024C203.641 88.024 203.599 88.0133 203.557 87.992C203.514 87.968 203.467 87.94 203.417 87.908C203.366 87.8733 203.307 87.836 203.241 87.796C203.174 87.756 203.097 87.72 203.009 87.688C202.921 87.6533 202.818 87.6253 202.701 87.604C202.586 87.58 202.453 87.568 202.301 87.568C202.042 87.568 201.805 87.6147 201.589 87.708C201.375 87.7987 201.191 87.932 201.037 88.108C200.882 88.2813 200.762 88.4947 200.677 88.748C200.591 88.9987 200.549 89.2853 200.549 89.608C200.549 89.9333 200.594 90.2227 200.685 90.476C200.778 90.7293 200.903 90.9427 201.061 91.116C201.218 91.2893 201.403 91.4227 201.617 91.516C201.83 91.6067 202.059 91.652 202.305 91.652C202.451 91.652 202.583 91.644 202.701 91.628C202.821 91.612 202.93 91.5867 203.029 91.552C203.13 91.5173 203.225 91.4733 203.313 91.42C203.403 91.364 203.493 91.296 203.581 91.216C203.607 91.192 203.635 91.1733 203.665 91.16C203.694 91.144 203.725 91.136 203.757 91.136ZM206.154 87.572V89.176H208.178V90.004H206.154V91.64H208.722V92.5H205.074V86.716H208.722V87.572H206.154ZM162.2 99.316L161.496 97.392C161.461 97.3067 161.425 97.2053 161.388 97.088C161.351 96.9707 161.313 96.844 161.276 96.708C161.241 96.844 161.205 96.972 161.168 97.092C161.131 97.2093 161.095 97.312 161.06 97.4L160.36 99.316H162.2ZM164.1 101.5H163.268C163.175 101.5 163.099 101.477 163.04 101.432C162.981 101.384 162.937 101.325 162.908 101.256L162.476 100.076H160.08L159.648 101.256C159.627 101.317 159.585 101.373 159.524 101.424C159.463 101.475 159.387 101.5 159.296 101.5H158.456L160.732 95.716H161.828L164.1 101.5ZM168.176 96.6H166.432V101.5H165.356V96.6H163.612V95.716H168.176V96.6ZM171.716 96.572V98.176H173.74V99.004H171.716V100.64H174.284V101.5H170.636V95.716H174.284V96.572H171.716ZM179.938 101.5H178.866C178.791 101.5 178.731 101.481 178.686 101.444C178.643 101.407 178.608 101.364 178.582 101.316L177.242 99.096C177.22 99.1627 177.195 99.22 177.166 99.268L175.882 101.316C175.85 101.361 175.812 101.404 175.77 101.444C175.73 101.481 175.676 101.5 175.61 101.5H174.606L176.526 98.524L174.682 95.716H175.754C175.828 95.716 175.882 95.7267 175.914 95.748C175.948 95.7667 175.98 95.7987 176.01 95.844L177.326 97.964C177.352 97.8973 177.384 97.8307 177.422 97.764L178.63 95.864C178.659 95.8133 178.691 95.776 178.726 95.752C178.76 95.728 178.804 95.716 178.858 95.716H179.886L178.026 98.48L179.938 101.5ZM182.485 98.624C182.682 98.624 182.854 98.6 183.001 98.552C183.148 98.5013 183.269 98.4307 183.365 98.34C183.464 98.2467 183.537 98.1347 183.585 98.004C183.633 97.8707 183.657 97.7227 183.657 97.56C183.657 97.4053 183.633 97.2653 183.585 97.14C183.537 97.0147 183.465 96.908 183.369 96.82C183.273 96.732 183.152 96.6653 183.005 96.62C182.858 96.572 182.685 96.548 182.485 96.548H181.681V98.624H182.485ZM182.485 95.716C182.872 95.716 183.206 95.7613 183.489 95.852C183.772 95.9427 184.005 96.0693 184.189 96.232C184.373 96.3947 184.509 96.5893 184.597 96.816C184.688 97.0427 184.733 97.2907 184.733 97.56C184.733 97.84 184.686 98.0973 184.593 98.332C184.5 98.564 184.36 98.764 184.173 98.932C183.986 99.1 183.752 99.2307 183.469 99.324C183.189 99.4173 182.861 99.464 182.485 99.464H181.681V101.5H180.605V95.716H182.485ZM184.508 100.956C184.508 100.873 184.523 100.795 184.552 100.72C184.584 100.645 184.627 100.581 184.68 100.528C184.733 100.475 184.797 100.432 184.872 100.4C184.947 100.368 185.027 100.352 185.112 100.352C185.197 100.352 185.276 100.368 185.348 100.4C185.423 100.432 185.487 100.475 185.54 100.528C185.596 100.581 185.64 100.645 185.672 100.72C185.704 100.795 185.72 100.873 185.72 100.956C185.72 101.041 185.704 101.121 185.672 101.196C185.64 101.268 185.596 101.331 185.54 101.384C185.487 101.437 185.423 101.479 185.348 101.508C185.276 101.54 185.197 101.556 185.112 101.556C185.027 101.556 184.947 101.54 184.872 101.508C184.797 101.479 184.733 101.437 184.68 101.384C184.627 101.331 184.584 101.268 184.552 101.196C184.523 101.121 184.508 101.041 184.508 100.956Z" fill="#E7E7E7"/>
<path d="M48.532 147.612V148.5H45.144V142.716H46.22V147.612H48.532ZM54.6131 145.608C54.6131 146.032 54.5425 146.425 54.4011 146.788C54.2625 147.148 54.0651 147.46 53.8091 147.724C53.5531 147.988 53.2451 148.195 52.8851 148.344C52.5251 148.491 52.1251 148.564 51.6851 148.564C51.2478 148.564 50.8491 148.491 50.4891 148.344C50.1291 148.195 49.8198 147.988 49.5611 147.724C49.3051 147.46 49.1065 147.148 48.9651 146.788C48.8238 146.425 48.7531 146.032 48.7531 145.608C48.7531 145.184 48.8238 144.792 48.9651 144.432C49.1065 144.069 49.3051 143.756 49.5611 143.492C49.8198 143.228 50.1291 143.023 50.4891 142.876C50.8491 142.727 51.2478 142.652 51.6851 142.652C51.9785 142.652 52.2545 142.687 52.5131 142.756C52.7718 142.823 53.0091 142.919 53.2251 143.044C53.4411 143.167 53.6345 143.317 53.8051 143.496C53.9785 143.672 54.1251 143.869 54.2451 144.088C54.3651 144.307 54.4558 144.544 54.5171 144.8C54.5811 145.056 54.6131 145.325 54.6131 145.608ZM53.5131 145.608C53.5131 145.291 53.4705 145.007 53.3851 144.756C53.2998 144.503 53.1785 144.288 53.0211 144.112C52.8638 143.936 52.6718 143.801 52.4451 143.708C52.2211 143.615 51.9678 143.568 51.6851 143.568C51.4025 143.568 51.1478 143.615 50.9211 143.708C50.6971 143.801 50.5051 143.936 50.3451 144.112C50.1878 144.288 50.0665 144.503 49.9811 144.756C49.8958 145.007 49.8531 145.291 49.8531 145.608C49.8531 145.925 49.8958 146.211 49.9811 146.464C50.0665 146.715 50.1878 146.928 50.3451 147.104C50.5051 147.277 50.6971 147.411 50.9211 147.504C51.1478 147.597 51.4025 147.644 51.6851 147.644C51.9678 147.644 52.2211 147.597 52.4451 147.504C52.6718 147.411 52.8638 147.277 53.0211 147.104C53.1785 146.928 53.2998 146.715 53.3851 146.464C53.4705 146.211 53.5131 145.925 53.5131 145.608ZM58.6381 143.768C58.6061 143.824 58.5714 143.865 58.5341 143.892C58.4994 143.916 58.4554 143.928 58.4021 143.928C58.3461 143.928 58.2847 143.908 58.2181 143.868C58.1541 143.825 58.0767 143.779 57.9861 143.728C57.8954 143.677 57.7887 143.632 57.6661 143.592C57.5461 143.549 57.4034 143.528 57.2381 143.528C57.0887 143.528 56.9581 143.547 56.8461 143.584C56.7341 143.619 56.6394 143.668 56.5621 143.732C56.4874 143.796 56.4314 143.873 56.3941 143.964C56.3567 144.052 56.3381 144.149 56.3381 144.256C56.3381 144.392 56.3754 144.505 56.4501 144.596C56.5274 144.687 56.6287 144.764 56.7541 144.828C56.8794 144.892 57.0221 144.949 57.1821 145C57.3421 145.051 57.5061 145.105 57.6741 145.164C57.8421 145.22 58.0061 145.287 58.1661 145.364C58.3261 145.439 58.4687 145.535 58.5941 145.652C58.7194 145.767 58.8194 145.908 58.8941 146.076C58.9714 146.244 59.0101 146.448 59.0101 146.688C59.0101 146.949 58.9647 147.195 58.8741 147.424C58.7861 147.651 58.6554 147.849 58.4821 148.02C58.3114 148.188 58.1021 148.321 57.8541 148.42C57.6061 148.516 57.3221 148.564 57.0021 148.564C56.8181 148.564 56.6367 148.545 56.4581 148.508C56.2794 148.473 56.1074 148.423 55.9421 148.356C55.7794 148.289 55.6261 148.209 55.4821 148.116C55.3381 148.023 55.2101 147.919 55.0981 147.804L55.4141 147.288C55.4407 147.251 55.4754 147.22 55.5181 147.196C55.5607 147.169 55.6061 147.156 55.6541 147.156C55.7207 147.156 55.7927 147.184 55.8701 147.24C55.9474 147.293 56.0394 147.353 56.1461 147.42C56.2527 147.487 56.3767 147.548 56.5181 147.604C56.6621 147.657 56.8341 147.684 57.0341 147.684C57.3407 147.684 57.5781 147.612 57.7461 147.468C57.9141 147.321 57.9981 147.112 57.9981 146.84C57.9981 146.688 57.9594 146.564 57.8821 146.468C57.8074 146.372 57.7074 146.292 57.5821 146.228C57.4567 146.161 57.3141 146.105 57.1541 146.06C56.9941 146.015 56.8314 145.965 56.6661 145.912C56.5007 145.859 56.3381 145.795 56.1781 145.72C56.0181 145.645 55.8754 145.548 55.7501 145.428C55.6247 145.308 55.5234 145.159 55.4461 144.98C55.3714 144.799 55.3341 144.576 55.3341 144.312C55.3341 144.101 55.3754 143.896 55.4581 143.696C55.5434 143.496 55.6661 143.319 55.8261 143.164C55.9861 143.009 56.1834 142.885 56.4181 142.792C56.6527 142.699 56.9221 142.652 57.2261 142.652C57.5674 142.652 57.8821 142.705 58.1701 142.812C58.4581 142.919 58.7034 143.068 58.9061 143.26L58.6381 143.768ZM63.0287 143.768C62.9967 143.824 62.962 143.865 62.9247 143.892C62.89 143.916 62.846 143.928 62.7927 143.928C62.7367 143.928 62.6754 143.908 62.6087 143.868C62.5447 143.825 62.4674 143.779 62.3767 143.728C62.286 143.677 62.1794 143.632 62.0567 143.592C61.9367 143.549 61.794 143.528 61.6287 143.528C61.4794 143.528 61.3487 143.547 61.2367 143.584C61.1247 143.619 61.03 143.668 60.9527 143.732C60.878 143.796 60.822 143.873 60.7847 143.964C60.7474 144.052 60.7287 144.149 60.7287 144.256C60.7287 144.392 60.766 144.505 60.8407 144.596C60.918 144.687 61.0194 144.764 61.1447 144.828C61.27 144.892 61.4127 144.949 61.5727 145C61.7327 145.051 61.8967 145.105 62.0647 145.164C62.2327 145.22 62.3967 145.287 62.5567 145.364C62.7167 145.439 62.8594 145.535 62.9847 145.652C63.11 145.767 63.21 145.908 63.2847 146.076C63.362 146.244 63.4007 146.448 63.4007 146.688C63.4007 146.949 63.3554 147.195 63.2647 147.424C63.1767 147.651 63.046 147.849 62.8727 148.02C62.702 148.188 62.4927 148.321 62.2447 148.42C61.9967 148.516 61.7127 148.564 61.3927 148.564C61.2087 148.564 61.0274 148.545 60.8487 148.508C60.67 148.473 60.498 148.423 60.3327 148.356C60.17 148.289 60.0167 148.209 59.8727 148.116C59.7287 148.023 59.6007 147.919 59.4887 147.804L59.8047 147.288C59.8314 147.251 59.866 147.22 59.9087 147.196C59.9514 147.169 59.9967 147.156 60.0447 147.156C60.1114 147.156 60.1834 147.184 60.2607 147.24C60.338 147.293 60.43 147.353 60.5367 147.42C60.6434 147.487 60.7674 147.548 60.9087 147.604C61.0527 147.657 61.2247 147.684 61.4247 147.684C61.7314 147.684 61.9687 147.612 62.1367 147.468C62.3047 147.321 62.3887 147.112 62.3887 146.84C62.3887 146.688 62.35 146.564 62.2727 146.468C62.198 146.372 62.098 146.292 61.9727 146.228C61.8474 146.161 61.7047 146.105 61.5447 146.06C61.3847 146.015 61.222 145.965 61.0567 145.912C60.8914 145.859 60.7287 145.795 60.5687 145.72C60.4087 145.645 60.266 145.548 60.1407 145.428C60.0154 145.308 59.914 145.159 59.8367 144.98C59.762 144.799 59.7247 144.576 59.7247 144.312C59.7247 144.101 59.766 143.896 59.8487 143.696C59.934 143.496 60.0567 143.319 60.2167 143.164C60.3767 143.009 60.574 142.885 60.8087 142.792C61.0434 142.699 61.3127 142.652 61.6167 142.652C61.958 142.652 62.2727 142.705 62.5607 142.812C62.8487 142.919 63.094 143.068 63.2967 143.26L63.0287 143.768Z" fill="#E7E7E7"/>
<path d="M105.2 86.316L104.496 84.392C104.461 84.3067 104.425 84.2053 104.388 84.088C104.351 83.9707 104.313 83.844 104.276 83.708C104.241 83.844 104.205 83.972 104.168 84.092C104.131 84.2093 104.095 84.312 104.06 84.4L103.36 86.316H105.2ZM107.1 88.5H106.268C106.175 88.5 106.099 88.4773 106.04 88.432C105.981 88.384 105.937 88.3253 105.908 88.256L105.476 87.076H103.08L102.648 88.256C102.627 88.3173 102.585 88.3733 102.524 88.424C102.463 88.4747 102.387 88.5 102.296 88.5H101.456L103.732 82.716H104.828L107.1 88.5Z" fill="#00CC08"/>
<rect x="103.5" y="89.5" width="2" height="7" fill="#00CC08"/>
<path d="M150.182 138.801L150.114 140.048L58.1468 47.7875L59.0866 47.1526L150.182 138.801Z" fill="#D46600"/>
</svg>
