<svg width="21" height="21" viewBox="0 0 21 21" fill="none" xmlns="http://www.w3.org/2000/svg">
<path d="M1 10.5496C1 5.30286 5.2533 1.04956 10.5 1.04956C15.7467 1.04956 20 5.30286 20 10.5496C20 15.7963 15.7467 20.0496 10.5 20.0496C5.2533 20.0496 1 15.7963 1 10.5496Z" stroke="#6B7280"/>
<g clip-path="url(#clip0_1_20501)">
<path d="M15.8333 9.88289H11.1667V5.21623C11.1667 5.03942 11.0964 4.86985 10.9714 4.74482C10.8464 4.6198 10.6768 4.54956 10.5 4.54956C10.3232 4.54956 10.1536 4.6198 10.0286 4.74482C9.90357 4.86985 9.83333 5.03942 9.83333 5.21623V9.88289H5.16667C4.98986 9.88289 4.82029 9.95313 4.69526 10.0782C4.57024 10.2032 4.5 10.3727 4.5 10.5496C4.5 10.7264 4.57024 10.8959 4.69526 11.021C4.82029 11.146 4.98986 11.2162 5.16667 11.2162H9.83333V15.8829C9.83333 16.0597 9.90357 16.2293 10.0286 16.3543C10.1536 16.4793 10.3232 16.5496 10.5 16.5496C10.6768 16.5496 10.8464 16.4793 10.9714 16.3543C11.0964 16.2293 11.1667 16.0597 11.1667 15.8829V11.2162H15.8333C16.0101 11.2162 16.1797 11.146 16.3047 11.021C16.4298 10.8959 16.5 10.7264 16.5 10.5496C16.5 10.3727 16.4298 10.2032 16.3047 10.0782C16.1797 9.95313 16.0101 9.88289 15.8333 9.88289Z" fill="#6B7280"/>
</g>
<defs>
<clipPath id="clip0_1_20501">
<rect width="12" height="12" fill="white" transform="translate(4.5 4.54956)"/>
</clipPath>
</defs>
</svg>
