<svg width="17" height="17" viewBox="0 0 17 17" fill="none" xmlns="http://www.w3.org/2000/svg">
<g clip-path="url(#clip0_594_1376)">
<path d="M15.7002 16.5496L15.7003 16.0496C15.6207 16.0495 15.5444 16.0179 15.4882 15.9617L15.4881 15.9616L12.2919 12.7654C12.2387 12.7091 12.2093 12.6343 12.21 12.5568C12.2106 12.4781 12.2422 12.4029 12.2978 12.3473L11.9443 11.9937L12.2978 12.3473C12.3534 12.2916 12.4287 12.2601 12.5073 12.2594C12.5849 12.2587 12.6597 12.2881 12.716 12.3413L15.9122 15.5375C15.9122 15.5375 15.9122 15.5375 15.9122 15.5375C15.9541 15.5795 15.9827 15.6329 15.9942 15.6911C16.0058 15.7492 15.9999 15.8095 15.9772 15.8644C15.9545 15.9192 15.916 15.966 15.8667 15.999C15.8174 16.0319 15.7594 16.0495 15.7001 16.0496L15.7002 16.5496ZM15.7002 16.5496C15.488 16.5495 15.2846 16.4652 15.1346 16.3152L11.9345 13.1152L16.2658 15.184C16.3776 15.2958 16.4538 15.4384 16.4846 15.5935C16.5155 15.7487 16.4996 15.9095 16.4391 16.0557C16.3786 16.2018 16.2761 16.3268 16.1445 16.4147C16.013 16.5026 15.8584 16.5495 15.7002 16.5496ZM6.90058 1.64956H6.90008C5.85183 1.64956 4.82712 1.9604 3.95553 2.54277C3.08394 3.12514 2.40461 3.95289 2.00347 4.92134C1.60232 5.88979 1.49736 6.95544 1.70186 7.98354C1.90637 9.01164 2.41115 9.95601 3.15237 10.6972C3.8936 11.4384 4.83798 11.9432 5.86609 12.1477C6.8942 12.3522 7.95986 12.2473 8.92832 11.8461C9.89678 11.445 10.7245 10.7657 11.3069 9.89408C11.8893 9.0225 12.2001 7.9978 12.2001 6.94956V6.94906C12.1987 5.54397 11.6399 4.19684 10.6464 3.2033C9.65282 2.20975 8.30567 1.65097 6.90058 1.64956ZM6.89952 12.8496C5.73279 12.8494 4.59228 12.5034 3.62217 11.8552C2.65191 11.2069 1.89568 10.2855 1.44912 9.20739C1.00256 8.12931 0.885716 6.94302 1.11337 5.79853C1.34103 4.65404 1.90295 3.60276 2.72809 2.77763C3.55323 1.9525 4.60453 1.39058 5.74903 1.16293C6.89353 0.935277 8.07984 1.05212 9.15794 1.49867C10.236 1.94523 11.1575 2.70145 11.8058 3.6717C12.454 4.64179 12.8 5.78229 12.8002 6.949C12.7984 8.51338 12.1762 10.0132 11.07 11.1194C9.96375 12.2256 8.46392 12.8478 6.89952 12.8496Z" fill="#6B7280" stroke="#6B7280"/>
</g>
<defs>
<clipPath id="clip0_594_1376">
<rect width="16" height="16" fill="white" transform="translate(0.5 0.549561)"/>
</clipPath>
</defs>
</svg>
