<svg width="33" height="32" viewBox="0 0 33 32" fill="none" xmlns="http://www.w3.org/2000/svg">
<path d="M10.5001 7.6001C9.86358 7.6001 9.25313 7.85295 8.80304 8.30304C8.35295 8.75313 8.1001 9.36358 8.1001 10.0001V12.4001C8.1001 13.0366 8.35295 13.6471 8.80304 14.0972C9.25313 14.5472 9.86358 14.8001 10.5001 14.8001H12.9001C13.5366 14.8001 14.1471 14.5472 14.5972 14.0972C15.0472 13.6471 15.3001 13.0366 15.3001 12.4001V10.0001C15.3001 9.36358 15.0472 8.75313 14.5972 8.30304C14.1471 7.85295 13.5366 7.6001 12.9001 7.6001H10.5001ZM10.5001 17.2001C9.86358 17.2001 9.25313 17.453 8.80304 17.903C8.35295 18.3531 8.1001 18.9636 8.1001 19.6001V22.0001C8.1001 22.6366 8.35295 23.2471 8.80304 23.6972C9.25313 24.1472 9.86358 24.4001 10.5001 24.4001H12.9001C13.5366 24.4001 14.1471 24.1472 14.5972 23.6972C15.0472 23.2471 15.3001 22.6366 15.3001 22.0001V19.6001C15.3001 18.9636 15.0472 18.3531 14.5972 17.903C14.1471 17.453 13.5366 17.2001 12.9001 17.2001H10.5001ZM17.7001 10.0001C17.7001 9.36358 17.953 8.75313 18.403 8.30304C18.8531 7.85295 19.4636 7.6001 20.1001 7.6001H22.5001C23.1366 7.6001 23.7471 7.85295 24.1972 8.30304C24.6472 8.75313 24.9001 9.36358 24.9001 10.0001V12.4001C24.9001 13.0366 24.6472 13.6471 24.1972 14.0972C23.7471 14.5472 23.1366 14.8001 22.5001 14.8001H20.1001C19.4636 14.8001 18.8531 14.5472 18.403 14.0972C17.953 13.6471 17.7001 13.0366 17.7001 12.4001V10.0001ZM17.7001 19.6001C17.7001 18.9636 17.953 18.3531 18.403 17.903C18.8531 17.453 19.4636 17.2001 20.1001 17.2001H22.5001C23.1366 17.2001 23.7471 17.453 24.1972 17.903C24.6472 18.3531 24.9001 18.9636 24.9001 19.6001V22.0001C24.9001 22.6366 24.6472 23.2471 24.1972 23.6972C23.7471 24.1472 23.1366 24.4001 22.5001 24.4001H20.1001C19.4636 24.4001 18.8531 24.1472 18.403 23.6972C17.953 23.2471 17.7001 22.6366 17.7001 22.0001V19.6001Z" fill="#9CA3AF"/>
</svg>
