<svg width="29" height="28" viewBox="0 0 29 28" fill="none" xmlns="http://www.w3.org/2000/svg">
<path d="M20.6106 15.0862V13.1914C20.6113 11.9109 20.1236 10.6675 19.2262 9.66237C18.3288 8.65725 17.0742 7.94915 15.6653 7.65258C15.676 7.61584 15.6844 7.57859 15.6903 7.541V5.05262C15.6903 4.77345 15.5649 4.50571 15.3416 4.3083C15.1184 4.1109 14.8156 4 14.4998 4C14.1841 4 13.8813 4.1109 13.658 4.3083C13.4348 4.50571 13.3094 4.77345 13.3094 5.05262V7.541C13.3153 7.57859 13.3236 7.61584 13.3344 7.65258C11.9254 7.94915 10.6709 8.65725 9.77346 9.66237C8.87606 10.6675 8.38833 11.9109 8.38912 13.1914V15.0862C8.38912 17.5977 6.1665 18.2251 6.1665 19.4808C6.1665 20.105 6.1665 20.7366 6.80698 20.7366H22.1927C22.8332 20.7366 22.8332 20.105 22.8332 19.4808C22.8332 18.2251 20.6106 17.5977 20.6106 15.0862Z" fill="#9CA3AF"/>
<path d="M10.7177 21.7892C11.0335 22.445 11.5604 23.0043 12.2329 23.3973C12.9054 23.7904 13.6937 24 14.4998 24C15.306 24 16.0943 23.7904 16.7668 23.3973C17.4393 23.0043 17.9662 22.445 18.282 21.7892H10.7177Z" fill="#9CA3AF"/>
</svg>
