<svg width="20" height="20" viewBox="0 0 20 20" fill="none" xmlns="http://www.w3.org/2000/svg">
  <path fill-rule="evenodd" clip-rule="evenodd" d="M8.50001 2L8.1164 4.30162C7.83546 4.39443 7.56371 4.50744 7.30287 4.63893L5.40384 3.28248L3.28252 5.4038L4.63896 7.30282C4.50747 7.56367 4.39445 7.83543 4.30163 8.11639L2 8.49999V11.5L4.30163 11.8836C4.39444 12.1645 4.50746 12.4363 4.63895 12.6972L3.28251 14.5962L5.40383 16.7175L7.30285 15.3611C7.5637 15.4926 7.83546 15.6056 8.1164 15.6984L8.50001 18H11.5L11.8836 15.6984C12.1646 15.6056 12.4363 15.4925 12.6972 15.361L14.5962 16.7175L16.7175 14.5962L15.3611 12.6971C15.4926 12.4363 15.6056 12.1645 15.6984 11.8836L18 11.5V8.49999L15.6984 8.11639C15.6056 7.83545 15.4926 7.5637 15.3611 7.30285L16.7175 5.4038L14.5962 3.28248L12.6972 4.63894C12.4363 4.50745 12.1646 4.39444 11.8836 4.30162L11.5 2H8.50001ZM10 12C11.1046 12 12 11.1046 12 10C12 8.89543 11.1046 8 10 8C8.89544 8 8.00001 8.89543 8.00001 10C8.00001 11.1046 8.89544 12 10 12Z" fill="currentColor"/>
</svg>
