<svg width="32" height="28" viewBox="0 0 32 28" fill="none" xmlns="http://www.w3.org/2000/svg">
<path d="M7 22.9032C4.5 22.9032 2.00008 24 1.50004 25C1 26 1 27 1 27H21C21 27 21 26 20.5 25C20 24 17.5 22.9032 15.1327 22.9032C13.0664 22.9032 12.9286 21.5882 12.9286 20.2941C12.9286 19.5844 15.8215 18.5 15.8215 13.5C15.8215 10.6613 14.1426 8 11 8C8.24494 8 6.17861 10.6613 6.17861 13.5C6.17861 18.5 9.07147 19.5844 9.07147 20.2941C9.07147 21.7135 9.07147 22.9032 7 22.9032Z" fill="currentColor" stroke="currentColor"/>
<path fill-rule="evenodd" clip-rule="evenodd" d="M9 4C9 1.79086 10.7909 0 13 0H28C30.2091 0 32 1.79086 32 4V10C32 12.2091 30.2091 14 28 14H26L19 21L21.6923 14H18C18 8.5 15.1327 6 11 6C10.2176 6 9.55682 6.17834 9 6.48649V4Z" fill="currentColor"/>
</svg>
