<svg width="48" height="48" viewBox="0 0 20 20" fill="none" stroke="currentColor" xmlns="http://www.w3.org/2000/svg">
<path d="M5.97643 9.47916C5.47022 9.98537 5.71892 9.73663 4.33047 11.1251C0.555639 14.9 5.28738 19.6281 9.06045 15.8551C10.4489 14.4666 10.2002 14.7154 10.7064 14.2091" stroke="currentColor" stroke-width="1.48449"/>
<path d="M14.3947 10.5208C14.9009 10.0146 14.6522 10.2634 16.0406 8.8749C19.8155 5.10002 15.0837 0.371872 11.3106 4.14491C9.92218 5.53337 10.1709 5.28465 9.66468 5.79086" stroke="currentColor" stroke-width="1.48449"/>
<path d="M5.95361 9.48966C5.95361 9.48966 6.37236 9.07091 6.5103 8.93298C8.08757 7.3557 9.89559 7.40086 11.4277 8.93298" stroke="currentColor" stroke-width="1.48449"/>
<path d="M14.415 10.4985C14.415 10.4985 13.9963 10.9173 13.8584 11.0552C12.2811 12.6325 10.4731 12.5873 8.94095 11.0552" stroke="currentColor" stroke-width="1.48449"/>
</svg>
