<svg width="32" height="32" viewBox="0 0 32 32" fill="none" xmlns="http://www.w3.org/2000/svg">
    <path opacity="0.5" d="M11.1786 20.9032C8.42347 20.9032 7 22 6.5 23C6.5 23 9 28 16 28C23 28 25.5 23 25.5 23C25 22 22.5 20.9032 20.1327 20.9032C18.0663 20.9032 17.9286 19.5882 17.9286 18.2941C17.9286 17.5844 20.8214 16.5 20.8214 11.5C20.8214 8.66129 19.1425 6 16 6C13.2449 6 11.1786 8.66129 11.1786 11.5C11.1786 16.5 14.0714 17.5844 14.0714 18.2941C14.0714 19.7135 13.9337 20.9032 11.1786 20.9032Z" fill="currentColor" stroke="currentColor"/>
    <circle cx="16" cy="16" r="15.25" stroke="currentColor" stroke-width="1.5"/>
</svg>
