<svg width="16" height="16" viewBox="0 0 16 16" fill="none" xmlns="http://www.w3.org/2000/svg">
<path d="M15.5 3V15.5H3" stroke="currentColor" stroke-opacity="0.36"/>
<rect opacity="0.7" x="3" width="13" height="3" fill="currentColor"/>
<rect opacity="0.7" x="0.5" y="3.5" width="2" height="12" fill="currentColor" stroke="currentColor"/>
<rect opacity="0.55" width="4" height="3" transform="matrix(-1 0 0 1 15 3)" fill="currentColor"/>
<rect opacity="0.3" width="4" height="3" transform="matrix(-1 0 0 1 11 3)" fill="currentColor"/>
<rect opacity="0.12" width="4" height="3" transform="matrix(-1 0 0 1 7 3)" fill="currentColor"/>
<rect opacity="0.9" width="4" height="3" transform="matrix(-1 0 0 1 15 6)" fill="currentColor"/>
<rect opacity="0.4" width="4" height="3" transform="matrix(-1 0 0 1 11 6)" fill="currentColor"/>
<rect opacity="0.25" width="4" height="3" transform="matrix(-1 0 0 1 7 6)" fill="currentColor"/>
<rect opacity="0.55" width="4" height="3" transform="matrix(-1 0 0 1 15 9)" fill="currentColor"/>
<rect opacity="0.3" width="4" height="3" transform="matrix(-1 0 0 1 11 9)" fill="currentColor"/>
<rect opacity="0.12" width="4" height="3" transform="matrix(-1 0 0 1 7 9)" fill="currentColor"/>
<rect opacity="0.3" width="4" height="3" transform="matrix(-1 0 0 1 15 12)" fill="currentColor"/>
<rect opacity="0.12" width="4" height="3" transform="matrix(-1 0 0 1 11 12)" fill="currentColor"/>
<rect opacity="0.4" width="3" height="3" fill="currentColor"/>
</svg>
